<mxfile host="Electron" agent="Mozilla/5.0 (Windows NT 10.0; Win64; x64) AppleWebKit/537.36 (KHTML, like Gecko) draw.io/24.6.4 Chrome/124.0.6367.207 Electron/30.0.6 Safari/537.36" modified="2025-04-03T08:52:44.262Z" etag="symyljKIMkXrSseBqq9M" version="24.6.4" type="device">
  <diagram name="第 1 页" id="F4dAkYMisPp_Crrg1WQa">
    <mxGraphModel dx="3499" dy="1767" grid="1" gridSize="10" guides="1" tooltips="1" connect="1" arrows="1" fold="1" page="1" pageScale="1" pageWidth="827" pageHeight="1169" math="0" shadow="0">
      <root>
        <mxCell id="0" />
        <mxCell id="1" parent="0" />
        <mxCell id="F7tQ2r_eFeR0tLp06QVQ-1211" style="rounded=0;orthogonalLoop=1;jettySize=auto;html=1;shape=flexArrow;" edge="1" parent="1" source="F7tQ2r_eFeR0tLp06QVQ-800" target="F7tQ2r_eFeR0tLp06QVQ-664">
          <mxGeometry relative="1" as="geometry" />
        </mxCell>
        <mxCell id="F7tQ2r_eFeR0tLp06QVQ-1212" style="rounded=0;orthogonalLoop=1;jettySize=auto;html=1;shape=flexArrow;" edge="1" parent="1" source="F7tQ2r_eFeR0tLp06QVQ-800">
          <mxGeometry relative="1" as="geometry">
            <mxPoint x="1038.33" y="2579.5806023868163" as="targetPoint" />
          </mxGeometry>
        </mxCell>
        <mxCell id="F7tQ2r_eFeR0tLp06QVQ-1213" style="rounded=0;orthogonalLoop=1;jettySize=auto;html=1;shape=flexArrow;" edge="1" parent="1" source="F7tQ2r_eFeR0tLp06QVQ-800" target="F7tQ2r_eFeR0tLp06QVQ-1200">
          <mxGeometry relative="1" as="geometry" />
        </mxCell>
        <mxCell id="F7tQ2r_eFeR0tLp06QVQ-800" value="交互协议" style="rounded=1;whiteSpace=wrap;html=1;fillColor=none;strokeColor=#6c8ebf;fontColor=#000000;fontSize=20;fontFamily=Helvetica;verticalAlign=top;dashed=1;fontStyle=1;strokeWidth=3;" vertex="1" parent="1">
          <mxGeometry x="198.32999999999998" y="2394" width="840" height="480" as="geometry" />
        </mxCell>
        <mxCell id="F7tQ2r_eFeR0tLp06QVQ-775" value="外部数据管理模块" style="rounded=1;whiteSpace=wrap;html=1;fillColor=none;strokeColor=#6c8ebf;fontColor=#000000;fontSize=20;fontFamily=Helvetica;verticalAlign=top;dashed=1;fontStyle=1;strokeWidth=3;" vertex="1" parent="1">
          <mxGeometry x="-2460" y="1200" width="1660" height="1120" as="geometry" />
        </mxCell>
        <mxCell id="F7tQ2r_eFeR0tLp06QVQ-659" value="资产管理" style="rounded=1;whiteSpace=wrap;html=1;fillColor=none;strokeColor=#6c8ebf;fontColor=#000000;fontSize=20;fontFamily=Helvetica;verticalAlign=top;dashed=1;fontStyle=1;strokeWidth=3;" vertex="1" parent="1">
          <mxGeometry x="880" y="1200" width="600" height="1120" as="geometry" />
        </mxCell>
        <mxCell id="F7tQ2r_eFeR0tLp06QVQ-657" value="策略订单管理" style="rounded=1;whiteSpace=wrap;html=1;fillColor=none;strokeColor=#6c8ebf;fontColor=#000000;fontSize=20;fontFamily=Helvetica;verticalAlign=top;dashed=1;fontStyle=1;strokeWidth=3;" vertex="1" parent="1">
          <mxGeometry x="1560" y="1200" width="830" height="1120" as="geometry" />
        </mxCell>
        <mxCell id="F7tQ2r_eFeR0tLp06QVQ-658" value="回测订单管理" style="rounded=1;whiteSpace=wrap;html=1;fillColor=none;strokeColor=#6c8ebf;fontColor=#000000;fontSize=20;fontFamily=Helvetica;verticalAlign=top;dashed=1;fontStyle=1;strokeWidth=3;" vertex="1" parent="1">
          <mxGeometry x="-760" y="1200" width="1560" height="1120" as="geometry" />
        </mxCell>
        <mxCell id="F7tQ2r_eFeR0tLp06QVQ-325" value="" style="group" vertex="1" connectable="0" parent="1">
          <mxGeometry x="-1080" y="420" width="240" height="120" as="geometry" />
        </mxCell>
        <mxCell id="F7tQ2r_eFeR0tLp06QVQ-306" value="订单管理器" style="rounded=1;whiteSpace=wrap;html=1;fillColor=#dae8fc;strokeColor=#6c8ebf;fontColor=#000000;fontSize=14;fontFamily=Helvetica;verticalAlign=top;" vertex="1" parent="F7tQ2r_eFeR0tLp06QVQ-325">
          <mxGeometry width="240" height="120" as="geometry" />
        </mxCell>
        <mxCell id="F7tQ2r_eFeR0tLp06QVQ-307" value="买单列表" style="rounded=1;whiteSpace=wrap;html=1;fillColor=#dae8fc;strokeColor=#6c8ebf;fontSize=14;fontFamily=Helvetica;verticalAlign=middle;" vertex="1" parent="F7tQ2r_eFeR0tLp06QVQ-325">
          <mxGeometry x="30.5" y="50" width="80" height="40" as="geometry" />
        </mxCell>
        <mxCell id="F7tQ2r_eFeR0tLp06QVQ-316" value="卖单列表" style="rounded=1;whiteSpace=wrap;html=1;fillColor=#dae8fc;strokeColor=#6c8ebf;fontSize=14;fontFamily=Helvetica;verticalAlign=middle;" vertex="1" parent="F7tQ2r_eFeR0tLp06QVQ-325">
          <mxGeometry x="130.5" y="50" width="80" height="40" as="geometry" />
        </mxCell>
        <mxCell id="F7tQ2r_eFeR0tLp06QVQ-262" value="数据管理" style="rounded=1;whiteSpace=wrap;html=1;fillColor=#dae8fc;strokeColor=#6c8ebf;fontColor=#000000;fontSize=14;fontFamily=Helvetica;verticalAlign=top;" vertex="1" parent="1">
          <mxGeometry x="-1480" y="620" width="480" height="360" as="geometry" />
        </mxCell>
        <mxCell id="F7tQ2r_eFeR0tLp06QVQ-353" value="" style="group" vertex="1" connectable="0" parent="1">
          <mxGeometry x="-1280" y="660" width="260" height="310" as="geometry" />
        </mxCell>
        <mxCell id="F7tQ2r_eFeR0tLp06QVQ-265" value="交易对管理" style="rounded=1;whiteSpace=wrap;html=1;fillColor=#dae8fc;strokeColor=#6c8ebf;fontColor=#000000;fontSize=14;fontFamily=Helvetica;verticalAlign=top;dashed=1;" vertex="1" parent="F7tQ2r_eFeR0tLp06QVQ-353">
          <mxGeometry width="260" height="310" as="geometry" />
        </mxCell>
        <mxCell id="F7tQ2r_eFeR0tLp06QVQ-282" value="BTC/USDT" style="rounded=1;whiteSpace=wrap;html=1;fillColor=#dae8fc;strokeColor=#6c8ebf;fontColor=#000000;fontSize=14;fontFamily=Helvetica;verticalAlign=top;dashed=1;" vertex="1" parent="F7tQ2r_eFeR0tLp06QVQ-353">
          <mxGeometry x="20.120000000000005" y="120" width="220" height="80" as="geometry" />
        </mxCell>
        <mxCell id="F7tQ2r_eFeR0tLp06QVQ-283" value="k线数据" style="rounded=1;whiteSpace=wrap;html=1;fillColor=#dae8fc;strokeColor=#6c8ebf;fontColor=#000000;fontSize=14;fontFamily=Helvetica;" vertex="1" parent="F7tQ2r_eFeR0tLp06QVQ-353">
          <mxGeometry x="39.870000000000005" y="150" width="80" height="40" as="geometry" />
        </mxCell>
        <mxCell id="F7tQ2r_eFeR0tLp06QVQ-284" value="订单管理" style="rounded=1;whiteSpace=wrap;html=1;fillColor=#dae8fc;strokeColor=#6c8ebf;fontColor=#000000;fontSize=14;fontFamily=Helvetica;" vertex="1" parent="F7tQ2r_eFeR0tLp06QVQ-353">
          <mxGeometry x="139.87" y="150" width="80" height="40" as="geometry" />
        </mxCell>
        <mxCell id="F7tQ2r_eFeR0tLp06QVQ-267" value="U本位合约/USDT" style="rounded=1;whiteSpace=wrap;html=1;fillColor=#dae8fc;strokeColor=#6c8ebf;fontColor=#000000;fontSize=14;fontFamily=Helvetica;verticalAlign=top;dashed=1;" vertex="1" parent="F7tQ2r_eFeR0tLp06QVQ-353">
          <mxGeometry x="19.870000000000005" y="30" width="220" height="80" as="geometry" />
        </mxCell>
        <mxCell id="F7tQ2r_eFeR0tLp06QVQ-275" value="k线数据" style="rounded=1;whiteSpace=wrap;html=1;fillColor=#dae8fc;strokeColor=#6c8ebf;fontColor=#000000;fontSize=14;fontFamily=Helvetica;" vertex="1" parent="F7tQ2r_eFeR0tLp06QVQ-353">
          <mxGeometry x="39.870000000000005" y="60" width="80" height="40" as="geometry" />
        </mxCell>
        <mxCell id="F7tQ2r_eFeR0tLp06QVQ-276" value="订单管理" style="rounded=1;whiteSpace=wrap;html=1;fillColor=#dae8fc;strokeColor=#6c8ebf;fontColor=#000000;fontSize=14;fontFamily=Helvetica;" vertex="1" parent="F7tQ2r_eFeR0tLp06QVQ-353">
          <mxGeometry x="139.87" y="60" width="80" height="40" as="geometry" />
        </mxCell>
        <mxCell id="F7tQ2r_eFeR0tLp06QVQ-286" value="币本位合约/BTC" style="rounded=1;whiteSpace=wrap;html=1;fillColor=#dae8fc;strokeColor=#6c8ebf;fontColor=#000000;fontSize=14;fontFamily=Helvetica;verticalAlign=top;dashed=1;" vertex="1" parent="F7tQ2r_eFeR0tLp06QVQ-353">
          <mxGeometry x="20.370000000000005" y="210" width="219.5" height="80" as="geometry" />
        </mxCell>
        <mxCell id="F7tQ2r_eFeR0tLp06QVQ-287" value="k线数据" style="rounded=1;whiteSpace=wrap;html=1;fillColor=#dae8fc;strokeColor=#6c8ebf;fontColor=#000000;fontSize=14;fontFamily=Helvetica;" vertex="1" parent="F7tQ2r_eFeR0tLp06QVQ-353">
          <mxGeometry x="39.870000000000005" y="240" width="80" height="40" as="geometry" />
        </mxCell>
        <mxCell id="F7tQ2r_eFeR0tLp06QVQ-288" value="订单管理" style="rounded=1;whiteSpace=wrap;html=1;fillColor=#dae8fc;strokeColor=#6c8ebf;fontColor=#000000;fontSize=14;fontFamily=Helvetica;" vertex="1" parent="F7tQ2r_eFeR0tLp06QVQ-353">
          <mxGeometry x="139.87" y="240" width="80" height="40" as="geometry" />
        </mxCell>
        <mxCell id="F7tQ2r_eFeR0tLp06QVQ-350" value="" style="group" vertex="1" connectable="0" parent="1">
          <mxGeometry x="-666" y="80" width="210" height="240" as="geometry" />
        </mxCell>
        <mxCell id="Utv8JqaEtYpSMMh2lk40-6" value="策略模块" style="rounded=1;whiteSpace=wrap;html=1;fillColor=#dae8fc;strokeColor=#6c8ebf;fontColor=#000000;fontSize=16;fontFamily=Helvetica;verticalAlign=top;" parent="F7tQ2r_eFeR0tLp06QVQ-350" vertex="1">
          <mxGeometry width="210" height="240" as="geometry" />
        </mxCell>
        <mxCell id="F7tQ2r_eFeR0tLp06QVQ-114" value="挂单逻辑" style="rounded=1;whiteSpace=wrap;html=1;fillColor=#dae8fc;strokeColor=#6c8ebf;fontColor=#000000;fontSize=14;fontFamily=Helvetica;" vertex="1" parent="F7tQ2r_eFeR0tLp06QVQ-350">
          <mxGeometry x="20" y="180" width="80" height="40" as="geometry" />
        </mxCell>
        <mxCell id="F7tQ2r_eFeR0tLp06QVQ-244" value="状态" style="rounded=1;whiteSpace=wrap;html=1;fillColor=#dae8fc;strokeColor=#6c8ebf;fontColor=#000000;fontSize=16;fontFamily=Helvetica;verticalAlign=top;dashed=1;" vertex="1" parent="F7tQ2r_eFeR0tLp06QVQ-350">
          <mxGeometry x="45" y="40" width="120" height="130" as="geometry" />
        </mxCell>
        <mxCell id="F7tQ2r_eFeR0tLp06QVQ-92" value="订单管理" style="rounded=1;whiteSpace=wrap;html=1;fillColor=#dae8fc;strokeColor=#6c8ebf;fontColor=#000000;fontSize=14;fontFamily=Helvetica;" vertex="1" parent="F7tQ2r_eFeR0tLp06QVQ-350">
          <mxGeometry x="64" y="120" width="80" height="40" as="geometry" />
        </mxCell>
        <mxCell id="F7tQ2r_eFeR0tLp06QVQ-93" value="资产管理" style="rounded=1;whiteSpace=wrap;html=1;fillColor=#dae8fc;strokeColor=#6c8ebf;fontColor=#000000;fontSize=14;fontFamily=Helvetica;" vertex="1" parent="F7tQ2r_eFeR0tLp06QVQ-350">
          <mxGeometry x="65.5" y="70" width="80" height="40" as="geometry" />
        </mxCell>
        <mxCell id="F7tQ2r_eFeR0tLp06QVQ-309" value="策略日志" style="rounded=1;whiteSpace=wrap;html=1;fillColor=#dae8fc;strokeColor=#6c8ebf;fontColor=#000000;fontSize=14;fontFamily=Helvetica;" vertex="1" parent="F7tQ2r_eFeR0tLp06QVQ-350">
          <mxGeometry x="110" y="180" width="80" height="40" as="geometry" />
        </mxCell>
        <mxCell id="5A32NDXSBY3eCDd1gBDi-36" style="edgeStyle=orthogonalEdgeStyle;rounded=0;orthogonalLoop=1;jettySize=auto;html=1;" parent="1" source="Utv8JqaEtYpSMMh2lk40-6" target="F7tQ2r_eFeR0tLp06QVQ-1" edge="1">
          <mxGeometry relative="1" as="geometry" />
        </mxCell>
        <mxCell id="Utv8JqaEtYpSMMh2lk40-7" value="回测模块&lt;br&gt;（策略执行器）" style="rounded=1;whiteSpace=wrap;html=1;fillColor=#dae8fc;strokeColor=#6c8ebf;fontColor=#000000;fontSize=16;fontFamily=Helvetica;verticalAlign=top;dashed=1;" parent="1" vertex="1">
          <mxGeometry x="-801" y="700" width="480" height="280" as="geometry" />
        </mxCell>
        <mxCell id="F7tQ2r_eFeR0tLp06QVQ-72" style="rounded=0;orthogonalLoop=1;jettySize=auto;html=1;" edge="1" parent="1" source="Utv8JqaEtYpSMMh2lk40-25" target="Utv8JqaEtYpSMMh2lk40-7">
          <mxGeometry relative="1" as="geometry" />
        </mxCell>
        <mxCell id="gfCPOhcdJ8noWJPsk6_X-1" value="&lt;h1 style=&quot;margin-top: 0px;&quot;&gt;回测系统技术架构&lt;/h1&gt;&lt;p&gt;&amp;nbsp;- UI&lt;/p&gt;&lt;p&gt;&amp;nbsp; &amp;nbsp;- web端&lt;/p&gt;&lt;p&gt;&lt;br&gt;&lt;/p&gt;" style="text;html=1;whiteSpace=wrap;overflow=hidden;rounded=0;" parent="1" vertex="1">
          <mxGeometry x="600" y="40" width="410" height="580" as="geometry" />
        </mxCell>
        <mxCell id="F7tQ2r_eFeR0tLp06QVQ-80" style="edgeStyle=orthogonalEdgeStyle;rounded=0;orthogonalLoop=1;jettySize=auto;html=1;" edge="1" parent="1" source="F7tQ2r_eFeR0tLp06QVQ-1" target="F7tQ2r_eFeR0tLp06QVQ-71">
          <mxGeometry relative="1" as="geometry" />
        </mxCell>
        <mxCell id="F7tQ2r_eFeR0tLp06QVQ-109" style="edgeStyle=orthogonalEdgeStyle;rounded=0;orthogonalLoop=1;jettySize=auto;html=1;" edge="1" parent="1" source="F7tQ2r_eFeR0tLp06QVQ-1" target="Utv8JqaEtYpSMMh2lk40-7">
          <mxGeometry relative="1" as="geometry" />
        </mxCell>
        <mxCell id="F7tQ2r_eFeR0tLp06QVQ-78" style="edgeStyle=orthogonalEdgeStyle;rounded=0;orthogonalLoop=1;jettySize=auto;html=1;entryX=0.5;entryY=0;entryDx=0;entryDy=0;" edge="1" parent="1" source="F7tQ2r_eFeR0tLp06QVQ-71" target="F7tQ2r_eFeR0tLp06QVQ-77">
          <mxGeometry relative="1" as="geometry">
            <mxPoint x="174.3699999999999" y="650.0000000000002" as="targetPoint" />
          </mxGeometry>
        </mxCell>
        <mxCell id="F7tQ2r_eFeR0tLp06QVQ-71" value="实盘模块&lt;div&gt;（策略执行器）&lt;/div&gt;" style="rounded=1;whiteSpace=wrap;html=1;fillColor=#f8cecc;strokeColor=#b85450;fontSize=16;fontFamily=Helvetica;verticalAlign=middle;" vertex="1" parent="1">
          <mxGeometry x="-280.5000000000001" y="700" width="200" height="80" as="geometry" />
        </mxCell>
        <mxCell id="F7tQ2r_eFeR0tLp06QVQ-77" value="交易所" style="rounded=1;whiteSpace=wrap;html=1;fillColor=#f8cecc;strokeColor=#b85450;fontSize=16;fontFamily=Helvetica;verticalAlign=middle;" vertex="1" parent="1">
          <mxGeometry x="-280.0000000000001" y="820" width="200" height="80" as="geometry" />
        </mxCell>
        <mxCell id="F7tQ2r_eFeR0tLp06QVQ-85" value="行为" style="rounded=1;whiteSpace=wrap;html=1;fillColor=#dae8fc;strokeColor=#6c8ebf;fontColor=#000000;fontSize=14;fontFamily=Helvetica;verticalAlign=top;dashed=1;" vertex="1" parent="1">
          <mxGeometry x="-591" y="760" width="230" height="200" as="geometry" />
        </mxCell>
        <mxCell id="F7tQ2r_eFeR0tLp06QVQ-87" value="订单成交" style="rounded=1;whiteSpace=wrap;html=1;fillColor=#dae8fc;strokeColor=#6c8ebf;fontColor=#000000;fontSize=14;fontFamily=Helvetica;" vertex="1" parent="1">
          <mxGeometry x="-461" y="800" width="80" height="40" as="geometry" />
        </mxCell>
        <mxCell id="F7tQ2r_eFeR0tLp06QVQ-89" value="资金费率&lt;div&gt;结算&lt;/div&gt;" style="rounded=1;whiteSpace=wrap;html=1;fillColor=#dae8fc;strokeColor=#6c8ebf;fontColor=#000000;fontSize=14;fontFamily=Helvetica;" vertex="1" parent="1">
          <mxGeometry x="-461" y="850" width="80" height="40" as="geometry" />
        </mxCell>
        <mxCell id="F7tQ2r_eFeR0tLp06QVQ-90" value="手续费&lt;div&gt;结算&lt;/div&gt;" style="rounded=1;whiteSpace=wrap;html=1;fillColor=#dae8fc;strokeColor=#6c8ebf;fontColor=#000000;fontSize=14;fontFamily=Helvetica;" vertex="1" parent="1">
          <mxGeometry x="-570" y="850" width="80" height="40" as="geometry" />
        </mxCell>
        <mxCell id="F7tQ2r_eFeR0tLp06QVQ-91" value="&lt;div&gt;平仓清算&lt;/div&gt;" style="rounded=1;whiteSpace=wrap;html=1;fillColor=#f8cecc;strokeColor=#b85450;fontSize=14;fontFamily=Helvetica;" vertex="1" parent="1">
          <mxGeometry x="-461" y="900" width="80" height="40" as="geometry" />
        </mxCell>
        <mxCell id="F7tQ2r_eFeR0tLp06QVQ-95" value="数据管理" style="rounded=1;whiteSpace=wrap;html=1;fillColor=#dae8fc;strokeColor=#6c8ebf;fontColor=#000000;fontSize=14;fontFamily=Helvetica;" vertex="1" parent="1">
          <mxGeometry x="-760" y="760" width="120" height="80" as="geometry" />
        </mxCell>
        <mxCell id="F7tQ2r_eFeR0tLp06QVQ-131" value="k线数据同步" style="rounded=1;whiteSpace=wrap;html=1;fillColor=#dae8fc;strokeColor=#6c8ebf;fontColor=#000000;fontSize=14;fontFamily=Helvetica;" vertex="1" parent="1">
          <mxGeometry x="-570" y="800" width="80" height="40" as="geometry" />
        </mxCell>
        <mxCell id="F7tQ2r_eFeR0tLp06QVQ-375" style="rounded=0;orthogonalLoop=1;jettySize=auto;html=1;" edge="1" parent="1" source="F7tQ2r_eFeR0tLp06QVQ-155" target="F7tQ2r_eFeR0tLp06QVQ-1200">
          <mxGeometry relative="1" as="geometry">
            <mxPoint x="-147.07976653696505" y="2809" as="targetPoint" />
          </mxGeometry>
        </mxCell>
        <mxCell id="F7tQ2r_eFeR0tLp06QVQ-155" value="&lt;b style=&quot;font-size: 14px;&quot;&gt;TStrategy 策略接口&lt;/b&gt;" style="swimlane;fontStyle=1;align=center;verticalAlign=top;childLayout=stackLayout;horizontal=1;startSize=26;horizontalStack=0;resizeParent=1;resizeParentMax=0;resizeLast=0;collapsible=1;marginBottom=0;whiteSpace=wrap;html=1;fillColor=#d5e8d4;strokeColor=#82b366;" vertex="1" parent="1">
          <mxGeometry x="1840" y="2611" width="359.5" height="86" as="geometry" />
        </mxCell>
        <mxCell id="F7tQ2r_eFeR0tLp06QVQ-157" value="" style="line;strokeWidth=1;fillColor=none;align=left;verticalAlign=middle;spacingTop=-1;spacingLeft=3;spacingRight=3;rotatable=0;labelPosition=right;points=[];portConstraint=eastwest;strokeColor=inherit;" vertex="1" parent="F7tQ2r_eFeR0tLp06QVQ-155">
          <mxGeometry y="26" width="359.5" height="8" as="geometry" />
        </mxCell>
        <mxCell id="F7tQ2r_eFeR0tLp06QVQ-158" value="+ run(SRunnerParseResult): List&amp;lt;EStrategyAction&amp;gt;" style="text;strokeColor=none;fillColor=none;align=left;verticalAlign=top;spacingLeft=4;spacingRight=4;overflow=hidden;rotatable=0;points=[[0,0.5],[1,0.5]];portConstraint=eastwest;whiteSpace=wrap;html=1;" vertex="1" parent="F7tQ2r_eFeR0tLp06QVQ-155">
          <mxGeometry y="34" width="359.5" height="26" as="geometry" />
        </mxCell>
        <mxCell id="F7tQ2r_eFeR0tLp06QVQ-878" value="+ verify(List&amp;lt;ERunnerParseActionResult&amp;gt;)" style="text;strokeColor=none;fillColor=none;align=left;verticalAlign=top;spacingLeft=4;spacingRight=4;overflow=hidden;rotatable=0;points=[[0,0.5],[1,0.5]];portConstraint=eastwest;whiteSpace=wrap;html=1;" vertex="1" parent="F7tQ2r_eFeR0tLp06QVQ-155">
          <mxGeometry y="60" width="359.5" height="26" as="geometry" />
        </mxCell>
        <mxCell id="F7tQ2r_eFeR0tLp06QVQ-163" style="rounded=0;orthogonalLoop=1;jettySize=auto;html=1;entryX=0.5;entryY=0;entryDx=0;entryDy=0;" edge="1" parent="1" source="F7tQ2r_eFeR0tLp06QVQ-159" target="F7tQ2r_eFeR0tLp06QVQ-155">
          <mxGeometry relative="1" as="geometry" />
        </mxCell>
        <mxCell id="F7tQ2r_eFeR0tLp06QVQ-159" value="&lt;b style=&quot;font-size: 14px;&quot;&gt;SStrategyMk1 策略Mk1&lt;/b&gt;" style="swimlane;fontStyle=1;align=center;verticalAlign=top;childLayout=stackLayout;horizontal=1;startSize=26;horizontalStack=0;resizeParent=1;resizeParentMax=0;resizeLast=0;collapsible=1;marginBottom=0;whiteSpace=wrap;html=1;fillColor=#fff2cc;strokeColor=#d6b656;" vertex="1" parent="1">
          <mxGeometry x="1840" y="2410" width="359.5" height="124" as="geometry" />
        </mxCell>
        <mxCell id="F7tQ2r_eFeR0tLp06QVQ-660" value="+ assert_manager: SAssertMabager - 资产管理器" style="text;strokeColor=none;fillColor=none;align=left;verticalAlign=top;spacingLeft=4;spacingRight=4;overflow=hidden;rotatable=0;points=[[0,0.5],[1,0.5]];portConstraint=eastwest;whiteSpace=wrap;html=1;" vertex="1" parent="F7tQ2r_eFeR0tLp06QVQ-159">
          <mxGeometry y="26" width="359.5" height="26" as="geometry" />
        </mxCell>
        <mxCell id="F7tQ2r_eFeR0tLp06QVQ-663" value="+ trading_pair_manager: SStrategyTradingPairManager - 交易对管理器" style="text;strokeColor=none;fillColor=none;align=left;verticalAlign=top;spacingLeft=4;spacingRight=4;overflow=hidden;rotatable=0;points=[[0,0.5],[1,0.5]];portConstraint=eastwest;whiteSpace=wrap;html=1;" vertex="1" parent="F7tQ2r_eFeR0tLp06QVQ-159">
          <mxGeometry y="52" width="359.5" height="38" as="geometry" />
        </mxCell>
        <mxCell id="F7tQ2r_eFeR0tLp06QVQ-161" value="" style="line;strokeWidth=1;fillColor=none;align=left;verticalAlign=middle;spacingTop=-1;spacingLeft=3;spacingRight=3;rotatable=0;labelPosition=right;points=[];portConstraint=eastwest;strokeColor=inherit;" vertex="1" parent="F7tQ2r_eFeR0tLp06QVQ-159">
          <mxGeometry y="90" width="359.5" height="8" as="geometry" />
        </mxCell>
        <mxCell id="F7tQ2r_eFeR0tLp06QVQ-162" value="+ todo() - 挂单逻辑" style="text;strokeColor=none;fillColor=none;align=left;verticalAlign=top;spacingLeft=4;spacingRight=4;overflow=hidden;rotatable=0;points=[[0,0.5],[1,0.5]];portConstraint=eastwest;whiteSpace=wrap;html=1;" vertex="1" parent="F7tQ2r_eFeR0tLp06QVQ-159">
          <mxGeometry y="98" width="359.5" height="26" as="geometry" />
        </mxCell>
        <mxCell id="F7tQ2r_eFeR0tLp06QVQ-376" style="rounded=0;orthogonalLoop=1;jettySize=auto;html=1;" edge="1" parent="1" source="F7tQ2r_eFeR0tLp06QVQ-165" target="F7tQ2r_eFeR0tLp06QVQ-1166">
          <mxGeometry relative="1" as="geometry">
            <mxPoint x="789.5" y="3190.352622814321" as="targetPoint" />
          </mxGeometry>
        </mxCell>
        <mxCell id="F7tQ2r_eFeR0tLp06QVQ-165" value="&lt;b style=&quot;font-size: 14px;&quot;&gt;Config 配置&lt;/b&gt;" style="swimlane;fontStyle=1;align=center;verticalAlign=top;childLayout=stackLayout;horizontal=1;startSize=26;horizontalStack=0;resizeParent=1;resizeParentMax=0;resizeLast=0;collapsible=1;marginBottom=0;whiteSpace=wrap;html=1;fillColor=#d5e8d4;strokeColor=#82b366;" vertex="1" parent="1">
          <mxGeometry x="-30" y="3077" width="320" height="178" as="geometry" />
        </mxCell>
        <mxCell id="F7tQ2r_eFeR0tLp06QVQ-175" value="+&amp;nbsp;&lt;span style=&quot;text-wrap: nowrap;&quot;&gt;TAKER_ORDER_FEE:&amp;nbsp;&lt;/span&gt;Decimal&lt;span style=&quot;text-wrap: nowrap;&quot;&gt;&amp;nbsp;- 吃单手续费&lt;/span&gt;" style="text;strokeColor=none;fillColor=none;align=left;verticalAlign=top;spacingLeft=4;spacingRight=4;overflow=hidden;rotatable=0;points=[[0,0.5],[1,0.5]];portConstraint=eastwest;whiteSpace=wrap;html=1;" vertex="1" parent="F7tQ2r_eFeR0tLp06QVQ-165">
          <mxGeometry y="26" width="320" height="24" as="geometry" />
        </mxCell>
        <mxCell id="F7tQ2r_eFeR0tLp06QVQ-166" value="&lt;div&gt;&lt;span style=&quot;text-wrap: nowrap;&quot;&gt;+ MAKER_ORDER_FEE:&amp;nbsp;&lt;/span&gt;&lt;span style=&quot;background-color: initial;&quot;&gt;Decimal&lt;/span&gt;&lt;span style=&quot;text-wrap: nowrap; background-color: initial;&quot;&gt;&amp;nbsp;- 挂单手续费&lt;/span&gt;&lt;/div&gt;" style="text;strokeColor=none;fillColor=none;align=left;verticalAlign=top;spacingLeft=4;spacingRight=4;overflow=hidden;rotatable=0;points=[[0,0.5],[1,0.5]];portConstraint=eastwest;whiteSpace=wrap;html=1;" vertex="1" parent="F7tQ2r_eFeR0tLp06QVQ-165">
          <mxGeometry y="50" width="320" height="24" as="geometry" />
        </mxCell>
        <mxCell id="F7tQ2r_eFeR0tLp06QVQ-672" value="&lt;div&gt;&lt;span style=&quot;text-wrap: nowrap;&quot;&gt;+ INIT_BALANCE_USDT:&amp;nbsp;&lt;/span&gt;&lt;span style=&quot;background-color: initial;&quot;&gt;Decimal&lt;/span&gt;&lt;span style=&quot;text-wrap: nowrap; background-color: initial;&quot;&gt;&amp;nbsp;- 初始资金量（USDT）&lt;/span&gt;&lt;/div&gt;" style="text;strokeColor=none;fillColor=none;align=left;verticalAlign=top;spacingLeft=4;spacingRight=4;overflow=hidden;rotatable=0;points=[[0,0.5],[1,0.5]];portConstraint=eastwest;whiteSpace=wrap;html=1;" vertex="1" parent="F7tQ2r_eFeR0tLp06QVQ-165">
          <mxGeometry y="74" width="320" height="24" as="geometry" />
        </mxCell>
        <mxCell id="F7tQ2r_eFeR0tLp06QVQ-825" value="&lt;div&gt;&lt;span style=&quot;text-wrap: nowrap;&quot;&gt;+ INIT_BALANCE_BTC:&amp;nbsp;&lt;/span&gt;&lt;span style=&quot;background-color: initial;&quot;&gt;Decimal&lt;/span&gt;&lt;span style=&quot;text-wrap: nowrap; background-color: initial;&quot;&gt;&amp;nbsp;- 初始资金量（BTC）&lt;/span&gt;&lt;/div&gt;" style="text;strokeColor=none;fillColor=none;align=left;verticalAlign=top;spacingLeft=4;spacingRight=4;overflow=hidden;rotatable=0;points=[[0,0.5],[1,0.5]];portConstraint=eastwest;whiteSpace=wrap;html=1;" vertex="1" parent="F7tQ2r_eFeR0tLp06QVQ-165">
          <mxGeometry y="98" width="320" height="24" as="geometry" />
        </mxCell>
        <mxCell id="F7tQ2r_eFeR0tLp06QVQ-822" value="&lt;div&gt;&lt;span style=&quot;text-wrap: nowrap;&quot;&gt;+ DATE_FROM: &lt;/span&gt;Date&lt;span style=&quot;text-wrap: nowrap; background-color: initial;&quot;&gt;&amp;nbsp;- 回测起始日期&lt;/span&gt;&lt;/div&gt;" style="text;strokeColor=none;fillColor=none;align=left;verticalAlign=top;spacingLeft=4;spacingRight=4;overflow=hidden;rotatable=0;points=[[0,0.5],[1,0.5]];portConstraint=eastwest;whiteSpace=wrap;html=1;" vertex="1" parent="F7tQ2r_eFeR0tLp06QVQ-165">
          <mxGeometry y="122" width="320" height="24" as="geometry" />
        </mxCell>
        <mxCell id="F7tQ2r_eFeR0tLp06QVQ-823" value="&lt;div&gt;&lt;span style=&quot;text-wrap: nowrap;&quot;&gt;+ DATE_TO: &lt;/span&gt;Date&lt;span style=&quot;text-wrap: nowrap; background-color: initial;&quot;&gt;&amp;nbsp;- 回测结束日期&lt;/span&gt;&lt;/div&gt;" style="text;strokeColor=none;fillColor=none;align=left;verticalAlign=top;spacingLeft=4;spacingRight=4;overflow=hidden;rotatable=0;points=[[0,0.5],[1,0.5]];portConstraint=eastwest;whiteSpace=wrap;html=1;" vertex="1" parent="F7tQ2r_eFeR0tLp06QVQ-165">
          <mxGeometry y="146" width="320" height="24" as="geometry" />
        </mxCell>
        <mxCell id="F7tQ2r_eFeR0tLp06QVQ-167" value="" style="line;strokeWidth=1;fillColor=none;align=left;verticalAlign=middle;spacingTop=-1;spacingLeft=3;spacingRight=3;rotatable=0;labelPosition=right;points=[];portConstraint=eastwest;strokeColor=inherit;" vertex="1" parent="F7tQ2r_eFeR0tLp06QVQ-165">
          <mxGeometry y="170" width="320" height="8" as="geometry" />
        </mxCell>
        <mxCell id="F7tQ2r_eFeR0tLp06QVQ-207" style="rounded=0;orthogonalLoop=1;jettySize=auto;html=1;" edge="1" parent="1" source="F7tQ2r_eFeR0tLp06QVQ-176" target="F7tQ2r_eFeR0tLp06QVQ-201">
          <mxGeometry relative="1" as="geometry" />
        </mxCell>
        <mxCell id="F7tQ2r_eFeR0tLp06QVQ-176" value="&lt;b style=&quot;font-size: 14px;&quot;&gt;E&lt;/b&gt;&lt;b style=&quot;font-size: 14px;&quot;&gt;Strategy&lt;/b&gt;&lt;b style=&quot;font-size: 14px;&quot;&gt;OrderState 策略订单状态&lt;/b&gt;" style="swimlane;fontStyle=1;align=center;verticalAlign=top;childLayout=stackLayout;horizontal=1;startSize=26;horizontalStack=0;resizeParent=1;resizeParentMax=0;resizeLast=0;collapsible=1;marginBottom=0;whiteSpace=wrap;html=1;fillColor=#dae8fc;strokeColor=#6c8ebf;" vertex="1" parent="1">
          <mxGeometry x="2001" y="1280" width="360" height="190" as="geometry" />
        </mxCell>
        <mxCell id="F7tQ2r_eFeR0tLp06QVQ-177" value="+ Opening - 已挂开单" style="text;strokeColor=none;fillColor=none;align=left;verticalAlign=top;spacingLeft=4;spacingRight=4;overflow=hidden;rotatable=0;points=[[0,0.5],[1,0.5]];portConstraint=eastwest;whiteSpace=wrap;html=1;" vertex="1" parent="F7tQ2r_eFeR0tLp06QVQ-176">
          <mxGeometry y="26" width="360" height="26" as="geometry" />
        </mxCell>
        <mxCell id="F7tQ2r_eFeR0tLp06QVQ-180" value="+ Opened - 已开仓 待平仓" style="text;strokeColor=none;fillColor=none;align=left;verticalAlign=top;spacingLeft=4;spacingRight=4;overflow=hidden;rotatable=0;points=[[0,0.5],[1,0.5]];portConstraint=eastwest;whiteSpace=wrap;html=1;" vertex="1" parent="F7tQ2r_eFeR0tLp06QVQ-176">
          <mxGeometry y="52" width="360" height="26" as="geometry" />
        </mxCell>
        <mxCell id="F7tQ2r_eFeR0tLp06QVQ-181" value="+ Closing - 已挂平单" style="text;strokeColor=none;fillColor=none;align=left;verticalAlign=top;spacingLeft=4;spacingRight=4;overflow=hidden;rotatable=0;points=[[0,0.5],[1,0.5]];portConstraint=eastwest;whiteSpace=wrap;html=1;" vertex="1" parent="F7tQ2r_eFeR0tLp06QVQ-176">
          <mxGeometry y="78" width="360" height="26" as="geometry" />
        </mxCell>
        <mxCell id="F7tQ2r_eFeR0tLp06QVQ-182" value="+ Closed - 已平仓" style="text;strokeColor=none;fillColor=none;align=left;verticalAlign=top;spacingLeft=4;spacingRight=4;overflow=hidden;rotatable=0;points=[[0,0.5],[1,0.5]];portConstraint=eastwest;whiteSpace=wrap;html=1;" vertex="1" parent="F7tQ2r_eFeR0tLp06QVQ-176">
          <mxGeometry y="104" width="360" height="26" as="geometry" />
        </mxCell>
        <mxCell id="F7tQ2r_eFeR0tLp06QVQ-183" value="+ Canceled - 已取消" style="text;strokeColor=none;fillColor=none;align=left;verticalAlign=top;spacingLeft=4;spacingRight=4;overflow=hidden;rotatable=0;points=[[0,0.5],[1,0.5]];portConstraint=eastwest;whiteSpace=wrap;html=1;" vertex="1" parent="F7tQ2r_eFeR0tLp06QVQ-176">
          <mxGeometry y="130" width="360" height="26" as="geometry" />
        </mxCell>
        <mxCell id="F7tQ2r_eFeR0tLp06QVQ-184" value="+ Unknow - 未知" style="text;strokeColor=none;fillColor=none;align=left;verticalAlign=top;spacingLeft=4;spacingRight=4;overflow=hidden;rotatable=0;points=[[0,0.5],[1,0.5]];portConstraint=eastwest;whiteSpace=wrap;html=1;" vertex="1" parent="F7tQ2r_eFeR0tLp06QVQ-176">
          <mxGeometry y="156" width="360" height="26" as="geometry" />
        </mxCell>
        <mxCell id="F7tQ2r_eFeR0tLp06QVQ-178" value="" style="line;strokeWidth=1;fillColor=none;align=left;verticalAlign=middle;spacingTop=-1;spacingLeft=3;spacingRight=3;rotatable=0;labelPosition=right;points=[];portConstraint=eastwest;strokeColor=inherit;" vertex="1" parent="F7tQ2r_eFeR0tLp06QVQ-176">
          <mxGeometry y="182" width="360" height="8" as="geometry" />
        </mxCell>
        <mxCell id="F7tQ2r_eFeR0tLp06QVQ-937" style="rounded=0;orthogonalLoop=1;jettySize=auto;html=1;" edge="1" parent="1" source="F7tQ2r_eFeR0tLp06QVQ-197" target="F7tQ2r_eFeR0tLp06QVQ-918">
          <mxGeometry relative="1" as="geometry" />
        </mxCell>
        <mxCell id="F7tQ2r_eFeR0tLp06QVQ-519" style="rounded=0;orthogonalLoop=1;jettySize=auto;html=1;dashed=1;" edge="1" parent="1" target="F7tQ2r_eFeR0tLp06QVQ-446">
          <mxGeometry relative="1" as="geometry">
            <mxPoint x="392.25" y="2037.6338057523967" as="targetPoint" />
          </mxGeometry>
        </mxCell>
        <mxCell id="F7tQ2r_eFeR0tLp06QVQ-197" value="&lt;b style=&quot;font-size: 14px;&quot;&gt;SOrder 订单&lt;/b&gt;" style="swimlane;fontStyle=1;align=center;verticalAlign=top;childLayout=stackLayout;horizontal=1;startSize=26;horizontalStack=0;resizeParent=1;resizeParentMax=0;resizeLast=0;collapsible=1;marginBottom=0;whiteSpace=wrap;html=1;fillColor=#d5e8d4;strokeColor=#82b366;" vertex="1" parent="1">
          <mxGeometry x="-160" y="1280" width="360" height="418" as="geometry" />
        </mxCell>
        <mxCell id="F7tQ2r_eFeR0tLp06QVQ-198" value="+ id:UUID" style="text;strokeColor=none;fillColor=none;align=left;verticalAlign=top;spacingLeft=4;spacingRight=4;overflow=hidden;rotatable=0;points=[[0,0.5],[1,0.5]];portConstraint=eastwest;whiteSpace=wrap;html=1;" vertex="1" parent="F7tQ2r_eFeR0tLp06QVQ-197">
          <mxGeometry y="26" width="360" height="26" as="geometry" />
        </mxCell>
        <mxCell id="F7tQ2r_eFeR0tLp06QVQ-260" value="+ state:EOrderState - 订单状态" style="text;strokeColor=none;fillColor=none;align=left;verticalAlign=top;spacingLeft=4;spacingRight=4;overflow=hidden;rotatable=0;points=[[0,0.5],[1,0.5]];portConstraint=eastwest;whiteSpace=wrap;html=1;" vertex="1" parent="F7tQ2r_eFeR0tLp06QVQ-197">
          <mxGeometry y="52" width="360" height="26" as="geometry" />
        </mxCell>
        <mxCell id="F7tQ2r_eFeR0tLp06QVQ-686" value="+ action:EOrderAction - 订单操作" style="text;strokeColor=none;fillColor=none;align=left;verticalAlign=top;spacingLeft=4;spacingRight=4;overflow=hidden;rotatable=0;points=[[0,0.5],[1,0.5]];portConstraint=eastwest;whiteSpace=wrap;html=1;" vertex="1" parent="F7tQ2r_eFeR0tLp06QVQ-197">
          <mxGeometry y="78" width="360" height="26" as="geometry" />
        </mxCell>
        <mxCell id="F7tQ2r_eFeR0tLp06QVQ-536" value="+ price:Decimal&amp;nbsp;- 挂单价格（汇率 计价资产/基础资产）" style="text;strokeColor=none;fillColor=none;align=left;verticalAlign=top;spacingLeft=4;spacingRight=4;overflow=hidden;rotatable=0;points=[[0,0.5],[1,0.5]];portConstraint=eastwest;whiteSpace=wrap;html=1;" vertex="1" parent="F7tQ2r_eFeR0tLp06QVQ-197">
          <mxGeometry y="104" width="360" height="26" as="geometry" />
        </mxCell>
        <mxCell id="F7tQ2r_eFeR0tLp06QVQ-537" value="+ quantity:Decimal&amp;nbsp;- 挂单量（基础资产）" style="text;strokeColor=none;fillColor=none;align=left;verticalAlign=top;spacingLeft=4;spacingRight=4;overflow=hidden;rotatable=0;points=[[0,0.5],[1,0.5]];portConstraint=eastwest;whiteSpace=wrap;html=1;" vertex="1" parent="F7tQ2r_eFeR0tLp06QVQ-197">
          <mxGeometry y="130" width="360" height="26" as="geometry" />
        </mxCell>
        <mxCell id="F7tQ2r_eFeR0tLp06QVQ-900" value="+ amount:Decimal&amp;nbsp;- 挂单金额（计价资产）" style="text;strokeColor=none;fillColor=none;align=left;verticalAlign=top;spacingLeft=4;spacingRight=4;overflow=hidden;rotatable=0;points=[[0,0.5],[1,0.5]];portConstraint=eastwest;whiteSpace=wrap;html=1;fontStyle=0;labelBorderColor=none;fontColor=default;" vertex="1" parent="F7tQ2r_eFeR0tLp06QVQ-197">
          <mxGeometry y="156" width="360" height="26" as="geometry" />
        </mxCell>
        <mxCell id="F7tQ2r_eFeR0tLp06QVQ-901" value="+ locked_asset:Option&amp;lt;SAssetV2&amp;gt; - 资产对象（表示锁定的资产 买单锁定计价资产 卖单锁定基础资产）" style="text;strokeColor=none;fillColor=none;align=left;verticalAlign=top;spacingLeft=4;spacingRight=4;overflow=hidden;rotatable=0;points=[[0,0.5],[1,0.5]];portConstraint=eastwest;whiteSpace=wrap;html=1;fontStyle=0;labelBorderColor=none;fontColor=#000000;" vertex="1" parent="F7tQ2r_eFeR0tLp06QVQ-197">
          <mxGeometry y="182" width="360" height="38" as="geometry" />
        </mxCell>
        <mxCell id="F7tQ2r_eFeR0tLp06QVQ-199" value="" style="line;strokeWidth=1;fillColor=none;align=left;verticalAlign=middle;spacingTop=-1;spacingLeft=3;spacingRight=3;rotatable=0;labelPosition=right;points=[];portConstraint=eastwest;strokeColor=inherit;" vertex="1" parent="F7tQ2r_eFeR0tLp06QVQ-197">
          <mxGeometry y="220" width="360" height="8" as="geometry" />
        </mxCell>
        <mxCell id="F7tQ2r_eFeR0tLp06QVQ-200" value="+ new(price, quantity, action): Self" style="text;strokeColor=none;fillColor=none;align=left;verticalAlign=top;spacingLeft=4;spacingRight=4;overflow=hidden;rotatable=0;points=[[0,0.5],[1,0.5]];portConstraint=eastwest;whiteSpace=wrap;html=1;" vertex="1" parent="F7tQ2r_eFeR0tLp06QVQ-197">
          <mxGeometry y="228" width="360" height="26" as="geometry" />
        </mxCell>
        <mxCell id="F7tQ2r_eFeR0tLp06QVQ-688" value="+ new_buy_order(price, quantity): Self" style="text;strokeColor=none;fillColor=none;align=left;verticalAlign=top;spacingLeft=4;spacingRight=4;overflow=hidden;rotatable=0;points=[[0,0.5],[1,0.5]];portConstraint=eastwest;whiteSpace=wrap;html=1;" vertex="1" parent="F7tQ2r_eFeR0tLp06QVQ-197">
          <mxGeometry y="254" width="360" height="26" as="geometry" />
        </mxCell>
        <mxCell id="F7tQ2r_eFeR0tLp06QVQ-689" value="+ new_sell_order(price, quantity): Self" style="text;strokeColor=none;fillColor=none;align=left;verticalAlign=top;spacingLeft=4;spacingRight=4;overflow=hidden;rotatable=0;points=[[0,0.5],[1,0.5]];portConstraint=eastwest;whiteSpace=wrap;html=1;" vertex="1" parent="F7tQ2r_eFeR0tLp06QVQ-197">
          <mxGeometry y="280" width="360" height="26" as="geometry" />
        </mxCell>
        <mxCell id="F7tQ2r_eFeR0tLp06QVQ-690" value="+ update(&amp;amp;mut self, EOrderUpdate) - 更新订单状态" style="text;strokeColor=none;fillColor=none;align=left;verticalAlign=top;spacingLeft=4;spacingRight=4;overflow=hidden;rotatable=0;points=[[0,0.5],[1,0.5]];portConstraint=eastwest;whiteSpace=wrap;html=1;" vertex="1" parent="F7tQ2r_eFeR0tLp06QVQ-197">
          <mxGeometry y="306" width="360" height="28" as="geometry" />
        </mxCell>
        <mxCell id="F7tQ2r_eFeR0tLp06QVQ-907" value="+ submit(&amp;amp;mut self, SAssetV2): Result&amp;lt;()&amp;gt; - 订单提交" style="text;strokeColor=none;fillColor=none;align=left;verticalAlign=top;spacingLeft=4;spacingRight=4;overflow=hidden;rotatable=0;points=[[0,0.5],[1,0.5]];portConstraint=eastwest;whiteSpace=wrap;html=1;" vertex="1" parent="F7tQ2r_eFeR0tLp06QVQ-197">
          <mxGeometry y="334" width="360" height="28" as="geometry" />
        </mxCell>
        <mxCell id="F7tQ2r_eFeR0tLp06QVQ-909" value="+ execute(&amp;amp;mut self): Result&amp;lt;SAssetV2&amp;gt; - 订单成交" style="text;strokeColor=none;fillColor=none;align=left;verticalAlign=top;spacingLeft=4;spacingRight=4;overflow=hidden;rotatable=0;points=[[0,0.5],[1,0.5]];portConstraint=eastwest;whiteSpace=wrap;html=1;" vertex="1" parent="F7tQ2r_eFeR0tLp06QVQ-197">
          <mxGeometry y="362" width="360" height="28" as="geometry" />
        </mxCell>
        <mxCell id="F7tQ2r_eFeR0tLp06QVQ-910" value="+ cancel(&amp;amp;mut self): Result&amp;lt;Option&amp;lt;SAssetV2&amp;gt; - 订单取消" style="text;strokeColor=none;fillColor=none;align=left;verticalAlign=top;spacingLeft=4;spacingRight=4;overflow=hidden;rotatable=0;points=[[0,0.5],[1,0.5]];portConstraint=eastwest;whiteSpace=wrap;html=1;" vertex="1" parent="F7tQ2r_eFeR0tLp06QVQ-197">
          <mxGeometry y="390" width="360" height="28" as="geometry" />
        </mxCell>
        <mxCell id="F7tQ2r_eFeR0tLp06QVQ-629" style="rounded=0;orthogonalLoop=1;jettySize=auto;html=1;" edge="1" parent="1" source="F7tQ2r_eFeR0tLp06QVQ-201" target="F7tQ2r_eFeR0tLp06QVQ-573">
          <mxGeometry relative="1" as="geometry" />
        </mxCell>
        <mxCell id="F7tQ2r_eFeR0tLp06QVQ-201" value="&lt;b style=&quot;font-size: 14px;&quot;&gt;SStrategyOrder 策略订单-关联开单和平单&lt;/b&gt;" style="swimlane;fontStyle=1;align=center;verticalAlign=top;childLayout=stackLayout;horizontal=1;startSize=26;horizontalStack=0;resizeParent=1;resizeParentMax=0;resizeLast=0;collapsible=1;marginBottom=0;whiteSpace=wrap;html=1;fillColor=#dae8fc;strokeColor=#6c8ebf;" vertex="1" parent="1">
          <mxGeometry x="1600" y="1360" width="359" height="242" as="geometry" />
        </mxCell>
        <mxCell id="F7tQ2r_eFeR0tLp06QVQ-202" value="+ id: UUID" style="text;strokeColor=none;fillColor=none;align=left;verticalAlign=top;spacingLeft=4;spacingRight=4;overflow=hidden;rotatable=0;points=[[0,0.5],[1,0.5]];portConstraint=eastwest;whiteSpace=wrap;html=1;" vertex="1" parent="F7tQ2r_eFeR0tLp06QVQ-201">
          <mxGeometry y="26" width="359" height="26" as="geometry" />
        </mxCell>
        <mxCell id="F7tQ2r_eFeR0tLp06QVQ-599" value="+ open_order_id: UUID&amp;nbsp;- 开单id" style="text;strokeColor=none;fillColor=none;align=left;verticalAlign=top;spacingLeft=4;spacingRight=4;overflow=hidden;rotatable=0;points=[[0,0.5],[1,0.5]];portConstraint=eastwest;whiteSpace=wrap;html=1;" vertex="1" parent="F7tQ2r_eFeR0tLp06QVQ-201">
          <mxGeometry y="52" width="359" height="26" as="geometry" />
        </mxCell>
        <mxCell id="F7tQ2r_eFeR0tLp06QVQ-600" value="+ close_order_id: Option&amp;lt;UUID&amp;gt; - 平单id" style="text;strokeColor=none;fillColor=none;align=left;verticalAlign=top;spacingLeft=4;spacingRight=4;overflow=hidden;rotatable=0;points=[[0,0.5],[1,0.5]];portConstraint=eastwest;whiteSpace=wrap;html=1;" vertex="1" parent="F7tQ2r_eFeR0tLp06QVQ-201">
          <mxGeometry y="78" width="359" height="26" as="geometry" />
        </mxCell>
        <mxCell id="F7tQ2r_eFeR0tLp06QVQ-588" value="+ state:EStrategyOrderState - 订单状态" style="text;strokeColor=none;fillColor=none;align=left;verticalAlign=top;spacingLeft=4;spacingRight=4;overflow=hidden;rotatable=0;points=[[0,0.5],[1,0.5]];portConstraint=eastwest;whiteSpace=wrap;html=1;" vertex="1" parent="F7tQ2r_eFeR0tLp06QVQ-201">
          <mxGeometry y="104" width="359" height="26" as="geometry" />
        </mxCell>
        <mxCell id="F7tQ2r_eFeR0tLp06QVQ-598" value="+ direction:EOrderDirection - 订单方向" style="text;strokeColor=none;fillColor=none;align=left;verticalAlign=top;spacingLeft=4;spacingRight=4;overflow=hidden;rotatable=0;points=[[0,0.5],[1,0.5]];portConstraint=eastwest;whiteSpace=wrap;html=1;" vertex="1" parent="F7tQ2r_eFeR0tLp06QVQ-201">
          <mxGeometry y="130" width="359" height="26" as="geometry" />
        </mxCell>
        <mxCell id="F7tQ2r_eFeR0tLp06QVQ-589" value="+ price:Decimal&amp;nbsp;- 挂单价格" style="text;strokeColor=none;fillColor=none;align=left;verticalAlign=top;spacingLeft=4;spacingRight=4;overflow=hidden;rotatable=0;points=[[0,0.5],[1,0.5]];portConstraint=eastwest;whiteSpace=wrap;html=1;" vertex="1" parent="F7tQ2r_eFeR0tLp06QVQ-201">
          <mxGeometry y="156" width="359" height="26" as="geometry" />
        </mxCell>
        <mxCell id="F7tQ2r_eFeR0tLp06QVQ-590" value="+ quantity:Decimal&amp;nbsp;- 挂单量" style="text;strokeColor=none;fillColor=none;align=left;verticalAlign=top;spacingLeft=4;spacingRight=4;overflow=hidden;rotatable=0;points=[[0,0.5],[1,0.5]];portConstraint=eastwest;whiteSpace=wrap;html=1;" vertex="1" parent="F7tQ2r_eFeR0tLp06QVQ-201">
          <mxGeometry y="182" width="359" height="26" as="geometry" />
        </mxCell>
        <mxCell id="F7tQ2r_eFeR0tLp06QVQ-203" value="" style="line;strokeWidth=1;fillColor=none;align=left;verticalAlign=middle;spacingTop=-1;spacingLeft=3;spacingRight=3;rotatable=0;labelPosition=right;points=[];portConstraint=eastwest;strokeColor=inherit;" vertex="1" parent="F7tQ2r_eFeR0tLp06QVQ-201">
          <mxGeometry y="208" width="359" height="8" as="geometry" />
        </mxCell>
        <mxCell id="F7tQ2r_eFeR0tLp06QVQ-592" value="+ init(price, quantity): Self" style="text;strokeColor=none;fillColor=none;align=left;verticalAlign=top;spacingLeft=4;spacingRight=4;overflow=hidden;rotatable=0;points=[[0,0.5],[1,0.5]];portConstraint=eastwest;whiteSpace=wrap;html=1;" vertex="1" parent="F7tQ2r_eFeR0tLp06QVQ-201">
          <mxGeometry y="216" width="359" height="26" as="geometry" />
        </mxCell>
        <mxCell id="F7tQ2r_eFeR0tLp06QVQ-218" style="rounded=0;orthogonalLoop=1;jettySize=auto;html=1;jumpStyle=arc;" edge="1" parent="1" source="F7tQ2r_eFeR0tLp06QVQ-208" target="F7tQ2r_eFeR0tLp06QVQ-197">
          <mxGeometry relative="1" as="geometry" />
        </mxCell>
        <mxCell id="F7tQ2r_eFeR0tLp06QVQ-208" value="&lt;b style=&quot;font-size: 14px;&quot;&gt;EOrderState 订单状态&lt;/b&gt;" style="swimlane;fontStyle=1;align=center;verticalAlign=top;childLayout=stackLayout;horizontal=1;startSize=26;horizontalStack=0;resizeParent=1;resizeParentMax=0;resizeLast=0;collapsible=1;marginBottom=0;whiteSpace=wrap;html=1;fillColor=#d5e8d4;strokeColor=#82b366;" vertex="1" parent="1">
          <mxGeometry x="-560" y="1280" width="361" height="164" as="geometry" />
        </mxCell>
        <mxCell id="F7tQ2r_eFeR0tLp06QVQ-908" value="+ Pending - 待提交（未绑定asset对象/未锁定资产）" style="text;strokeColor=none;fillColor=none;align=left;verticalAlign=top;spacingLeft=4;spacingRight=4;overflow=hidden;rotatable=0;points=[[0,0.5],[1,0.5]];portConstraint=eastwest;whiteSpace=wrap;html=1;" vertex="1" parent="F7tQ2r_eFeR0tLp06QVQ-208">
          <mxGeometry y="26" width="361" height="26" as="geometry" />
        </mxCell>
        <mxCell id="F7tQ2r_eFeR0tLp06QVQ-209" value="+ Unfulfilled - 已提交 未成交" style="text;strokeColor=none;fillColor=none;align=left;verticalAlign=top;spacingLeft=4;spacingRight=4;overflow=hidden;rotatable=0;points=[[0,0.5],[1,0.5]];portConstraint=eastwest;whiteSpace=wrap;html=1;" vertex="1" parent="F7tQ2r_eFeR0tLp06QVQ-208">
          <mxGeometry y="52" width="361" height="26" as="geometry" />
        </mxCell>
        <mxCell id="F7tQ2r_eFeR0tLp06QVQ-210" value="+ Executed - 已成交（锁定资产完全置换 并释放）" style="text;strokeColor=none;fillColor=none;align=left;verticalAlign=top;spacingLeft=4;spacingRight=4;overflow=hidden;rotatable=0;points=[[0,0.5],[1,0.5]];portConstraint=eastwest;whiteSpace=wrap;html=1;" vertex="1" parent="F7tQ2r_eFeR0tLp06QVQ-208">
          <mxGeometry y="78" width="361" height="26" as="geometry" />
        </mxCell>
        <mxCell id="F7tQ2r_eFeR0tLp06QVQ-216" value="+ Canceled - 已取消（释放锁定资产）" style="text;strokeColor=none;fillColor=none;align=left;verticalAlign=top;spacingLeft=4;spacingRight=4;overflow=hidden;rotatable=0;points=[[0,0.5],[1,0.5]];portConstraint=eastwest;whiteSpace=wrap;html=1;" vertex="1" parent="F7tQ2r_eFeR0tLp06QVQ-208">
          <mxGeometry y="104" width="361" height="26" as="geometry" />
        </mxCell>
        <mxCell id="F7tQ2r_eFeR0tLp06QVQ-217" value="+ Unknown - 未知（部分成交 锁定资产部分置换）" style="text;strokeColor=none;fillColor=none;align=left;verticalAlign=top;spacingLeft=4;spacingRight=4;overflow=hidden;rotatable=0;points=[[0,0.5],[1,0.5]];portConstraint=eastwest;whiteSpace=wrap;html=1;" vertex="1" parent="F7tQ2r_eFeR0tLp06QVQ-208">
          <mxGeometry y="130" width="361" height="26" as="geometry" />
        </mxCell>
        <mxCell id="F7tQ2r_eFeR0tLp06QVQ-215" value="" style="line;strokeWidth=1;fillColor=none;align=left;verticalAlign=middle;spacingTop=-1;spacingLeft=3;spacingRight=3;rotatable=0;labelPosition=right;points=[];portConstraint=eastwest;strokeColor=inherit;" vertex="1" parent="F7tQ2r_eFeR0tLp06QVQ-208">
          <mxGeometry y="156" width="361" height="8" as="geometry" />
        </mxCell>
        <mxCell id="F7tQ2r_eFeR0tLp06QVQ-416" style="rounded=0;orthogonalLoop=1;jettySize=auto;html=1;" edge="1" parent="1" source="F7tQ2r_eFeR0tLp06QVQ-229" target="F7tQ2r_eFeR0tLp06QVQ-398">
          <mxGeometry relative="1" as="geometry" />
        </mxCell>
        <mxCell id="F7tQ2r_eFeR0tLp06QVQ-229" value="&lt;b style=&quot;font-size: 14px;&quot;&gt;SDataApiCsv K线数据接口-csv&lt;/b&gt;" style="swimlane;fontStyle=1;align=center;verticalAlign=top;childLayout=stackLayout;horizontal=1;startSize=26;horizontalStack=0;resizeParent=1;resizeParentMax=0;resizeLast=0;collapsible=1;marginBottom=0;whiteSpace=wrap;html=1;fillColor=#dae8fc;strokeColor=#6c8ebf;" vertex="1" parent="1">
          <mxGeometry x="-2400" y="2010" width="320" height="128" as="geometry" />
        </mxCell>
        <mxCell id="F7tQ2r_eFeR0tLp06QVQ-230" value="+ file_path: String" style="text;strokeColor=none;fillColor=none;align=left;verticalAlign=top;spacingLeft=4;spacingRight=4;overflow=hidden;rotatable=0;points=[[0,0.5],[1,0.5]];portConstraint=eastwest;whiteSpace=wrap;html=1;" vertex="1" parent="F7tQ2r_eFeR0tLp06QVQ-229">
          <mxGeometry y="26" width="320" height="26" as="geometry" />
        </mxCell>
        <mxCell id="F7tQ2r_eFeR0tLp06QVQ-237" value="" style="line;strokeWidth=1;fillColor=none;align=left;verticalAlign=middle;spacingTop=-1;spacingLeft=3;spacingRight=3;rotatable=0;labelPosition=right;points=[];portConstraint=eastwest;strokeColor=inherit;" vertex="1" parent="F7tQ2r_eFeR0tLp06QVQ-229">
          <mxGeometry y="52" width="320" height="8" as="geometry" />
        </mxCell>
        <mxCell id="F7tQ2r_eFeR0tLp06QVQ-811" value="+ get_kline(from:Date , to:Date): SKlineData&amp;nbsp;" style="text;strokeColor=none;fillColor=none;align=left;verticalAlign=top;spacingLeft=4;spacingRight=4;overflow=hidden;rotatable=0;points=[[0,0.5],[1,0.5]];portConstraint=eastwest;whiteSpace=wrap;html=1;" vertex="1" parent="F7tQ2r_eFeR0tLp06QVQ-229">
          <mxGeometry y="60" width="320" height="26" as="geometry" />
        </mxCell>
        <mxCell id="F7tQ2r_eFeR0tLp06QVQ-813" value="+ get_funding_rate(from:Date , to:Date): SFundingRateData" style="text;strokeColor=none;fillColor=none;align=left;verticalAlign=top;spacingLeft=4;spacingRight=4;overflow=hidden;rotatable=0;points=[[0,0.5],[1,0.5]];portConstraint=eastwest;whiteSpace=wrap;html=1;" vertex="1" parent="F7tQ2r_eFeR0tLp06QVQ-229">
          <mxGeometry y="86" width="320" height="42" as="geometry" />
        </mxCell>
        <mxCell id="F7tQ2r_eFeR0tLp06QVQ-417" style="rounded=0;orthogonalLoop=1;jettySize=auto;html=1;" edge="1" parent="1" source="F7tQ2r_eFeR0tLp06QVQ-238" target="F7tQ2r_eFeR0tLp06QVQ-398">
          <mxGeometry relative="1" as="geometry" />
        </mxCell>
        <mxCell id="F7tQ2r_eFeR0tLp06QVQ-238" value="&lt;b style=&quot;font-size: 14px;&quot;&gt;SDataApiDb K线数据接口-数据库&lt;/b&gt;" style="swimlane;fontStyle=1;align=center;verticalAlign=top;childLayout=stackLayout;horizontal=1;startSize=26;horizontalStack=0;resizeParent=1;resizeParentMax=0;resizeLast=0;collapsible=1;marginBottom=0;whiteSpace=wrap;html=1;fillColor=#d5e8d4;strokeColor=#82b366;" vertex="1" parent="1">
          <mxGeometry x="-2080" y="1800" width="320" height="130" as="geometry" />
        </mxCell>
        <mxCell id="F7tQ2r_eFeR0tLp06QVQ-239" value="+ db: TDb" style="text;strokeColor=none;fillColor=none;align=left;verticalAlign=top;spacingLeft=4;spacingRight=4;overflow=hidden;rotatable=0;points=[[0,0.5],[1,0.5]];portConstraint=eastwest;whiteSpace=wrap;html=1;" vertex="1" parent="F7tQ2r_eFeR0tLp06QVQ-238">
          <mxGeometry y="26" width="320" height="26" as="geometry" />
        </mxCell>
        <mxCell id="F7tQ2r_eFeR0tLp06QVQ-240" value="" style="line;strokeWidth=1;fillColor=none;align=left;verticalAlign=middle;spacingTop=-1;spacingLeft=3;spacingRight=3;rotatable=0;labelPosition=right;points=[];portConstraint=eastwest;strokeColor=inherit;" vertex="1" parent="F7tQ2r_eFeR0tLp06QVQ-238">
          <mxGeometry y="52" width="320" height="8" as="geometry" />
        </mxCell>
        <mxCell id="F7tQ2r_eFeR0tLp06QVQ-812" value="+ get_kline(from:Date , to:Date): SKlineData&amp;nbsp;" style="text;strokeColor=none;fillColor=none;align=left;verticalAlign=top;spacingLeft=4;spacingRight=4;overflow=hidden;rotatable=0;points=[[0,0.5],[1,0.5]];portConstraint=eastwest;whiteSpace=wrap;html=1;" vertex="1" parent="F7tQ2r_eFeR0tLp06QVQ-238">
          <mxGeometry y="60" width="320" height="26" as="geometry" />
        </mxCell>
        <mxCell id="F7tQ2r_eFeR0tLp06QVQ-814" value="+ get_funding_rate(from:Date , to:Date): SFundingRateData" style="text;strokeColor=none;fillColor=none;align=left;verticalAlign=top;spacingLeft=4;spacingRight=4;overflow=hidden;rotatable=0;points=[[0,0.5],[1,0.5]];portConstraint=eastwest;whiteSpace=wrap;html=1;" vertex="1" parent="F7tQ2r_eFeR0tLp06QVQ-238">
          <mxGeometry y="86" width="320" height="44" as="geometry" />
        </mxCell>
        <mxCell id="F7tQ2r_eFeR0tLp06QVQ-291" style="edgeStyle=orthogonalEdgeStyle;rounded=0;orthogonalLoop=1;jettySize=auto;html=1;jumpStyle=arc;" edge="1" parent="1" source="F7tQ2r_eFeR0tLp06QVQ-262" target="F7tQ2r_eFeR0tLp06QVQ-95">
          <mxGeometry relative="1" as="geometry" />
        </mxCell>
        <mxCell id="F7tQ2r_eFeR0tLp06QVQ-303" value="资产管理" style="rounded=1;whiteSpace=wrap;html=1;fillColor=#dae8fc;strokeColor=#6c8ebf;fontSize=14;fontFamily=Helvetica;verticalAlign=middle;" vertex="1" parent="1">
          <mxGeometry x="-1460" y="780" width="160" height="80" as="geometry" />
        </mxCell>
        <mxCell id="F7tQ2r_eFeR0tLp06QVQ-304" style="edgeStyle=orthogonalEdgeStyle;rounded=0;orthogonalLoop=1;jettySize=auto;html=1;" edge="1" parent="1" source="F7tQ2r_eFeR0tLp06QVQ-269" target="F7tQ2r_eFeR0tLp06QVQ-93">
          <mxGeometry relative="1" as="geometry">
            <Array as="points">
              <mxPoint x="-1380" y="80" />
              <mxPoint x="-730" y="80" />
              <mxPoint x="-730" y="170" />
            </Array>
          </mxGeometry>
        </mxCell>
        <mxCell id="F7tQ2r_eFeR0tLp06QVQ-305" style="edgeStyle=orthogonalEdgeStyle;rounded=0;orthogonalLoop=1;jettySize=auto;html=1;" edge="1" parent="1" source="F7tQ2r_eFeR0tLp06QVQ-269" target="F7tQ2r_eFeR0tLp06QVQ-303">
          <mxGeometry relative="1" as="geometry" />
        </mxCell>
        <mxCell id="F7tQ2r_eFeR0tLp06QVQ-308" value="行为日志" style="rounded=1;whiteSpace=wrap;html=1;fillColor=#dae8fc;strokeColor=#6c8ebf;fontColor=#000000;fontSize=14;fontFamily=Helvetica;" vertex="1" parent="1">
          <mxGeometry x="-570" y="900" width="80" height="40" as="geometry" />
        </mxCell>
        <mxCell id="F7tQ2r_eFeR0tLp06QVQ-317" value="" style="group" vertex="1" connectable="0" parent="1">
          <mxGeometry x="-1600" y="140" width="440" height="200" as="geometry" />
        </mxCell>
        <mxCell id="F7tQ2r_eFeR0tLp06QVQ-269" value="资产管理" style="rounded=1;whiteSpace=wrap;html=1;fillColor=#dae8fc;strokeColor=#6c8ebf;fontSize=14;fontFamily=Helvetica;verticalAlign=top;" vertex="1" parent="F7tQ2r_eFeR0tLp06QVQ-317">
          <mxGeometry width="440" height="200" as="geometry" />
        </mxCell>
        <mxCell id="F7tQ2r_eFeR0tLp06QVQ-293" value="资产类型" style="rounded=1;whiteSpace=wrap;html=1;fillColor=#dae8fc;strokeColor=#6c8ebf;fontColor=#000000;fontSize=14;fontFamily=Helvetica;verticalAlign=top;dashed=1;" vertex="1" parent="F7tQ2r_eFeR0tLp06QVQ-317">
          <mxGeometry x="19.5" y="40" width="210" height="140" as="geometry" />
        </mxCell>
        <mxCell id="F7tQ2r_eFeR0tLp06QVQ-270" value="U本位合约" style="rounded=1;whiteSpace=wrap;html=1;fillColor=#dae8fc;strokeColor=#6c8ebf;fontColor=#000000;fontSize=14;fontFamily=Helvetica;" vertex="1" parent="F7tQ2r_eFeR0tLp06QVQ-317">
          <mxGeometry x="29.5" y="70" width="80" height="40" as="geometry" />
        </mxCell>
        <mxCell id="F7tQ2r_eFeR0tLp06QVQ-271" value="USDT" style="rounded=1;whiteSpace=wrap;html=1;fillColor=#dae8fc;strokeColor=#6c8ebf;fontColor=#000000;fontSize=14;fontFamily=Helvetica;" vertex="1" parent="F7tQ2r_eFeR0tLp06QVQ-317">
          <mxGeometry x="140" y="70" width="80" height="40" as="geometry" />
        </mxCell>
        <mxCell id="F7tQ2r_eFeR0tLp06QVQ-273" value="BTC" style="rounded=1;whiteSpace=wrap;html=1;fillColor=#dae8fc;strokeColor=#6c8ebf;fontColor=#000000;fontSize=14;fontFamily=Helvetica;" vertex="1" parent="F7tQ2r_eFeR0tLp06QVQ-317">
          <mxGeometry x="29.5" y="120" width="80" height="40" as="geometry" />
        </mxCell>
        <mxCell id="F7tQ2r_eFeR0tLp06QVQ-274" value="币本位合约" style="rounded=1;whiteSpace=wrap;html=1;fillColor=#dae8fc;strokeColor=#6c8ebf;fontColor=#000000;fontSize=14;fontFamily=Helvetica;" vertex="1" parent="F7tQ2r_eFeR0tLp06QVQ-317">
          <mxGeometry x="140" y="120" width="80" height="40" as="geometry" />
        </mxCell>
        <mxCell id="F7tQ2r_eFeR0tLp06QVQ-297" value="资产分割" style="rounded=1;whiteSpace=wrap;html=1;fillColor=#dae8fc;strokeColor=#6c8ebf;fontColor=#000000;fontSize=14;fontFamily=Helvetica;verticalAlign=top;dashed=1;" vertex="1" parent="F7tQ2r_eFeR0tLp06QVQ-317">
          <mxGeometry x="249.5" y="40" width="170" height="140" as="geometry" />
        </mxCell>
        <mxCell id="F7tQ2r_eFeR0tLp06QVQ-298" value="可用资产" style="rounded=1;whiteSpace=wrap;html=1;fillColor=#dae8fc;strokeColor=#6c8ebf;fontColor=#000000;fontSize=14;fontFamily=Helvetica;" vertex="1" parent="F7tQ2r_eFeR0tLp06QVQ-317">
          <mxGeometry x="294.5" y="70" width="80" height="40" as="geometry" />
        </mxCell>
        <mxCell id="F7tQ2r_eFeR0tLp06QVQ-299" value="锁定资产" style="rounded=1;whiteSpace=wrap;html=1;fillColor=#dae8fc;strokeColor=#6c8ebf;fontColor=#000000;fontSize=14;fontFamily=Helvetica;" vertex="1" parent="F7tQ2r_eFeR0tLp06QVQ-317">
          <mxGeometry x="294.5" y="120" width="80" height="40" as="geometry" />
        </mxCell>
        <mxCell id="F7tQ2r_eFeR0tLp06QVQ-324" value="" style="group" vertex="1" connectable="0" parent="1">
          <mxGeometry x="-940" y="560" width="200" height="120" as="geometry" />
        </mxCell>
        <mxCell id="Utv8JqaEtYpSMMh2lk40-25" value="数据接口" style="rounded=1;whiteSpace=wrap;html=1;fillColor=#dae8fc;strokeColor=#6c8ebf;fontColor=#000000;fontSize=14;fontFamily=Helvetica;movable=1;resizable=1;rotatable=1;deletable=1;editable=1;locked=0;connectable=1;verticalAlign=top;" parent="F7tQ2r_eFeR0tLp06QVQ-324" vertex="1">
          <mxGeometry width="200" height="120" as="geometry" />
        </mxCell>
        <mxCell id="F7tQ2r_eFeR0tLp06QVQ-322" value="CSV" style="rounded=1;whiteSpace=wrap;html=1;fillColor=#dae8fc;strokeColor=#6c8ebf;fontColor=#000000;fontSize=14;fontFamily=Helvetica;" vertex="1" parent="F7tQ2r_eFeR0tLp06QVQ-324">
          <mxGeometry x="11" y="40" width="80" height="40" as="geometry" />
        </mxCell>
        <mxCell id="F7tQ2r_eFeR0tLp06QVQ-323" value="DB" style="rounded=1;whiteSpace=wrap;html=1;fillColor=#dae8fc;strokeColor=#6c8ebf;fontColor=#000000;fontSize=14;fontFamily=Helvetica;" vertex="1" parent="F7tQ2r_eFeR0tLp06QVQ-324">
          <mxGeometry x="110" y="40" width="80" height="40" as="geometry" />
        </mxCell>
        <mxCell id="F7tQ2r_eFeR0tLp06QVQ-327" style="edgeStyle=orthogonalEdgeStyle;rounded=0;orthogonalLoop=1;jettySize=auto;html=1;entryX=1;entryY=0.5;entryDx=0;entryDy=0;jumpStyle=arc;" edge="1" parent="1" source="F7tQ2r_eFeR0tLp06QVQ-306" target="F7tQ2r_eFeR0tLp06QVQ-276">
          <mxGeometry relative="1" as="geometry" />
        </mxCell>
        <mxCell id="F7tQ2r_eFeR0tLp06QVQ-328" style="edgeStyle=orthogonalEdgeStyle;rounded=0;orthogonalLoop=1;jettySize=auto;html=1;entryX=1;entryY=0.5;entryDx=0;entryDy=0;jumpStyle=arc;" edge="1" parent="1" source="F7tQ2r_eFeR0tLp06QVQ-306" target="F7tQ2r_eFeR0tLp06QVQ-284">
          <mxGeometry relative="1" as="geometry" />
        </mxCell>
        <mxCell id="F7tQ2r_eFeR0tLp06QVQ-329" style="edgeStyle=orthogonalEdgeStyle;rounded=0;orthogonalLoop=1;jettySize=auto;html=1;entryX=1;entryY=0.5;entryDx=0;entryDy=0;jumpStyle=arc;" edge="1" parent="1" source="F7tQ2r_eFeR0tLp06QVQ-306" target="F7tQ2r_eFeR0tLp06QVQ-288">
          <mxGeometry relative="1" as="geometry" />
        </mxCell>
        <mxCell id="F7tQ2r_eFeR0tLp06QVQ-347" style="edgeStyle=orthogonalEdgeStyle;rounded=0;orthogonalLoop=1;jettySize=auto;html=1;entryX=0;entryY=0.5;entryDx=0;entryDy=0;" edge="1" parent="1" source="F7tQ2r_eFeR0tLp06QVQ-331" target="F7tQ2r_eFeR0tLp06QVQ-92">
          <mxGeometry relative="1" as="geometry" />
        </mxCell>
        <mxCell id="F7tQ2r_eFeR0tLp06QVQ-351" value="" style="group" vertex="1" connectable="0" parent="1">
          <mxGeometry x="-721" y="380" width="320" height="240" as="geometry" />
        </mxCell>
        <mxCell id="F7tQ2r_eFeR0tLp06QVQ-1" value="策略接口" style="rounded=1;whiteSpace=wrap;html=1;fillColor=#dae8fc;strokeColor=#6c8ebf;fontColor=#000000;fontSize=16;fontFamily=Helvetica;verticalAlign=top;" vertex="1" parent="F7tQ2r_eFeR0tLp06QVQ-351">
          <mxGeometry width="320" height="240" as="geometry" />
        </mxCell>
        <mxCell id="F7tQ2r_eFeR0tLp06QVQ-101" value="状态同步" style="rounded=1;whiteSpace=wrap;html=1;fillColor=#dae8fc;strokeColor=#6c8ebf;fontColor=#000000;fontSize=16;fontFamily=Helvetica;verticalAlign=top;dashed=1;" vertex="1" parent="F7tQ2r_eFeR0tLp06QVQ-351">
          <mxGeometry x="10" y="40" width="300" height="80" as="geometry" />
        </mxCell>
        <mxCell id="F7tQ2r_eFeR0tLp06QVQ-94" value="k线更新" style="rounded=1;whiteSpace=wrap;html=1;fillColor=#dae8fc;strokeColor=#6c8ebf;fontColor=#000000;fontSize=14;fontFamily=Helvetica;" vertex="1" parent="F7tQ2r_eFeR0tLp06QVQ-351">
          <mxGeometry x="26" y="70" width="80" height="40" as="geometry" />
        </mxCell>
        <mxCell id="F7tQ2r_eFeR0tLp06QVQ-99" value="订单同步" style="rounded=1;whiteSpace=wrap;html=1;fillColor=#dae8fc;strokeColor=#6c8ebf;fontColor=#000000;fontSize=14;fontFamily=Helvetica;" vertex="1" parent="F7tQ2r_eFeR0tLp06QVQ-351">
          <mxGeometry x="120" y="70" width="80" height="40" as="geometry" />
        </mxCell>
        <mxCell id="F7tQ2r_eFeR0tLp06QVQ-100" value="资产同步" style="rounded=1;whiteSpace=wrap;html=1;fillColor=#dae8fc;strokeColor=#6c8ebf;fontColor=#000000;fontSize=14;fontFamily=Helvetica;" vertex="1" parent="F7tQ2r_eFeR0tLp06QVQ-351">
          <mxGeometry x="210" y="70" width="80" height="40" as="geometry" />
        </mxCell>
        <mxCell id="F7tQ2r_eFeR0tLp06QVQ-102" value="挂单策略" style="rounded=1;whiteSpace=wrap;html=1;fillColor=#dae8fc;strokeColor=#6c8ebf;fontColor=#000000;fontSize=16;fontFamily=Helvetica;verticalAlign=top;dashed=1;" vertex="1" parent="F7tQ2r_eFeR0tLp06QVQ-351">
          <mxGeometry x="10" y="140" width="300" height="80" as="geometry" />
        </mxCell>
        <mxCell id="F7tQ2r_eFeR0tLp06QVQ-110" value="挂单" style="rounded=1;whiteSpace=wrap;html=1;fillColor=#dae8fc;strokeColor=#6c8ebf;fontColor=#000000;fontSize=14;fontFamily=Helvetica;" vertex="1" parent="F7tQ2r_eFeR0tLp06QVQ-351">
          <mxGeometry x="26" y="170" width="80" height="40" as="geometry" />
        </mxCell>
        <mxCell id="F7tQ2r_eFeR0tLp06QVQ-111" value="撤单" style="rounded=1;whiteSpace=wrap;html=1;fillColor=#dae8fc;strokeColor=#6c8ebf;fontColor=#000000;fontSize=14;fontFamily=Helvetica;" vertex="1" parent="F7tQ2r_eFeR0tLp06QVQ-351">
          <mxGeometry x="120" y="170" width="80" height="40" as="geometry" />
        </mxCell>
        <mxCell id="F7tQ2r_eFeR0tLp06QVQ-112" value="修改订单" style="rounded=1;whiteSpace=wrap;html=1;fillColor=#dae8fc;strokeColor=#6c8ebf;fontColor=#000000;fontSize=14;fontFamily=Helvetica;" vertex="1" parent="F7tQ2r_eFeR0tLp06QVQ-351">
          <mxGeometry x="210" y="170" width="80" height="40" as="geometry" />
        </mxCell>
        <mxCell id="F7tQ2r_eFeR0tLp06QVQ-331" value="策略订单管理器&lt;div&gt;&lt;br&gt;&lt;/div&gt;" style="rounded=1;whiteSpace=wrap;html=1;fillColor=#dae8fc;strokeColor=#6c8ebf;fontColor=#000000;fontSize=14;fontFamily=Helvetica;verticalAlign=top;" vertex="1" parent="1">
          <mxGeometry x="-1040" y="139.17000000000002" width="160" height="240.83" as="geometry" />
        </mxCell>
        <mxCell id="F7tQ2r_eFeR0tLp06QVQ-334" value="内部订单管理" style="rounded=1;whiteSpace=wrap;html=1;fillColor=#dae8fc;strokeColor=#6c8ebf;fontColor=#000000;fontSize=14;fontFamily=Helvetica;verticalAlign=middle;" vertex="1" parent="1">
          <mxGeometry x="-1010" y="250" width="100" height="54.17" as="geometry" />
        </mxCell>
        <mxCell id="F7tQ2r_eFeR0tLp06QVQ-335" value="外部订单管理" style="rounded=1;whiteSpace=wrap;html=1;fillColor=#dae8fc;strokeColor=#6c8ebf;fontColor=#000000;fontSize=14;fontFamily=Helvetica;verticalAlign=middle;" vertex="1" parent="1">
          <mxGeometry x="-1010" y="180" width="100" height="55.83" as="geometry" />
        </mxCell>
        <mxCell id="F7tQ2r_eFeR0tLp06QVQ-345" style="edgeStyle=orthogonalEdgeStyle;rounded=0;orthogonalLoop=1;jettySize=auto;html=1;exitX=0.5;exitY=1;exitDx=0;exitDy=0;" edge="1" parent="1" source="F7tQ2r_eFeR0tLp06QVQ-334" target="F7tQ2r_eFeR0tLp06QVQ-334">
          <mxGeometry relative="1" as="geometry" />
        </mxCell>
        <mxCell id="F7tQ2r_eFeR0tLp06QVQ-348" value="订单同步" style="rounded=1;whiteSpace=wrap;html=1;fillColor=#dae8fc;strokeColor=#6c8ebf;fontSize=14;fontFamily=Helvetica;verticalAlign=middle;" vertex="1" parent="1">
          <mxGeometry x="-1000" y="320" width="80" height="40" as="geometry" />
        </mxCell>
        <mxCell id="F7tQ2r_eFeR0tLp06QVQ-357" style="edgeStyle=orthogonalEdgeStyle;rounded=0;orthogonalLoop=1;jettySize=auto;html=1;entryX=0;entryY=0.5;entryDx=0;entryDy=0;" edge="1" parent="1" source="F7tQ2r_eFeR0tLp06QVQ-306" target="F7tQ2r_eFeR0tLp06QVQ-334">
          <mxGeometry relative="1" as="geometry">
            <Array as="points">
              <mxPoint x="-1100" y="480" />
              <mxPoint x="-1100" y="277" />
            </Array>
          </mxGeometry>
        </mxCell>
        <mxCell id="F7tQ2r_eFeR0tLp06QVQ-358" style="edgeStyle=orthogonalEdgeStyle;rounded=0;orthogonalLoop=1;jettySize=auto;html=1;entryX=0;entryY=0.5;entryDx=0;entryDy=0;" edge="1" parent="1" source="F7tQ2r_eFeR0tLp06QVQ-306" target="F7tQ2r_eFeR0tLp06QVQ-335">
          <mxGeometry relative="1" as="geometry">
            <Array as="points">
              <mxPoint x="-1100" y="480" />
              <mxPoint x="-1100" y="208" />
            </Array>
          </mxGeometry>
        </mxCell>
        <mxCell id="F7tQ2r_eFeR0tLp06QVQ-419" style="rounded=0;orthogonalLoop=1;jettySize=auto;html=1;dashed=1;jumpStyle=arc;" edge="1" parent="1" target="F7tQ2r_eFeR0tLp06QVQ-159">
          <mxGeometry relative="1" as="geometry" />
        </mxCell>
        <mxCell id="F7tQ2r_eFeR0tLp06QVQ-434" style="rounded=0;orthogonalLoop=1;jettySize=auto;html=1;dashed=1;jumpStyle=arc;" edge="1" parent="1" target="F7tQ2r_eFeR0tLp06QVQ-509">
          <mxGeometry relative="1" as="geometry">
            <mxPoint x="419.5" y="2399" as="targetPoint" />
          </mxGeometry>
        </mxCell>
        <mxCell id="F7tQ2r_eFeR0tLp06QVQ-1191" style="rounded=0;orthogonalLoop=1;jettySize=auto;html=1;" edge="1" parent="1" source="F7tQ2r_eFeR0tLp06QVQ-398" target="F7tQ2r_eFeR0tLp06QVQ-1184">
          <mxGeometry relative="1" as="geometry" />
        </mxCell>
        <mxCell id="F7tQ2r_eFeR0tLp06QVQ-398" value="&lt;b style=&quot;font-size: 14px;&quot;&gt;TDataApi 数据接口&lt;/b&gt;" style="swimlane;fontStyle=1;align=center;verticalAlign=top;childLayout=stackLayout;horizontal=1;startSize=26;horizontalStack=0;resizeParent=1;resizeParentMax=0;resizeLast=0;collapsible=1;marginBottom=0;whiteSpace=wrap;html=1;fillColor=#d5e8d4;strokeColor=#82b366;" vertex="1" parent="1">
          <mxGeometry x="-1959.75" y="2000" width="359.75" height="100" as="geometry" />
        </mxCell>
        <mxCell id="F7tQ2r_eFeR0tLp06QVQ-400" value="" style="line;strokeWidth=1;fillColor=none;align=left;verticalAlign=middle;spacingTop=-1;spacingLeft=3;spacingRight=3;rotatable=0;labelPosition=right;points=[];portConstraint=eastwest;strokeColor=inherit;" vertex="1" parent="F7tQ2r_eFeR0tLp06QVQ-398">
          <mxGeometry y="26" width="359.75" height="8" as="geometry" />
        </mxCell>
        <mxCell id="F7tQ2r_eFeR0tLp06QVQ-808" value="+ get_kline(from:Date , to:Date): SKlineData&amp;nbsp;" style="text;strokeColor=none;fillColor=none;align=left;verticalAlign=top;spacingLeft=4;spacingRight=4;overflow=hidden;rotatable=0;points=[[0,0.5],[1,0.5]];portConstraint=eastwest;whiteSpace=wrap;html=1;" vertex="1" parent="F7tQ2r_eFeR0tLp06QVQ-398">
          <mxGeometry y="34" width="359.75" height="26" as="geometry" />
        </mxCell>
        <mxCell id="F7tQ2r_eFeR0tLp06QVQ-810" value="+ get_funding_rate(from:Date , to:Date): SFundingRateData&amp;nbsp;" style="text;strokeColor=none;fillColor=none;align=left;verticalAlign=top;spacingLeft=4;spacingRight=4;overflow=hidden;rotatable=0;points=[[0,0.5],[1,0.5]];portConstraint=eastwest;whiteSpace=wrap;html=1;" vertex="1" parent="F7tQ2r_eFeR0tLp06QVQ-398">
          <mxGeometry y="60" width="359.75" height="40" as="geometry" />
        </mxCell>
        <mxCell id="F7tQ2r_eFeR0tLp06QVQ-435" value="&lt;b style=&quot;font-size: 14px;&quot;&gt;STradingPairMap 交易对管理器&lt;/b&gt;" style="swimlane;fontStyle=1;align=center;verticalAlign=top;childLayout=stackLayout;horizontal=1;startSize=26;horizontalStack=0;resizeParent=1;resizeParentMax=0;resizeLast=0;collapsible=1;marginBottom=0;whiteSpace=wrap;html=1;fillColor=#d5e8d4;strokeColor=#82b366;" vertex="1" parent="1">
          <mxGeometry x="-1240" y="1278" width="361" height="267" as="geometry" />
        </mxCell>
        <mxCell id="F7tQ2r_eFeR0tLp06QVQ-1139" value="&amp;nbsp;- 描述：交易对类型-交易对 映射" style="text;strokeColor=none;fillColor=none;align=left;verticalAlign=top;spacingLeft=4;spacingRight=4;overflow=hidden;rotatable=0;points=[[0,0.5],[1,0.5]];portConstraint=eastwest;whiteSpace=wrap;html=1;" vertex="1" parent="F7tQ2r_eFeR0tLp06QVQ-435">
          <mxGeometry y="26" width="361" height="26" as="geometry" />
        </mxCell>
        <mxCell id="F7tQ2r_eFeR0tLp06QVQ-436" value="+ trading_pair_map: HashMap&amp;lt;ETradingPairType, STradingPair&amp;gt; - 交易对" style="text;strokeColor=none;fillColor=none;align=left;verticalAlign=top;spacingLeft=4;spacingRight=4;overflow=hidden;rotatable=0;points=[[0,0.5],[1,0.5]];portConstraint=eastwest;whiteSpace=wrap;html=1;" vertex="1" parent="F7tQ2r_eFeR0tLp06QVQ-435">
          <mxGeometry y="52" width="361" height="34" as="geometry" />
        </mxCell>
        <mxCell id="F7tQ2r_eFeR0tLp06QVQ-437" value="" style="line;strokeWidth=1;fillColor=none;align=left;verticalAlign=middle;spacingTop=-1;spacingLeft=3;spacingRight=3;rotatable=0;labelPosition=right;points=[];portConstraint=eastwest;strokeColor=inherit;" vertex="1" parent="F7tQ2r_eFeR0tLp06QVQ-435">
          <mxGeometry y="86" width="361" height="8" as="geometry" />
        </mxCell>
        <mxCell id="F7tQ2r_eFeR0tLp06QVQ-438" value="+ new(): Self" style="text;strokeColor=none;fillColor=none;align=left;verticalAlign=top;spacingLeft=4;spacingRight=4;overflow=hidden;rotatable=0;points=[[0,0.5],[1,0.5]];portConstraint=eastwest;whiteSpace=wrap;html=1;" vertex="1" parent="F7tQ2r_eFeR0tLp06QVQ-435">
          <mxGeometry y="94" width="361" height="26" as="geometry" />
        </mxCell>
        <mxCell id="F7tQ2r_eFeR0tLp06QVQ-753" value="+ add_trading_pair(ETradingPairType): Result&amp;lt;Error&amp;gt;" style="text;strokeColor=none;fillColor=none;align=left;verticalAlign=top;spacingLeft=4;spacingRight=4;overflow=hidden;rotatable=0;points=[[0,0.5],[1,0.5]];portConstraint=eastwest;whiteSpace=wrap;html=1;" vertex="1" parent="F7tQ2r_eFeR0tLp06QVQ-435">
          <mxGeometry y="120" width="361" height="26" as="geometry" />
        </mxCell>
        <mxCell id="F7tQ2r_eFeR0tLp06QVQ-839" value="+ get_first_date(): Option&amp;lt;DateTime&amp;gt;" style="text;strokeColor=none;fillColor=none;align=left;verticalAlign=top;spacingLeft=4;spacingRight=4;overflow=hidden;rotatable=0;points=[[0,0.5],[1,0.5]];portConstraint=eastwest;whiteSpace=wrap;html=1;" vertex="1" parent="F7tQ2r_eFeR0tLp06QVQ-435">
          <mxGeometry y="146" width="361" height="26" as="geometry" />
        </mxCell>
        <mxCell id="F7tQ2r_eFeR0tLp06QVQ-840" value="+ get_last_date(): Option&amp;lt;DateTime&amp;gt;" style="text;strokeColor=none;fillColor=none;align=left;verticalAlign=top;spacingLeft=4;spacingRight=4;overflow=hidden;rotatable=0;points=[[0,0.5],[1,0.5]];portConstraint=eastwest;whiteSpace=wrap;html=1;" vertex="1" parent="F7tQ2r_eFeR0tLp06QVQ-435">
          <mxGeometry y="172" width="361" height="26" as="geometry" />
        </mxCell>
        <mxCell id="F7tQ2r_eFeR0tLp06QVQ-754" value="+ 转发STradingPair函数" style="text;strokeColor=none;fillColor=none;align=left;verticalAlign=top;spacingLeft=4;spacingRight=4;overflow=hidden;rotatable=0;points=[[0,0.5],[1,0.5]];portConstraint=eastwest;whiteSpace=wrap;html=1;" vertex="1" parent="F7tQ2r_eFeR0tLp06QVQ-435">
          <mxGeometry y="198" width="361" height="26" as="geometry" />
        </mxCell>
        <mxCell id="F7tQ2r_eFeR0tLp06QVQ-906" value="+ calculate_total_assets(): HashMap&amp;lt;EAssetType, Decimal&amp;gt; - 统计每种资产的总锁定量" style="text;strokeColor=#d6b656;fillColor=#fff2cc;align=left;verticalAlign=top;spacingLeft=4;spacingRight=4;overflow=hidden;rotatable=0;points=[[0,0.5],[1,0.5]];portConstraint=eastwest;whiteSpace=wrap;html=1;fontStyle=0" vertex="1" parent="F7tQ2r_eFeR0tLp06QVQ-435">
          <mxGeometry y="224" width="361" height="43" as="geometry" />
        </mxCell>
        <mxCell id="F7tQ2r_eFeR0tLp06QVQ-528" value="&lt;b style=&quot;font-size: 14px;&quot;&gt;EStrategyAction 策略行为&lt;/b&gt;" style="swimlane;fontStyle=1;align=center;verticalAlign=top;childLayout=stackLayout;horizontal=1;startSize=26;horizontalStack=0;resizeParent=1;resizeParentMax=0;resizeLast=0;collapsible=1;marginBottom=0;whiteSpace=wrap;html=1;fillColor=#d5e8d4;strokeColor=#82b366;" vertex="1" parent="1">
          <mxGeometry x="678.33" y="2434" width="240" height="126" as="geometry" />
        </mxCell>
        <mxCell id="F7tQ2r_eFeR0tLp06QVQ-529" value="+ NewOrder(SAddOrder) - 新增订单" style="text;strokeColor=none;fillColor=none;align=left;verticalAlign=top;spacingLeft=4;spacingRight=4;overflow=hidden;rotatable=0;points=[[0,0.5],[1,0.5]];portConstraint=eastwest;whiteSpace=wrap;html=1;" vertex="1" parent="F7tQ2r_eFeR0tLp06QVQ-528">
          <mxGeometry y="26" width="240" height="20" as="geometry" />
        </mxCell>
        <mxCell id="F7tQ2r_eFeR0tLp06QVQ-534" value="+ CancelOrder(id: UUID) - 撤销订单" style="text;strokeColor=none;fillColor=none;align=left;verticalAlign=top;spacingLeft=4;spacingRight=4;overflow=hidden;rotatable=0;points=[[0,0.5],[1,0.5]];portConstraint=eastwest;whiteSpace=wrap;html=1;" vertex="1" parent="F7tQ2r_eFeR0tLp06QVQ-528">
          <mxGeometry y="46" width="240" height="20" as="geometry" />
        </mxCell>
        <mxCell id="F7tQ2r_eFeR0tLp06QVQ-535" value="+ ModifyOrder(id: UUID, price: Option&amp;lt;Decimal&amp;gt;, quantity: Option&amp;lt;Decimal&amp;gt;) - 修改订单" style="text;strokeColor=none;fillColor=none;align=left;verticalAlign=top;spacingLeft=4;spacingRight=4;overflow=hidden;rotatable=0;points=[[0,0.5],[1,0.5]];portConstraint=eastwest;whiteSpace=wrap;html=1;" vertex="1" parent="F7tQ2r_eFeR0tLp06QVQ-528">
          <mxGeometry y="66" width="240" height="52" as="geometry" />
        </mxCell>
        <mxCell id="F7tQ2r_eFeR0tLp06QVQ-533" value="" style="line;strokeWidth=1;fillColor=none;align=left;verticalAlign=middle;spacingTop=-1;spacingLeft=3;spacingRight=3;rotatable=0;labelPosition=right;points=[];portConstraint=eastwest;strokeColor=inherit;" vertex="1" parent="F7tQ2r_eFeR0tLp06QVQ-528">
          <mxGeometry y="118" width="240" height="8" as="geometry" />
        </mxCell>
        <mxCell id="F7tQ2r_eFeR0tLp06QVQ-539" value="&lt;b style=&quot;font-size: 14px;&quot;&gt;SRunnerParseResult 执行器处理结果&lt;/b&gt;" style="swimlane;fontStyle=1;align=center;verticalAlign=top;childLayout=stackLayout;horizontal=1;startSize=26;horizontalStack=0;resizeParent=1;resizeParentMax=0;resizeLast=0;collapsible=1;marginBottom=0;whiteSpace=wrap;html=1;fillColor=#d5e8d4;strokeColor=#82b366;" vertex="1" parent="1">
          <mxGeometry x="237.32999999999998" y="2434" width="310" height="200" as="geometry" />
        </mxCell>
        <mxCell id="F7tQ2r_eFeR0tLp06QVQ-540" value="+ date_time: Date - K线日期时间" style="text;strokeColor=none;fillColor=none;align=left;verticalAlign=top;spacingLeft=4;spacingRight=4;overflow=hidden;rotatable=0;points=[[0,0.5],[1,0.5]];portConstraint=eastwest;whiteSpace=wrap;html=1;" vertex="1" parent="F7tQ2r_eFeR0tLp06QVQ-539">
          <mxGeometry y="26" width="310" height="26" as="geometry" />
        </mxCell>
        <mxCell id="F7tQ2r_eFeR0tLp06QVQ-841" value="+ new_kline: SKlineUnitData - 增量K线数据" style="text;strokeColor=none;fillColor=none;align=left;verticalAlign=top;spacingLeft=4;spacingRight=4;overflow=hidden;rotatable=0;points=[[0,0.5],[1,0.5]];portConstraint=eastwest;whiteSpace=wrap;html=1;" vertex="1" parent="F7tQ2r_eFeR0tLp06QVQ-539">
          <mxGeometry y="52" width="310" height="26" as="geometry" />
        </mxCell>
        <mxCell id="F7tQ2r_eFeR0tLp06QVQ-625" value="+ new_funding_rate: Option&amp;lt;Decimal&amp;gt; - 增量资金费率数据" style="text;strokeColor=none;fillColor=none;align=left;verticalAlign=top;spacingLeft=4;spacingRight=4;overflow=hidden;rotatable=0;points=[[0,0.5],[1,0.5]];portConstraint=eastwest;whiteSpace=wrap;html=1;" vertex="1" parent="F7tQ2r_eFeR0tLp06QVQ-539">
          <mxGeometry y="78" width="310" height="38" as="geometry" />
        </mxCell>
        <mxCell id="F7tQ2r_eFeR0tLp06QVQ-541" value="+ order_result: Vec&amp;lt;ERunnerParseOrderResult&amp;gt; - 订单处理结果" style="text;strokeColor=none;fillColor=none;align=left;verticalAlign=top;spacingLeft=4;spacingRight=4;overflow=hidden;rotatable=0;points=[[0,0.5],[1,0.5]];portConstraint=eastwest;whiteSpace=wrap;html=1;" vertex="1" parent="F7tQ2r_eFeR0tLp06QVQ-539">
          <mxGeometry y="116" width="310" height="38" as="geometry" />
        </mxCell>
        <mxCell id="F7tQ2r_eFeR0tLp06QVQ-567" value="+ assert_result: List&amp;lt;EBacktraderParseAssertResult&amp;gt; - 资产处理结果" style="text;strokeColor=none;fillColor=none;align=left;verticalAlign=top;spacingLeft=4;spacingRight=4;overflow=hidden;rotatable=0;points=[[0,0.5],[1,0.5]];portConstraint=eastwest;whiteSpace=wrap;html=1;fontStyle=6;fontColor=#FF3333;" vertex="1" parent="F7tQ2r_eFeR0tLp06QVQ-539">
          <mxGeometry y="154" width="310" height="38" as="geometry" />
        </mxCell>
        <mxCell id="F7tQ2r_eFeR0tLp06QVQ-544" value="" style="line;strokeWidth=1;fillColor=none;align=left;verticalAlign=middle;spacingTop=-1;spacingLeft=3;spacingRight=3;rotatable=0;labelPosition=right;points=[];portConstraint=eastwest;strokeColor=inherit;" vertex="1" parent="F7tQ2r_eFeR0tLp06QVQ-539">
          <mxGeometry y="192" width="310" height="8" as="geometry" />
        </mxCell>
        <mxCell id="F7tQ2r_eFeR0tLp06QVQ-1181" style="rounded=0;orthogonalLoop=1;jettySize=auto;html=1;" edge="1" parent="1" source="F7tQ2r_eFeR0tLp06QVQ-664" target="F7tQ2r_eFeR0tLp06QVQ-1166">
          <mxGeometry relative="1" as="geometry" />
        </mxCell>
        <mxCell id="F7tQ2r_eFeR0tLp06QVQ-664" value="&lt;b style=&quot;font-size: 14px;&quot;&gt;TRunner 执行器&lt;/b&gt;" style="swimlane;fontStyle=1;align=center;verticalAlign=top;childLayout=stackLayout;horizontal=1;startSize=26;horizontalStack=0;resizeParent=1;resizeParentMax=0;resizeLast=0;collapsible=1;marginBottom=0;whiteSpace=wrap;html=1;fillColor=#d5e8d4;strokeColor=#82b366;" vertex="1" parent="1">
          <mxGeometry x="-444.75" y="2720" width="359.5" height="60" as="geometry" />
        </mxCell>
        <mxCell id="F7tQ2r_eFeR0tLp06QVQ-666" value="" style="line;strokeWidth=1;fillColor=none;align=left;verticalAlign=middle;spacingTop=-1;spacingLeft=3;spacingRight=3;rotatable=0;labelPosition=right;points=[];portConstraint=eastwest;strokeColor=inherit;" vertex="1" parent="F7tQ2r_eFeR0tLp06QVQ-664">
          <mxGeometry y="26" width="359.5" height="8" as="geometry" />
        </mxCell>
        <mxCell id="F7tQ2r_eFeR0tLp06QVQ-665" value="+ run(&amp;amp;Vec&amp;lt;SUser&amp;gt;)" style="text;strokeColor=none;fillColor=none;align=left;verticalAlign=top;spacingLeft=4;spacingRight=4;overflow=hidden;rotatable=0;points=[[0,0.5],[1,0.5]];portConstraint=eastwest;whiteSpace=wrap;html=1;" vertex="1" parent="F7tQ2r_eFeR0tLp06QVQ-664">
          <mxGeometry y="34" width="359.5" height="26" as="geometry" />
        </mxCell>
        <mxCell id="F7tQ2r_eFeR0tLp06QVQ-681" value="&lt;b style=&quot;font-size: 14px;&quot;&gt;EOrderAction 订单操作&lt;/b&gt;" style="swimlane;fontStyle=1;align=center;verticalAlign=top;childLayout=stackLayout;horizontal=1;startSize=26;horizontalStack=0;resizeParent=1;resizeParentMax=0;resizeLast=0;collapsible=1;marginBottom=0;whiteSpace=wrap;html=1;fillColor=#d5e8d4;strokeColor=#82b366;" vertex="1" parent="1">
          <mxGeometry x="-479.5" y="1679" width="200" height="86" as="geometry" />
        </mxCell>
        <mxCell id="F7tQ2r_eFeR0tLp06QVQ-682" value="+ Buy - 买入" style="text;strokeColor=none;fillColor=none;align=left;verticalAlign=top;spacingLeft=4;spacingRight=4;overflow=hidden;rotatable=0;points=[[0,0.5],[1,0.5]];portConstraint=eastwest;whiteSpace=wrap;html=1;" vertex="1" parent="F7tQ2r_eFeR0tLp06QVQ-681">
          <mxGeometry y="26" width="200" height="26" as="geometry" />
        </mxCell>
        <mxCell id="F7tQ2r_eFeR0tLp06QVQ-683" value="+ Sell - 卖出" style="text;strokeColor=none;fillColor=none;align=left;verticalAlign=top;spacingLeft=4;spacingRight=4;overflow=hidden;rotatable=0;points=[[0,0.5],[1,0.5]];portConstraint=eastwest;whiteSpace=wrap;html=1;" vertex="1" parent="F7tQ2r_eFeR0tLp06QVQ-681">
          <mxGeometry y="52" width="200" height="26" as="geometry" />
        </mxCell>
        <mxCell id="F7tQ2r_eFeR0tLp06QVQ-684" value="" style="line;strokeWidth=1;fillColor=none;align=left;verticalAlign=middle;spacingTop=-1;spacingLeft=3;spacingRight=3;rotatable=0;labelPosition=right;points=[];portConstraint=eastwest;strokeColor=inherit;" vertex="1" parent="F7tQ2r_eFeR0tLp06QVQ-681">
          <mxGeometry y="78" width="200" height="8" as="geometry" />
        </mxCell>
        <mxCell id="F7tQ2r_eFeR0tLp06QVQ-1142" style="rounded=0;orthogonalLoop=1;jettySize=auto;html=1;" edge="1" parent="1" source="F7tQ2r_eFeR0tLp06QVQ-763" target="F7tQ2r_eFeR0tLp06QVQ-918">
          <mxGeometry relative="1" as="geometry" />
        </mxCell>
        <mxCell id="F7tQ2r_eFeR0tLp06QVQ-763" value="&lt;b style=&quot;font-size: 14px;&quot;&gt;EOrderManagerUpdate 订单管理器更新&lt;/b&gt;" style="swimlane;fontStyle=1;align=center;verticalAlign=top;childLayout=stackLayout;horizontal=1;startSize=26;horizontalStack=0;resizeParent=1;resizeParentMax=0;resizeLast=0;collapsible=1;marginBottom=0;whiteSpace=wrap;html=1;fillColor=#d5e8d4;strokeColor=#82b366;" vertex="1" parent="1">
          <mxGeometry x="359" y="1320" width="283" height="86" as="geometry" />
        </mxCell>
        <mxCell id="F7tQ2r_eFeR0tLp06QVQ-764" value="+ Update(EOrderUpdate)" style="text;strokeColor=none;fillColor=none;align=left;verticalAlign=top;spacingLeft=4;spacingRight=4;overflow=hidden;rotatable=0;points=[[0,0.5],[1,0.5]];portConstraint=eastwest;whiteSpace=wrap;html=1;" vertex="1" parent="F7tQ2r_eFeR0tLp06QVQ-763">
          <mxGeometry y="26" width="283" height="26" as="geometry" />
        </mxCell>
        <mxCell id="F7tQ2r_eFeR0tLp06QVQ-765" value="+ Remove(Uuid)" style="text;strokeColor=none;fillColor=none;align=left;verticalAlign=top;spacingLeft=4;spacingRight=4;overflow=hidden;rotatable=0;points=[[0,0.5],[1,0.5]];portConstraint=eastwest;whiteSpace=wrap;html=1;" vertex="1" parent="F7tQ2r_eFeR0tLp06QVQ-763">
          <mxGeometry y="52" width="283" height="26" as="geometry" />
        </mxCell>
        <mxCell id="F7tQ2r_eFeR0tLp06QVQ-767" value="" style="line;strokeWidth=1;fillColor=none;align=left;verticalAlign=middle;spacingTop=-1;spacingLeft=3;spacingRight=3;rotatable=0;labelPosition=right;points=[];portConstraint=eastwest;strokeColor=inherit;" vertex="1" parent="F7tQ2r_eFeR0tLp06QVQ-763">
          <mxGeometry y="78" width="283" height="8" as="geometry" />
        </mxCell>
        <mxCell id="F7tQ2r_eFeR0tLp06QVQ-1182" style="rounded=0;orthogonalLoop=1;jettySize=auto;html=1;" edge="1" parent="1" source="F7tQ2r_eFeR0tLp06QVQ-453" target="F7tQ2r_eFeR0tLp06QVQ-446">
          <mxGeometry relative="1" as="geometry" />
        </mxCell>
        <mxCell id="F7tQ2r_eFeR0tLp06QVQ-453" value="&lt;b style=&quot;font-size: 14px;&quot;&gt;&amp;nbsp;SKlineData K线数据&lt;/b&gt;" style="swimlane;fontStyle=1;align=center;verticalAlign=top;childLayout=stackLayout;horizontal=1;startSize=26;horizontalStack=0;resizeParent=1;resizeParentMax=0;resizeLast=0;collapsible=1;marginBottom=0;whiteSpace=wrap;html=1;fillColor=#d5e8d4;strokeColor=#82b366;" vertex="1" parent="1">
          <mxGeometry x="-2040" y="1278" width="280" height="190" as="geometry" />
        </mxCell>
        <mxCell id="F7tQ2r_eFeR0tLp06QVQ-454" value="+ kline_list: BTreeMap&amp;lt;SKlineUnitData&amp;gt;" style="text;strokeColor=none;fillColor=none;align=left;verticalAlign=top;spacingLeft=4;spacingRight=4;overflow=hidden;rotatable=0;points=[[0,0.5],[1,0.5]];portConstraint=eastwest;whiteSpace=wrap;html=1;" vertex="1" parent="F7tQ2r_eFeR0tLp06QVQ-453">
          <mxGeometry y="26" width="280" height="26" as="geometry" />
        </mxCell>
        <mxCell id="F7tQ2r_eFeR0tLp06QVQ-461" value="" style="line;strokeWidth=1;fillColor=none;align=left;verticalAlign=middle;spacingTop=-1;spacingLeft=3;spacingRight=3;rotatable=0;labelPosition=right;points=[];portConstraint=eastwest;strokeColor=inherit;" vertex="1" parent="F7tQ2r_eFeR0tLp06QVQ-453">
          <mxGeometry y="52" width="280" height="8" as="geometry" />
        </mxCell>
        <mxCell id="F7tQ2r_eFeR0tLp06QVQ-499" value="+ get(Date): Option&amp;lt;&amp;amp;SKlineUnitData&amp;gt; - 获取K线单根数据" style="text;strokeColor=none;fillColor=none;align=left;verticalAlign=top;spacingLeft=4;spacingRight=4;overflow=hidden;rotatable=0;points=[[0,0.5],[1,0.5]];portConstraint=eastwest;whiteSpace=wrap;html=1;" vertex="1" parent="F7tQ2r_eFeR0tLp06QVQ-453">
          <mxGeometry y="60" width="280" height="40" as="geometry" />
        </mxCell>
        <mxCell id="F7tQ2r_eFeR0tLp06QVQ-771" value="+ insert(Date, ...) - 新增数据" style="text;strokeColor=none;fillColor=none;align=left;verticalAlign=top;spacingLeft=4;spacingRight=4;overflow=hidden;rotatable=0;points=[[0,0.5],[1,0.5]];portConstraint=eastwest;whiteSpace=wrap;html=1;" vertex="1" parent="F7tQ2r_eFeR0tLp06QVQ-453">
          <mxGeometry y="100" width="280" height="20" as="geometry" />
        </mxCell>
        <mxCell id="F7tQ2r_eFeR0tLp06QVQ-772" value="+ range(from:Date, to:Date): Impl Iterator - 获取特定日期范围内的k线数据" style="text;strokeColor=none;fillColor=none;align=left;verticalAlign=top;spacingLeft=4;spacingRight=4;overflow=hidden;rotatable=0;points=[[0,0.5],[1,0.5]];portConstraint=eastwest;whiteSpace=wrap;html=1;" vertex="1" parent="F7tQ2r_eFeR0tLp06QVQ-453">
          <mxGeometry y="120" width="280" height="40" as="geometry" />
        </mxCell>
        <mxCell id="F7tQ2r_eFeR0tLp06QVQ-826" value="+ iter(): Impl Iterator - 遍历数据" style="text;strokeColor=none;fillColor=none;align=left;verticalAlign=top;spacingLeft=4;spacingRight=4;overflow=hidden;rotatable=0;points=[[0,0.5],[1,0.5]];portConstraint=eastwest;whiteSpace=wrap;html=1;" vertex="1" parent="F7tQ2r_eFeR0tLp06QVQ-453">
          <mxGeometry y="160" width="280" height="30" as="geometry" />
        </mxCell>
        <mxCell id="F7tQ2r_eFeR0tLp06QVQ-1183" style="rounded=0;orthogonalLoop=1;jettySize=auto;html=1;" edge="1" parent="1" source="F7tQ2r_eFeR0tLp06QVQ-471" target="F7tQ2r_eFeR0tLp06QVQ-446">
          <mxGeometry relative="1" as="geometry" />
        </mxCell>
        <mxCell id="F7tQ2r_eFeR0tLp06QVQ-471" value="&lt;b style=&quot;font-size: 14px;&quot;&gt;&amp;nbsp;SFundingRateData 资金费率数据&lt;/b&gt;" style="swimlane;fontStyle=1;align=center;verticalAlign=top;childLayout=stackLayout;horizontal=1;startSize=26;horizontalStack=0;resizeParent=1;resizeParentMax=0;resizeLast=0;collapsible=1;marginBottom=0;whiteSpace=wrap;html=1;fillColor=#d5e8d4;strokeColor=#82b366;" vertex="1" parent="1">
          <mxGeometry x="-2040" y="1520" width="280" height="220" as="geometry" />
        </mxCell>
        <mxCell id="F7tQ2r_eFeR0tLp06QVQ-472" value="+ runding_rates: BTreeMap&amp;lt;SFundingRateUnitData&amp;gt;" style="text;strokeColor=none;fillColor=none;align=left;verticalAlign=top;spacingLeft=4;spacingRight=4;overflow=hidden;rotatable=0;points=[[0,0.5],[1,0.5]];portConstraint=eastwest;whiteSpace=wrap;html=1;" vertex="1" parent="F7tQ2r_eFeR0tLp06QVQ-471">
          <mxGeometry y="26" width="280" height="34" as="geometry" />
        </mxCell>
        <mxCell id="F7tQ2r_eFeR0tLp06QVQ-479" value="" style="line;strokeWidth=1;fillColor=none;align=left;verticalAlign=middle;spacingTop=-1;spacingLeft=3;spacingRight=3;rotatable=0;labelPosition=right;points=[];portConstraint=eastwest;strokeColor=inherit;" vertex="1" parent="F7tQ2r_eFeR0tLp06QVQ-471">
          <mxGeometry y="60" width="280" height="8" as="geometry" />
        </mxCell>
        <mxCell id="F7tQ2r_eFeR0tLp06QVQ-732" value="+ new(): Self" style="text;strokeColor=none;fillColor=none;align=left;verticalAlign=top;spacingLeft=4;spacingRight=4;overflow=hidden;rotatable=0;points=[[0,0.5],[1,0.5]];portConstraint=eastwest;whiteSpace=wrap;html=1;" vertex="1" parent="F7tQ2r_eFeR0tLp06QVQ-471">
          <mxGeometry y="68" width="280" height="26" as="geometry" />
        </mxCell>
        <mxCell id="F7tQ2r_eFeR0tLp06QVQ-498" value="+ get(Date): Option&amp;lt;&amp;amp;Decimal&amp;gt; - 获取特定日期的资金费率" style="text;strokeColor=none;fillColor=none;align=left;verticalAlign=top;spacingLeft=4;spacingRight=4;overflow=hidden;rotatable=0;points=[[0,0.5],[1,0.5]];portConstraint=eastwest;whiteSpace=wrap;html=1;" vertex="1" parent="F7tQ2r_eFeR0tLp06QVQ-471">
          <mxGeometry y="94" width="280" height="36" as="geometry" />
        </mxCell>
        <mxCell id="F7tQ2r_eFeR0tLp06QVQ-769" value="+ insert(Date, funding_rate: Decimal) - 新增数据" style="text;strokeColor=none;fillColor=none;align=left;verticalAlign=top;spacingLeft=4;spacingRight=4;overflow=hidden;rotatable=0;points=[[0,0.5],[1,0.5]];portConstraint=eastwest;whiteSpace=wrap;html=1;" vertex="1" parent="F7tQ2r_eFeR0tLp06QVQ-471">
          <mxGeometry y="130" width="280" height="20" as="geometry" />
        </mxCell>
        <mxCell id="F7tQ2r_eFeR0tLp06QVQ-770" value="+ range(from:Date, to:Date): Impl Iterator - 获取特定日期范围内的资金费率" style="text;strokeColor=none;fillColor=none;align=left;verticalAlign=top;spacingLeft=4;spacingRight=4;overflow=hidden;rotatable=0;points=[[0,0.5],[1,0.5]];portConstraint=eastwest;whiteSpace=wrap;html=1;" vertex="1" parent="F7tQ2r_eFeR0tLp06QVQ-471">
          <mxGeometry y="150" width="280" height="40" as="geometry" />
        </mxCell>
        <mxCell id="F7tQ2r_eFeR0tLp06QVQ-827" value="+ iter(): Impl Iterator - 遍历数据" style="text;strokeColor=none;fillColor=none;align=left;verticalAlign=top;spacingLeft=4;spacingRight=4;overflow=hidden;rotatable=0;points=[[0,0.5],[1,0.5]];portConstraint=eastwest;whiteSpace=wrap;html=1;" vertex="1" parent="F7tQ2r_eFeR0tLp06QVQ-471">
          <mxGeometry y="190" width="280" height="30" as="geometry" />
        </mxCell>
        <mxCell id="F7tQ2r_eFeR0tLp06QVQ-850" value="" style="endArrow=classic;endFill=1;html=1;edgeStyle=orthogonalEdgeStyle;align=left;verticalAlign=top;rounded=0;startArrow=none;startFill=0;" edge="1" parent="1">
          <mxGeometry x="-1" relative="1" as="geometry">
            <mxPoint x="255.36999999999978" y="390" as="sourcePoint" />
            <mxPoint x="460.3699999999998" y="390" as="targetPoint" />
            <Array as="points">
              <mxPoint x="415.37" y="390" />
              <mxPoint x="415.37" y="390" />
            </Array>
          </mxGeometry>
        </mxCell>
        <mxCell id="F7tQ2r_eFeR0tLp06QVQ-851" value="8. 校验结果" style="edgeLabel;resizable=0;html=1;align=left;verticalAlign=bottom;" connectable="0" vertex="1" parent="F7tQ2r_eFeR0tLp06QVQ-850">
          <mxGeometry x="-1" relative="1" as="geometry">
            <mxPoint x="13" as="offset" />
          </mxGeometry>
        </mxCell>
        <mxCell id="F7tQ2r_eFeR0tLp06QVQ-853" value="&lt;b style=&quot;font-size: 14px;&quot;&gt;E&lt;/b&gt;&lt;b style=&quot;font-size: 14px;&quot;&gt;Runner&lt;/b&gt;&lt;b style=&quot;font-size: 14px;&quot;&gt;ParseActionResult 执行器处理结果-策略行为&lt;/b&gt;" style="swimlane;fontStyle=1;align=center;verticalAlign=top;childLayout=stackLayout;horizontal=1;startSize=26;horizontalStack=0;resizeParent=1;resizeParentMax=0;resizeLast=0;collapsible=1;marginBottom=0;whiteSpace=wrap;html=1;fillColor=#d5e8d4;strokeColor=#82b366;" vertex="1" parent="1">
          <mxGeometry x="237.32999999999998" y="2715" width="361" height="112" as="geometry" />
        </mxCell>
        <mxCell id="F7tQ2r_eFeR0tLp06QVQ-855" value="+ OrderPlaced(Uuid) - 已完成挂单" style="text;strokeColor=none;fillColor=none;align=left;verticalAlign=top;spacingLeft=4;spacingRight=4;overflow=hidden;rotatable=0;points=[[0,0.5],[1,0.5]];portConstraint=eastwest;whiteSpace=wrap;html=1;" vertex="1" parent="F7tQ2r_eFeR0tLp06QVQ-853">
          <mxGeometry y="26" width="361" height="26" as="geometry" />
        </mxCell>
        <mxCell id="F7tQ2r_eFeR0tLp06QVQ-856" value="+ OrderCanceled(Uuid) - 已完成撤单" style="text;strokeColor=none;fillColor=none;align=left;verticalAlign=top;spacingLeft=4;spacingRight=4;overflow=hidden;rotatable=0;points=[[0,0.5],[1,0.5]];portConstraint=eastwest;whiteSpace=wrap;html=1;" vertex="1" parent="F7tQ2r_eFeR0tLp06QVQ-853">
          <mxGeometry y="52" width="361" height="26" as="geometry" />
        </mxCell>
        <mxCell id="F7tQ2r_eFeR0tLp06QVQ-857" value="+ OrderModified(&amp;amp;SOrder) - 已完成改单" style="text;strokeColor=none;fillColor=none;align=left;verticalAlign=top;spacingLeft=4;spacingRight=4;overflow=hidden;rotatable=0;points=[[0,0.5],[1,0.5]];portConstraint=eastwest;whiteSpace=wrap;html=1;" vertex="1" parent="F7tQ2r_eFeR0tLp06QVQ-853">
          <mxGeometry y="78" width="361" height="26" as="geometry" />
        </mxCell>
        <mxCell id="F7tQ2r_eFeR0tLp06QVQ-858" value="" style="line;strokeWidth=1;fillColor=none;align=left;verticalAlign=middle;spacingTop=-1;spacingLeft=3;spacingRight=3;rotatable=0;labelPosition=right;points=[];portConstraint=eastwest;strokeColor=inherit;" vertex="1" parent="F7tQ2r_eFeR0tLp06QVQ-853">
          <mxGeometry y="104" width="361" height="8" as="geometry" />
        </mxCell>
        <mxCell id="F7tQ2r_eFeR0tLp06QVQ-903" style="rounded=0;orthogonalLoop=1;jettySize=auto;html=1;jumpStyle=arc;" edge="1" parent="1" source="F7tQ2r_eFeR0tLp06QVQ-891" target="F7tQ2r_eFeR0tLp06QVQ-159">
          <mxGeometry relative="1" as="geometry" />
        </mxCell>
        <mxCell id="F7tQ2r_eFeR0tLp06QVQ-918" value="&lt;b style=&quot;font-size: 14px;&quot;&gt;SOrderManager 订单管理器&lt;/b&gt;" style="swimlane;fontStyle=1;align=center;verticalAlign=top;childLayout=stackLayout;horizontal=1;startSize=26;horizontalStack=0;resizeParent=1;resizeParentMax=0;resizeLast=0;collapsible=1;marginBottom=0;whiteSpace=wrap;html=1;fillColor=#d5e8d4;strokeColor=#82b366;" vertex="1" parent="1">
          <mxGeometry x="240.25" y="1522.5" width="479.75" height="360" as="geometry" />
        </mxCell>
        <mxCell id="F7tQ2r_eFeR0tLp06QVQ-940" value="+ orders: HashMap&amp;lt;Uuid, SOrder&amp;gt; - 订单池" style="text;strokeColor=none;fillColor=none;align=left;verticalAlign=top;spacingLeft=4;spacingRight=4;overflow=hidden;rotatable=0;points=[[0,0.5],[1,0.5]];portConstraint=eastwest;whiteSpace=wrap;html=1;" vertex="1" parent="F7tQ2r_eFeR0tLp06QVQ-918">
          <mxGeometry y="26" width="479.75" height="20" as="geometry" />
        </mxCell>
        <mxCell id="F7tQ2r_eFeR0tLp06QVQ-920" value="+ buy_orders: BTreeMap&amp;lt;Decimal, Vec&amp;lt;Uuid&amp;gt;&amp;gt; - 买单&lt;span style=&quot;background-color: initial;&quot;&gt;索引&lt;/span&gt;&lt;span style=&quot;background-color: initial;&quot;&gt;集合 K-价格 V-订单uuid列表&lt;/span&gt;" style="text;strokeColor=none;fillColor=none;align=left;verticalAlign=top;spacingLeft=4;spacingRight=4;overflow=hidden;rotatable=0;points=[[0,0.5],[1,0.5]];portConstraint=eastwest;whiteSpace=wrap;html=1;" vertex="1" parent="F7tQ2r_eFeR0tLp06QVQ-918">
          <mxGeometry y="46" width="479.75" height="18" as="geometry" />
        </mxCell>
        <mxCell id="F7tQ2r_eFeR0tLp06QVQ-921" value="+ sell_orders: BTreeMap&amp;lt;Decimal, Vec&amp;lt;Uuid&amp;gt;&amp;gt; - 卖单&lt;span style=&quot;background-color: initial;&quot;&gt;索引&lt;/span&gt;&lt;span style=&quot;background-color: initial;&quot;&gt;集合&lt;/span&gt;&amp;nbsp;K-价格 V-订单uuid列表" style="text;strokeColor=none;fillColor=none;align=left;verticalAlign=top;spacingLeft=4;spacingRight=4;overflow=hidden;rotatable=0;points=[[0,0.5],[1,0.5]];portConstraint=eastwest;whiteSpace=wrap;html=1;" vertex="1" parent="F7tQ2r_eFeR0tLp06QVQ-918">
          <mxGeometry y="64" width="479.75" height="20" as="geometry" />
        </mxCell>
        <mxCell id="F7tQ2r_eFeR0tLp06QVQ-924" value="" style="line;strokeWidth=1;fillColor=none;align=left;verticalAlign=middle;spacingTop=-1;spacingLeft=3;spacingRight=3;rotatable=0;labelPosition=right;points=[];portConstraint=eastwest;strokeColor=inherit;" vertex="1" parent="F7tQ2r_eFeR0tLp06QVQ-918">
          <mxGeometry y="84" width="479.75" height="8" as="geometry" />
        </mxCell>
        <mxCell id="F7tQ2r_eFeR0tLp06QVQ-925" value="+ new(): Self" style="text;strokeColor=none;fillColor=none;align=left;verticalAlign=top;spacingLeft=4;spacingRight=4;overflow=hidden;rotatable=0;points=[[0,0.5],[1,0.5]];portConstraint=eastwest;whiteSpace=wrap;html=1;" vertex="1" parent="F7tQ2r_eFeR0tLp06QVQ-918">
          <mxGeometry y="92" width="479.75" height="20" as="geometry" />
        </mxCell>
        <mxCell id="F7tQ2r_eFeR0tLp06QVQ-926" value="+ add_order(price, quantity, EOrderAction): Uuid" style="text;strokeColor=none;fillColor=none;align=left;verticalAlign=top;spacingLeft=4;spacingRight=4;overflow=hidden;rotatable=0;points=[[0,0.5],[1,0.5]];portConstraint=eastwest;whiteSpace=wrap;html=1;" vertex="1" parent="F7tQ2r_eFeR0tLp06QVQ-918">
          <mxGeometry y="112" width="479.75" height="20" as="geometry" />
        </mxCell>
        <mxCell id="F7tQ2r_eFeR0tLp06QVQ-939" value="+ insert_order(SOrder): Result&amp;lt;()&amp;gt;" style="text;strokeColor=none;fillColor=none;align=left;verticalAlign=top;spacingLeft=4;spacingRight=4;overflow=hidden;rotatable=0;points=[[0,0.5],[1,0.5]];portConstraint=eastwest;whiteSpace=wrap;html=1;" vertex="1" parent="F7tQ2r_eFeR0tLp06QVQ-918">
          <mxGeometry y="132" width="479.75" height="20" as="geometry" />
        </mxCell>
        <mxCell id="F7tQ2r_eFeR0tLp06QVQ-927" value="+ peek_order(Uuid): Option&amp;lt;&amp;amp;SOrder&amp;gt; - 判断某个order是否存在 若存在则返回其引用" style="text;strokeColor=none;fillColor=none;align=left;verticalAlign=top;spacingLeft=4;spacingRight=4;overflow=hidden;rotatable=0;points=[[0,0.5],[1,0.5]];portConstraint=eastwest;whiteSpace=wrap;html=1;" vertex="1" parent="F7tQ2r_eFeR0tLp06QVQ-918">
          <mxGeometry y="152" width="479.75" height="20" as="geometry" />
        </mxCell>
        <mxCell id="F7tQ2r_eFeR0tLp06QVQ-929" value="+ remove_order(Uuid): Option&amp;lt;SOrder&amp;gt; - 删除订单" style="text;strokeColor=none;fillColor=none;align=left;verticalAlign=top;spacingLeft=4;spacingRight=4;overflow=hidden;rotatable=0;points=[[0,0.5],[1,0.5]];portConstraint=eastwest;whiteSpace=wrap;html=1;" vertex="1" parent="F7tQ2r_eFeR0tLp06QVQ-918">
          <mxGeometry y="172" width="479.75" height="20" as="geometry" />
        </mxCell>
        <mxCell id="F7tQ2r_eFeR0tLp06QVQ-930" value="+ remove_orders(Uuid, EOrderManagerUpdate): Result&amp;lt;(), EOrderManagerError&amp;gt; - 删除多个订单" style="text;strokeColor=none;fillColor=none;align=left;verticalAlign=top;spacingLeft=4;spacingRight=4;overflow=hidden;rotatable=0;points=[[0,0.5],[1,0.5]];portConstraint=eastwest;whiteSpace=wrap;html=1;" vertex="1" parent="F7tQ2r_eFeR0tLp06QVQ-918">
          <mxGeometry y="192" width="479.75" height="35" as="geometry" />
        </mxCell>
        <mxCell id="F7tQ2r_eFeR0tLp06QVQ-931" value="+ peek_highest_buy_order(): Option&amp;lt;&amp;amp;SOrder&amp;gt; - 查看最高价的买单 获取其引用" style="text;strokeColor=none;fillColor=none;align=left;verticalAlign=top;spacingLeft=4;spacingRight=4;overflow=hidden;rotatable=0;points=[[0,0.5],[1,0.5]];portConstraint=eastwest;whiteSpace=wrap;html=1;" vertex="1" parent="F7tQ2r_eFeR0tLp06QVQ-918">
          <mxGeometry y="227" width="479.75" height="20" as="geometry" />
        </mxCell>
        <mxCell id="F7tQ2r_eFeR0tLp06QVQ-932" value="+ pop_highest_buy_order(): Option&amp;lt;SOrder&amp;gt; - 获取最高价的买单" style="text;strokeColor=none;fillColor=none;align=left;verticalAlign=top;spacingLeft=4;spacingRight=4;overflow=hidden;rotatable=0;points=[[0,0.5],[1,0.5]];portConstraint=eastwest;whiteSpace=wrap;html=1;" vertex="1" parent="F7tQ2r_eFeR0tLp06QVQ-918">
          <mxGeometry y="247" width="479.75" height="20" as="geometry" />
        </mxCell>
        <mxCell id="F7tQ2r_eFeR0tLp06QVQ-933" value="+ peek_lowest_sell_order(): Option&amp;lt;&amp;amp;SOrder&amp;gt; - 查看最低价的卖单 获取其引用" style="text;strokeColor=none;fillColor=none;align=left;verticalAlign=top;spacingLeft=4;spacingRight=4;overflow=hidden;rotatable=0;points=[[0,0.5],[1,0.5]];portConstraint=eastwest;whiteSpace=wrap;html=1;" vertex="1" parent="F7tQ2r_eFeR0tLp06QVQ-918">
          <mxGeometry y="267" width="479.75" height="20" as="geometry" />
        </mxCell>
        <mxCell id="F7tQ2r_eFeR0tLp06QVQ-934" value="+ pop_lowest_sell_order(): Option&amp;lt;SOrder&amp;gt; - 获取最低价的卖单" style="text;strokeColor=none;fillColor=none;align=left;verticalAlign=top;spacingLeft=4;spacingRight=4;overflow=hidden;rotatable=0;points=[[0,0.5],[1,0.5]];portConstraint=eastwest;whiteSpace=wrap;html=1;" vertex="1" parent="F7tQ2r_eFeR0tLp06QVQ-918">
          <mxGeometry y="287" width="479.75" height="25" as="geometry" />
        </mxCell>
        <mxCell id="F7tQ2r_eFeR0tLp06QVQ-935" value="+ 转发SOrder函数" style="text;strokeColor=none;fillColor=none;align=left;verticalAlign=top;spacingLeft=4;spacingRight=4;overflow=hidden;rotatable=0;points=[[0,0.5],[1,0.5]];portConstraint=eastwest;whiteSpace=wrap;html=1;fontColor=#000000;fontStyle=0" vertex="1" parent="F7tQ2r_eFeR0tLp06QVQ-918">
          <mxGeometry y="312" width="479.75" height="23" as="geometry" />
        </mxCell>
        <mxCell id="F7tQ2r_eFeR0tLp06QVQ-936" value="+ calculate_total_assets(): HashMap&amp;lt;EAssetType, Decimal&amp;gt; - 统计每种资产的总锁定量" style="text;strokeColor=none;fillColor=none;align=left;verticalAlign=top;spacingLeft=4;spacingRight=4;overflow=hidden;rotatable=0;points=[[0,0.5],[1,0.5]];portConstraint=eastwest;whiteSpace=wrap;html=1;fontColor=#000000;fontStyle=0" vertex="1" parent="F7tQ2r_eFeR0tLp06QVQ-918">
          <mxGeometry y="335" width="479.75" height="25" as="geometry" />
        </mxCell>
        <mxCell id="F7tQ2r_eFeR0tLp06QVQ-1082" value="内部数据管理模块" style="rounded=1;whiteSpace=wrap;html=1;fillColor=none;strokeColor=#6c8ebf;fontColor=#000000;fontSize=20;fontFamily=Helvetica;verticalAlign=top;dashed=1;fontStyle=1;strokeWidth=3;" vertex="1" parent="1">
          <mxGeometry x="990" y="-980" width="1830" height="1520" as="geometry" />
        </mxCell>
        <mxCell id="F7tQ2r_eFeR0tLp06QVQ-890" style="rounded=0;orthogonalLoop=1;jettySize=auto;html=1;" edge="1" parent="1" source="F7tQ2r_eFeR0tLp06QVQ-424" target="F7tQ2r_eFeR0tLp06QVQ-879">
          <mxGeometry relative="1" as="geometry" />
        </mxCell>
        <mxCell id="F7tQ2r_eFeR0tLp06QVQ-424" value="&lt;b style=&quot;font-size: 14px;&quot;&gt;EAssetType&lt;/b&gt;&lt;b style=&quot;font-size: 14px;&quot;&gt;&amp;nbsp;资产类型&lt;/b&gt;" style="swimlane;fontStyle=1;align=center;verticalAlign=top;childLayout=stackLayout;horizontal=1;startSize=26;horizontalStack=0;resizeParent=1;resizeParentMax=0;resizeLast=0;collapsible=1;marginBottom=0;whiteSpace=wrap;html=1;fillColor=#d5e8d4;strokeColor=#82b366;" vertex="1" parent="1">
          <mxGeometry x="1040" y="1479" width="240" height="138" as="geometry" />
        </mxCell>
        <mxCell id="F7tQ2r_eFeR0tLp06QVQ-425" value="+ BtcUsdtFuture - U本位合约" style="text;strokeColor=none;fillColor=none;align=left;verticalAlign=top;spacingLeft=4;spacingRight=4;overflow=hidden;rotatable=0;points=[[0,0.5],[1,0.5]];portConstraint=eastwest;whiteSpace=wrap;html=1;" vertex="1" parent="F7tQ2r_eFeR0tLp06QVQ-424">
          <mxGeometry y="26" width="240" height="26" as="geometry" />
        </mxCell>
        <mxCell id="F7tQ2r_eFeR0tLp06QVQ-426" value="+ Usdt" style="text;strokeColor=none;fillColor=none;align=left;verticalAlign=top;spacingLeft=4;spacingRight=4;overflow=hidden;rotatable=0;points=[[0,0.5],[1,0.5]];portConstraint=eastwest;whiteSpace=wrap;html=1;" vertex="1" parent="F7tQ2r_eFeR0tLp06QVQ-424">
          <mxGeometry y="52" width="240" height="26" as="geometry" />
        </mxCell>
        <mxCell id="F7tQ2r_eFeR0tLp06QVQ-427" value="+ Btc" style="text;strokeColor=none;fillColor=none;align=left;verticalAlign=top;spacingLeft=4;spacingRight=4;overflow=hidden;rotatable=0;points=[[0,0.5],[1,0.5]];portConstraint=eastwest;whiteSpace=wrap;html=1;" vertex="1" parent="F7tQ2r_eFeR0tLp06QVQ-424">
          <mxGeometry y="78" width="240" height="26" as="geometry" />
        </mxCell>
        <mxCell id="F7tQ2r_eFeR0tLp06QVQ-428" value="+ BtcUsdCmFuture - 币本位合约" style="text;strokeColor=none;fillColor=none;align=left;verticalAlign=top;spacingLeft=4;spacingRight=4;overflow=hidden;rotatable=0;points=[[0,0.5],[1,0.5]];portConstraint=eastwest;whiteSpace=wrap;html=1;" vertex="1" parent="F7tQ2r_eFeR0tLp06QVQ-424">
          <mxGeometry y="104" width="240" height="26" as="geometry" />
        </mxCell>
        <mxCell id="F7tQ2r_eFeR0tLp06QVQ-432" value="" style="line;strokeWidth=1;fillColor=none;align=left;verticalAlign=middle;spacingTop=-1;spacingLeft=3;spacingRight=3;rotatable=0;labelPosition=right;points=[];portConstraint=eastwest;strokeColor=inherit;" vertex="1" parent="F7tQ2r_eFeR0tLp06QVQ-424">
          <mxGeometry y="130" width="240" height="8" as="geometry" />
        </mxCell>
        <mxCell id="F7tQ2r_eFeR0tLp06QVQ-440" value="&lt;b style=&quot;font-size: 14px;&quot;&gt;ETradingPairType&lt;/b&gt;&lt;b style=&quot;font-size: 14px;&quot;&gt;&amp;nbsp;交易对类型&lt;/b&gt;" style="swimlane;fontStyle=1;align=center;verticalAlign=top;childLayout=stackLayout;horizontal=1;startSize=26;horizontalStack=0;resizeParent=1;resizeParentMax=0;resizeLast=0;collapsible=1;marginBottom=0;whiteSpace=wrap;html=1;fillColor=#d5e8d4;strokeColor=#82b366;" vertex="1" parent="1">
          <mxGeometry x="1040" y="1278" width="240" height="112" as="geometry" />
        </mxCell>
        <mxCell id="F7tQ2r_eFeR0tLp06QVQ-441" value="+ BtcUsdtFuture - U本位合约" style="text;strokeColor=none;fillColor=none;align=left;verticalAlign=top;spacingLeft=4;spacingRight=4;overflow=hidden;rotatable=0;points=[[0,0.5],[1,0.5]];portConstraint=eastwest;whiteSpace=wrap;html=1;" vertex="1" parent="F7tQ2r_eFeR0tLp06QVQ-440">
          <mxGeometry y="26" width="240" height="26" as="geometry" />
        </mxCell>
        <mxCell id="F7tQ2r_eFeR0tLp06QVQ-442" value="+ BtcUsdt - 现货" style="text;strokeColor=none;fillColor=none;align=left;verticalAlign=top;spacingLeft=4;spacingRight=4;overflow=hidden;rotatable=0;points=[[0,0.5],[1,0.5]];portConstraint=eastwest;whiteSpace=wrap;html=1;" vertex="1" parent="F7tQ2r_eFeR0tLp06QVQ-440">
          <mxGeometry y="52" width="240" height="26" as="geometry" />
        </mxCell>
        <mxCell id="F7tQ2r_eFeR0tLp06QVQ-444" value="+ BtcUsdCmFuture - 币本位合约" style="text;strokeColor=none;fillColor=none;align=left;verticalAlign=top;spacingLeft=4;spacingRight=4;overflow=hidden;rotatable=0;points=[[0,0.5],[1,0.5]];portConstraint=eastwest;whiteSpace=wrap;html=1;" vertex="1" parent="F7tQ2r_eFeR0tLp06QVQ-440">
          <mxGeometry y="78" width="240" height="26" as="geometry" />
        </mxCell>
        <mxCell id="F7tQ2r_eFeR0tLp06QVQ-445" value="" style="line;strokeWidth=1;fillColor=none;align=left;verticalAlign=middle;spacingTop=-1;spacingLeft=3;spacingRight=3;rotatable=0;labelPosition=right;points=[];portConstraint=eastwest;strokeColor=inherit;" vertex="1" parent="F7tQ2r_eFeR0tLp06QVQ-440">
          <mxGeometry y="104" width="240" height="8" as="geometry" />
        </mxCell>
        <mxCell id="F7tQ2r_eFeR0tLp06QVQ-489" style="rounded=0;orthogonalLoop=1;jettySize=auto;html=1;" edge="1" parent="1" source="F7tQ2r_eFeR0tLp06QVQ-446" target="F7tQ2r_eFeR0tLp06QVQ-435">
          <mxGeometry relative="1" as="geometry">
            <mxPoint x="562.6427765237013" y="2188.5" as="sourcePoint" />
          </mxGeometry>
        </mxCell>
        <mxCell id="F7tQ2r_eFeR0tLp06QVQ-446" value="&lt;b style=&quot;font-size: 14px;&quot;&gt;STradingPair 交易对&lt;/b&gt;" style="swimlane;fontStyle=1;align=center;verticalAlign=top;childLayout=stackLayout;horizontal=1;startSize=26;horizontalStack=0;resizeParent=1;resizeParentMax=0;resizeLast=0;collapsible=1;marginBottom=0;whiteSpace=wrap;html=1;fillColor=#d5e8d4;strokeColor=#82b366;" vertex="1" parent="1">
          <mxGeometry x="-1680" y="1280" width="360" height="308" as="geometry" />
        </mxCell>
        <mxCell id="F7tQ2r_eFeR0tLp06QVQ-447" value="+ tp_type: ETradingPairType" style="text;strokeColor=none;fillColor=none;align=left;verticalAlign=top;spacingLeft=4;spacingRight=4;overflow=hidden;rotatable=0;points=[[0,0.5],[1,0.5]];portConstraint=eastwest;whiteSpace=wrap;html=1;" vertex="1" parent="F7tQ2r_eFeR0tLp06QVQ-446">
          <mxGeometry y="26" width="360" height="20" as="geometry" />
        </mxCell>
        <mxCell id="F7tQ2r_eFeR0tLp06QVQ-488" value="+ base_currency: EAssetType - 基础货币 比如BTC" style="text;strokeColor=none;fillColor=none;align=left;verticalAlign=top;spacingLeft=4;spacingRight=4;overflow=hidden;rotatable=0;points=[[0,0.5],[1,0.5]];portConstraint=eastwest;whiteSpace=wrap;html=1;" vertex="1" parent="F7tQ2r_eFeR0tLp06QVQ-446">
          <mxGeometry y="46" width="360" height="20" as="geometry" />
        </mxCell>
        <mxCell id="F7tQ2r_eFeR0tLp06QVQ-487" value="+ quote_currency: EAssetType - 计价货币 比如USDT" style="text;strokeColor=none;fillColor=none;align=left;verticalAlign=top;spacingLeft=4;spacingRight=4;overflow=hidden;rotatable=0;points=[[0,0.5],[1,0.5]];portConstraint=eastwest;whiteSpace=wrap;html=1;" vertex="1" parent="F7tQ2r_eFeR0tLp06QVQ-446">
          <mxGeometry y="66" width="360" height="20" as="geometry" />
        </mxCell>
        <mxCell id="F7tQ2r_eFeR0tLp06QVQ-484" value="+ kline_data: SKlineData - k线数据" style="text;strokeColor=none;fillColor=none;align=left;verticalAlign=top;spacingLeft=4;spacingRight=4;overflow=hidden;rotatable=0;points=[[0,0.5],[1,0.5]];portConstraint=eastwest;whiteSpace=wrap;html=1;" vertex="1" parent="F7tQ2r_eFeR0tLp06QVQ-446">
          <mxGeometry y="86" width="360" height="20" as="geometry" />
        </mxCell>
        <mxCell id="F7tQ2r_eFeR0tLp06QVQ-485" value="+ funding_rate_data: Option&amp;lt;SFundingRateData&amp;gt; - 资金费率数据" style="text;strokeColor=none;fillColor=none;align=left;verticalAlign=top;spacingLeft=4;spacingRight=4;overflow=hidden;rotatable=0;points=[[0,0.5],[1,0.5]];portConstraint=eastwest;whiteSpace=wrap;html=1;" vertex="1" parent="F7tQ2r_eFeR0tLp06QVQ-446">
          <mxGeometry y="106" width="360" height="20" as="geometry" />
        </mxCell>
        <mxCell id="F7tQ2r_eFeR0tLp06QVQ-520" value="+ order_manager: SOrderManager - 订单管理器" style="text;strokeColor=none;fillColor=none;align=left;verticalAlign=top;spacingLeft=4;spacingRight=4;overflow=hidden;rotatable=0;points=[[0,0.5],[1,0.5]];portConstraint=eastwest;whiteSpace=wrap;html=1;" vertex="1" parent="F7tQ2r_eFeR0tLp06QVQ-446">
          <mxGeometry y="126" width="360" height="20" as="geometry" />
        </mxCell>
        <mxCell id="F7tQ2r_eFeR0tLp06QVQ-448" value="" style="line;strokeWidth=1;fillColor=none;align=left;verticalAlign=middle;spacingTop=-1;spacingLeft=3;spacingRight=3;rotatable=0;labelPosition=right;points=[];portConstraint=eastwest;strokeColor=inherit;" vertex="1" parent="F7tQ2r_eFeR0tLp06QVQ-446">
          <mxGeometry y="146" width="360" height="8" as="geometry" />
        </mxCell>
        <mxCell id="F7tQ2r_eFeR0tLp06QVQ-449" value="+ new(ETradingPairType, SKlineData, Option&amp;lt;SFundingRateData&amp;gt;): Self" style="text;strokeColor=none;fillColor=none;align=left;verticalAlign=top;spacingLeft=4;spacingRight=4;overflow=hidden;rotatable=0;points=[[0,0.5],[1,0.5]];portConstraint=eastwest;whiteSpace=wrap;html=1;" vertex="1" parent="F7tQ2r_eFeR0tLp06QVQ-446">
          <mxGeometry y="154" width="360" height="36" as="geometry" />
        </mxCell>
        <mxCell id="F7tQ2r_eFeR0tLp06QVQ-733" value="+ 转发SOrderManager函数" style="text;strokeColor=none;fillColor=none;align=left;verticalAlign=top;spacingLeft=4;spacingRight=4;overflow=hidden;rotatable=0;points=[[0,0.5],[1,0.5]];portConstraint=eastwest;whiteSpace=wrap;html=1;" vertex="1" parent="F7tQ2r_eFeR0tLp06QVQ-446">
          <mxGeometry y="190" width="360" height="25" as="geometry" />
        </mxCell>
        <mxCell id="F7tQ2r_eFeR0tLp06QVQ-773" value="+ 转发SFundingRateData函数" style="text;strokeColor=none;fillColor=none;align=left;verticalAlign=top;spacingLeft=4;spacingRight=4;overflow=hidden;rotatable=0;points=[[0,0.5],[1,0.5]];portConstraint=eastwest;whiteSpace=wrap;html=1;" vertex="1" parent="F7tQ2r_eFeR0tLp06QVQ-446">
          <mxGeometry y="215" width="360" height="25" as="geometry" />
        </mxCell>
        <mxCell id="F7tQ2r_eFeR0tLp06QVQ-774" value="+ 转发SKlineData函数" style="text;strokeColor=none;fillColor=none;align=left;verticalAlign=top;spacingLeft=4;spacingRight=4;overflow=hidden;rotatable=0;points=[[0,0.5],[1,0.5]];portConstraint=eastwest;whiteSpace=wrap;html=1;" vertex="1" parent="F7tQ2r_eFeR0tLp06QVQ-446">
          <mxGeometry y="240" width="360" height="25" as="geometry" />
        </mxCell>
        <mxCell id="F7tQ2r_eFeR0tLp06QVQ-905" value="+ calculate_total_assets(): HashMap&amp;lt;EAssetType, Decimal&amp;gt; - 统计每种资产的总锁定量" style="text;strokeColor=none;fillColor=none;align=left;verticalAlign=top;spacingLeft=4;spacingRight=4;overflow=hidden;rotatable=0;points=[[0,0.5],[1,0.5]];portConstraint=eastwest;whiteSpace=wrap;html=1;fontColor=#000000;fontStyle=0" vertex="1" parent="F7tQ2r_eFeR0tLp06QVQ-446">
          <mxGeometry y="265" width="360" height="43" as="geometry" />
        </mxCell>
        <mxCell id="F7tQ2r_eFeR0tLp06QVQ-669" style="rounded=0;orthogonalLoop=1;jettySize=auto;html=1;" edge="1" parent="1" source="F7tQ2r_eFeR0tLp06QVQ-509" target="F7tQ2r_eFeR0tLp06QVQ-664">
          <mxGeometry relative="1" as="geometry" />
        </mxCell>
        <mxCell id="F7tQ2r_eFeR0tLp06QVQ-509" value="&lt;b style=&quot;font-size: 14px;&quot;&gt;SBackTradeRunner 回测执行器&lt;/b&gt;" style="swimlane;fontStyle=1;align=center;verticalAlign=top;childLayout=stackLayout;horizontal=1;startSize=26;horizontalStack=0;resizeParent=1;resizeParentMax=0;resizeLast=0;collapsible=1;marginBottom=0;whiteSpace=wrap;html=1;fillColor=#fff2cc;strokeColor=#d6b656;" vertex="1" parent="1">
          <mxGeometry x="-610" y="2370" width="690" height="234" as="geometry" />
        </mxCell>
        <mxCell id="F7tQ2r_eFeR0tLp06QVQ-842" value="+ config: SBackTradeConfig - 配置" style="text;align=left;verticalAlign=top;spacingLeft=4;spacingRight=4;overflow=hidden;rotatable=0;points=[[0,0.5],[1,0.5]];portConstraint=eastwest;whiteSpace=wrap;html=1;fontStyle=0;" vertex="1" parent="F7tQ2r_eFeR0tLp06QVQ-509">
          <mxGeometry y="26" width="690" height="26" as="geometry" />
        </mxCell>
        <mxCell id="F7tQ2r_eFeR0tLp06QVQ-510" value="+ data_manager: SDataManager - 数据接口" style="text;strokeColor=none;fillColor=none;align=left;verticalAlign=top;spacingLeft=4;spacingRight=4;overflow=hidden;rotatable=0;points=[[0,0.5],[1,0.5]];portConstraint=eastwest;whiteSpace=wrap;html=1;" vertex="1" parent="F7tQ2r_eFeR0tLp06QVQ-509">
          <mxGeometry y="52" width="690" height="26" as="geometry" />
        </mxCell>
        <mxCell id="F7tQ2r_eFeR0tLp06QVQ-1141" value="+ trading_pair_prices: HashMap&amp;lt;ETradingPairType, Decimal&amp;gt; - 记录最新的交易对报价" style="text;align=left;verticalAlign=top;spacingLeft=4;spacingRight=4;overflow=hidden;rotatable=0;points=[[0,0.5],[1,0.5]];portConstraint=eastwest;whiteSpace=wrap;html=1;fillColor=#fff2cc;strokeColor=#d6b656;" vertex="1" parent="F7tQ2r_eFeR0tLp06QVQ-509">
          <mxGeometry y="78" width="690" height="26" as="geometry" />
        </mxCell>
        <mxCell id="F7tQ2r_eFeR0tLp06QVQ-511" value="" style="line;strokeWidth=1;fillColor=none;align=left;verticalAlign=middle;spacingTop=-1;spacingLeft=3;spacingRight=3;rotatable=0;labelPosition=right;points=[];portConstraint=eastwest;strokeColor=inherit;" vertex="1" parent="F7tQ2r_eFeR0tLp06QVQ-509">
          <mxGeometry y="104" width="690" height="8" as="geometry" />
        </mxCell>
        <mxCell id="F7tQ2r_eFeR0tLp06QVQ-824" value="+ new() -&amp;gt; Self" style="text;strokeColor=none;fillColor=none;align=left;verticalAlign=top;spacingLeft=4;spacingRight=4;overflow=hidden;rotatable=0;points=[[0,0.5],[1,0.5]];portConstraint=eastwest;whiteSpace=wrap;html=1;" vertex="1" parent="F7tQ2r_eFeR0tLp06QVQ-509">
          <mxGeometry y="112" width="690" height="22" as="geometry" />
        </mxCell>
        <mxCell id="F7tQ2r_eFeR0tLp06QVQ-829" value="+ run(&amp;amp;mut Vec&amp;lt;SUser&amp;gt;)" style="text;strokeColor=none;fillColor=none;align=left;verticalAlign=top;spacingLeft=4;spacingRight=4;overflow=hidden;rotatable=0;points=[[0,0.5],[1,0.5]];portConstraint=eastwest;whiteSpace=wrap;html=1;" vertex="1" parent="F7tQ2r_eFeR0tLp06QVQ-509">
          <mxGeometry y="134" width="690" height="22" as="geometry" />
        </mxCell>
        <mxCell id="F7tQ2r_eFeR0tLp06QVQ-1140" value="+ parse_trading_pair_kline(): SRunnerParseResult - 处理新的k线和资金费率，更新订单和资产，记录增量处理结果。" style="text;strokeColor=none;fillColor=none;align=left;verticalAlign=top;spacingLeft=4;spacingRight=4;overflow=hidden;rotatable=0;points=[[0,0.5],[1,0.5]];portConstraint=eastwest;whiteSpace=wrap;html=1;" vertex="1" parent="F7tQ2r_eFeR0tLp06QVQ-509">
          <mxGeometry y="156" width="690" height="26" as="geometry" />
        </mxCell>
        <mxCell id="F7tQ2r_eFeR0tLp06QVQ-670" value="+ action_verify_update&lt;span style=&quot;background-color: initial;&quot;&gt;(List&amp;lt;EStrategyAction&amp;gt;) : List&amp;lt;ERunnerParseActionResult&amp;gt; - 根据策略行为，校验、调整订单数据。&lt;/span&gt;" style="text;strokeColor=none;fillColor=none;align=left;verticalAlign=top;spacingLeft=4;spacingRight=4;overflow=hidden;rotatable=0;points=[[0,0.5],[1,0.5]];portConstraint=eastwest;whiteSpace=wrap;html=1;" vertex="1" parent="F7tQ2r_eFeR0tLp06QVQ-509">
          <mxGeometry y="182" width="690" height="26" as="geometry" />
        </mxCell>
        <mxCell id="F7tQ2r_eFeR0tLp06QVQ-943" value="+ assets_denominate(EAssetType): Decimal - 计算以给定type计价的资产量" style="text;align=left;verticalAlign=top;spacingLeft=4;spacingRight=4;overflow=hidden;rotatable=0;points=[[0,0.5],[1,0.5]];portConstraint=eastwest;whiteSpace=wrap;html=1;" vertex="1" parent="F7tQ2r_eFeR0tLp06QVQ-509">
          <mxGeometry y="208" width="690" height="26" as="geometry" />
        </mxCell>
        <mxCell id="F7tQ2r_eFeR0tLp06QVQ-568" style="rounded=0;orthogonalLoop=1;jettySize=auto;html=1;" edge="1" parent="1" source="F7tQ2r_eFeR0tLp06QVQ-522" target="F7tQ2r_eFeR0tLp06QVQ-539">
          <mxGeometry relative="1" as="geometry" />
        </mxCell>
        <mxCell id="F7tQ2r_eFeR0tLp06QVQ-522" value="&lt;b style=&quot;font-size: 14px;&quot;&gt;E&lt;/b&gt;&lt;b style=&quot;font-size: 14px;&quot;&gt;Runner&lt;/b&gt;&lt;b style=&quot;font-size: 14px;&quot;&gt;ParseOrderResult 执行器处理结果-订单&lt;/b&gt;" style="swimlane;fontStyle=1;align=center;verticalAlign=top;childLayout=stackLayout;horizontal=1;startSize=26;horizontalStack=0;resizeParent=1;resizeParentMax=0;resizeLast=0;collapsible=1;marginBottom=0;whiteSpace=wrap;html=1;fillColor=#d5e8d4;strokeColor=#82b366;" vertex="1" parent="1">
          <mxGeometry x="637.83" y="2594" width="350" height="60" as="geometry" />
        </mxCell>
        <mxCell id="F7tQ2r_eFeR0tLp06QVQ-523" value="+ OrderExcuted(SOrder) - 已完成的订单" style="text;strokeColor=none;fillColor=none;align=left;verticalAlign=top;spacingLeft=4;spacingRight=4;overflow=hidden;rotatable=0;points=[[0,0.5],[1,0.5]];portConstraint=eastwest;whiteSpace=wrap;html=1;" vertex="1" parent="F7tQ2r_eFeR0tLp06QVQ-522">
          <mxGeometry y="26" width="350" height="26" as="geometry" />
        </mxCell>
        <mxCell id="F7tQ2r_eFeR0tLp06QVQ-527" value="" style="line;strokeWidth=1;fillColor=none;align=left;verticalAlign=middle;spacingTop=-1;spacingLeft=3;spacingRight=3;rotatable=0;labelPosition=right;points=[];portConstraint=eastwest;strokeColor=inherit;" vertex="1" parent="F7tQ2r_eFeR0tLp06QVQ-522">
          <mxGeometry y="52" width="350" height="8" as="geometry" />
        </mxCell>
        <mxCell id="F7tQ2r_eFeR0tLp06QVQ-636" style="rounded=0;orthogonalLoop=1;jettySize=auto;html=1;" edge="1" parent="1" source="F7tQ2r_eFeR0tLp06QVQ-573" target="F7tQ2r_eFeR0tLp06QVQ-601">
          <mxGeometry relative="1" as="geometry" />
        </mxCell>
        <mxCell id="F7tQ2r_eFeR0tLp06QVQ-573" value="&lt;b style=&quot;font-size: 14px;&quot;&gt;SStrategyOrderManager 策略订单管理器&lt;/b&gt;" style="swimlane;fontStyle=1;align=center;verticalAlign=top;childLayout=stackLayout;horizontal=1;startSize=26;horizontalStack=0;resizeParent=1;resizeParentMax=0;resizeLast=0;collapsible=1;marginBottom=0;whiteSpace=wrap;html=1;fillColor=#dae8fc;strokeColor=#6c8ebf;" vertex="1" parent="1">
          <mxGeometry x="2001" y="1720" width="359.5" height="258" as="geometry" />
        </mxCell>
        <mxCell id="F7tQ2r_eFeR0tLp06QVQ-582" value="+ opening_heap: Heap&amp;lt;SStrategyOrder&amp;gt; - 开仓堆，根据方向区分小顶堆和大顶堆。" style="text;strokeColor=none;fillColor=none;align=left;verticalAlign=top;spacingLeft=4;spacingRight=4;overflow=hidden;rotatable=0;points=[[0,0.5],[1,0.5]];portConstraint=eastwest;whiteSpace=wrap;html=1;" vertex="1" parent="F7tQ2r_eFeR0tLp06QVQ-573">
          <mxGeometry y="26" width="359.5" height="34" as="geometry" />
        </mxCell>
        <mxCell id="F7tQ2r_eFeR0tLp06QVQ-610" value="+ closing_heap: Heap&amp;lt;SStrategyOrder&amp;gt; - 平仓堆，根据方向区分小顶堆和大顶堆。" style="text;strokeColor=none;fillColor=none;align=left;verticalAlign=top;spacingLeft=4;spacingRight=4;overflow=hidden;rotatable=0;points=[[0,0.5],[1,0.5]];portConstraint=eastwest;whiteSpace=wrap;html=1;" vertex="1" parent="F7tQ2r_eFeR0tLp06QVQ-573">
          <mxGeometry y="60" width="359.5" height="34" as="geometry" />
        </mxCell>
        <mxCell id="F7tQ2r_eFeR0tLp06QVQ-634" value="+ direction: EOrderDirection - 持仓方向" style="text;strokeColor=none;fillColor=none;align=left;verticalAlign=top;spacingLeft=4;spacingRight=4;overflow=hidden;rotatable=0;points=[[0,0.5],[1,0.5]];portConstraint=eastwest;whiteSpace=wrap;html=1;" vertex="1" parent="F7tQ2r_eFeR0tLp06QVQ-573">
          <mxGeometry y="94" width="359.5" height="26" as="geometry" />
        </mxCell>
        <mxCell id="F7tQ2r_eFeR0tLp06QVQ-679" value="+ canceled_order_list: List&amp;lt;SOrder&amp;gt; - 已取消订单列表" style="text;strokeColor=none;fillColor=none;align=left;verticalAlign=top;spacingLeft=4;spacingRight=4;overflow=hidden;rotatable=0;points=[[0,0.5],[1,0.5]];portConstraint=eastwest;whiteSpace=wrap;html=1;" vertex="1" parent="F7tQ2r_eFeR0tLp06QVQ-573">
          <mxGeometry y="120" width="359.5" height="26" as="geometry" />
        </mxCell>
        <mxCell id="F7tQ2r_eFeR0tLp06QVQ-678" value="+ sold_order_list: List&amp;lt;SOrder&amp;gt; - 已卖出订单列表" style="text;strokeColor=none;fillColor=none;align=left;verticalAlign=top;spacingLeft=4;spacingRight=4;overflow=hidden;rotatable=0;points=[[0,0.5],[1,0.5]];portConstraint=eastwest;whiteSpace=wrap;html=1;" vertex="1" parent="F7tQ2r_eFeR0tLp06QVQ-573">
          <mxGeometry y="146" width="359.5" height="26" as="geometry" />
        </mxCell>
        <mxCell id="F7tQ2r_eFeR0tLp06QVQ-677" value="+ bought_order_list: List&amp;lt;SOrder&amp;gt; - 已买入订单列表" style="text;strokeColor=none;fillColor=none;align=left;verticalAlign=top;spacingLeft=4;spacingRight=4;overflow=hidden;rotatable=0;points=[[0,0.5],[1,0.5]];portConstraint=eastwest;whiteSpace=wrap;html=1;" vertex="1" parent="F7tQ2r_eFeR0tLp06QVQ-573">
          <mxGeometry y="172" width="359.5" height="26" as="geometry" />
        </mxCell>
        <mxCell id="F7tQ2r_eFeR0tLp06QVQ-687" value="+ order_index: Map&amp;lt;UUID, &amp;amp;SOrder&amp;gt; - 订单索引器" style="text;strokeColor=none;fillColor=none;align=left;verticalAlign=top;spacingLeft=4;spacingRight=4;overflow=hidden;rotatable=0;points=[[0,0.5],[1,0.5]];portConstraint=eastwest;whiteSpace=wrap;html=1;" vertex="1" parent="F7tQ2r_eFeR0tLp06QVQ-573">
          <mxGeometry y="198" width="359.5" height="26" as="geometry" />
        </mxCell>
        <mxCell id="F7tQ2r_eFeR0tLp06QVQ-576" value="" style="line;strokeWidth=1;fillColor=none;align=left;verticalAlign=middle;spacingTop=-1;spacingLeft=3;spacingRight=3;rotatable=0;labelPosition=right;points=[];portConstraint=eastwest;strokeColor=inherit;" vertex="1" parent="F7tQ2r_eFeR0tLp06QVQ-573">
          <mxGeometry y="224" width="359.5" height="8" as="geometry" />
        </mxCell>
        <mxCell id="F7tQ2r_eFeR0tLp06QVQ-577" value="+ method(type): type" style="text;strokeColor=none;fillColor=none;align=left;verticalAlign=top;spacingLeft=4;spacingRight=4;overflow=hidden;rotatable=0;points=[[0,0.5],[1,0.5]];portConstraint=eastwest;whiteSpace=wrap;html=1;" vertex="1" parent="F7tQ2r_eFeR0tLp06QVQ-573">
          <mxGeometry y="232" width="359.5" height="26" as="geometry" />
        </mxCell>
        <mxCell id="F7tQ2r_eFeR0tLp06QVQ-641" style="rounded=0;orthogonalLoop=1;jettySize=auto;html=1;" edge="1" parent="1" source="F7tQ2r_eFeR0tLp06QVQ-601" target="F7tQ2r_eFeR0tLp06QVQ-637">
          <mxGeometry relative="1" as="geometry">
            <mxPoint x="1755.5445292620861" y="2211" as="targetPoint" />
          </mxGeometry>
        </mxCell>
        <mxCell id="F7tQ2r_eFeR0tLp06QVQ-601" value="&lt;b style=&quot;font-size: 14px;&quot;&gt;SStrategyTradingPair 策略交易对&lt;/b&gt;" style="swimlane;fontStyle=1;align=center;verticalAlign=top;childLayout=stackLayout;horizontal=1;startSize=26;horizontalStack=0;resizeParent=1;resizeParentMax=0;resizeLast=0;collapsible=1;marginBottom=0;whiteSpace=wrap;html=1;fillColor=#dae8fc;strokeColor=#6c8ebf;" vertex="1" parent="1">
          <mxGeometry x="1600" y="1800" width="360" height="274" as="geometry" />
        </mxCell>
        <mxCell id="F7tQ2r_eFeR0tLp06QVQ-602" value="+ type: ETradingPairType" style="text;strokeColor=none;fillColor=none;align=left;verticalAlign=top;spacingLeft=4;spacingRight=4;overflow=hidden;rotatable=0;points=[[0,0.5],[1,0.5]];portConstraint=eastwest;whiteSpace=wrap;html=1;" vertex="1" parent="F7tQ2r_eFeR0tLp06QVQ-601">
          <mxGeometry y="26" width="360" height="26" as="geometry" />
        </mxCell>
        <mxCell id="F7tQ2r_eFeR0tLp06QVQ-603" value="+ base_currency: EAssertType - 基础货币 比如BTC" style="text;strokeColor=none;fillColor=none;align=left;verticalAlign=top;spacingLeft=4;spacingRight=4;overflow=hidden;rotatable=0;points=[[0,0.5],[1,0.5]];portConstraint=eastwest;whiteSpace=wrap;html=1;" vertex="1" parent="F7tQ2r_eFeR0tLp06QVQ-601">
          <mxGeometry y="52" width="360" height="26" as="geometry" />
        </mxCell>
        <mxCell id="F7tQ2r_eFeR0tLp06QVQ-604" value="+ quote_currency: EAssertType - 计价货币 比如USDT" style="text;strokeColor=none;fillColor=none;align=left;verticalAlign=top;spacingLeft=4;spacingRight=4;overflow=hidden;rotatable=0;points=[[0,0.5],[1,0.5]];portConstraint=eastwest;whiteSpace=wrap;html=1;" vertex="1" parent="F7tQ2r_eFeR0tLp06QVQ-601">
          <mxGeometry y="78" width="360" height="26" as="geometry" />
        </mxCell>
        <mxCell id="F7tQ2r_eFeR0tLp06QVQ-643" value="+ kline_data: SKlineUnitData - 单根k线数据" style="text;strokeColor=none;fillColor=none;align=left;verticalAlign=top;spacingLeft=4;spacingRight=4;overflow=hidden;rotatable=0;points=[[0,0.5],[1,0.5]];portConstraint=eastwest;whiteSpace=wrap;html=1;" vertex="1" parent="F7tQ2r_eFeR0tLp06QVQ-601">
          <mxGeometry y="104" width="360" height="26" as="geometry" />
        </mxCell>
        <mxCell id="F7tQ2r_eFeR0tLp06QVQ-607" value="+ funding_rate_data: Option&amp;lt;SFundingRateUnitData&amp;gt; - 实时资金费率数据" style="text;strokeColor=none;fillColor=none;align=left;verticalAlign=top;spacingLeft=4;spacingRight=4;overflow=hidden;rotatable=0;points=[[0,0.5],[1,0.5]];portConstraint=eastwest;whiteSpace=wrap;html=1;" vertex="1" parent="F7tQ2r_eFeR0tLp06QVQ-601">
          <mxGeometry y="130" width="360" height="34" as="geometry" />
        </mxCell>
        <mxCell id="F7tQ2r_eFeR0tLp06QVQ-623" value="+ inner_order_manager: SStrategyOrderManager - 内部订单管理器" style="text;strokeColor=none;fillColor=none;align=left;verticalAlign=top;spacingLeft=4;spacingRight=4;overflow=hidden;rotatable=0;points=[[0,0.5],[1,0.5]];portConstraint=eastwest;whiteSpace=wrap;html=1;" vertex="1" parent="F7tQ2r_eFeR0tLp06QVQ-601">
          <mxGeometry y="164" width="360" height="36" as="geometry" />
        </mxCell>
        <mxCell id="F7tQ2r_eFeR0tLp06QVQ-624" value="+ outer_order_manager: SStrategyOrderManager - 外部订单管理器" style="text;strokeColor=none;fillColor=none;align=left;verticalAlign=top;spacingLeft=4;spacingRight=4;overflow=hidden;rotatable=0;points=[[0,0.5],[1,0.5]];portConstraint=eastwest;whiteSpace=wrap;html=1;" vertex="1" parent="F7tQ2r_eFeR0tLp06QVQ-601">
          <mxGeometry y="200" width="360" height="40" as="geometry" />
        </mxCell>
        <mxCell id="F7tQ2r_eFeR0tLp06QVQ-608" value="" style="line;strokeWidth=1;fillColor=none;align=left;verticalAlign=middle;spacingTop=-1;spacingLeft=3;spacingRight=3;rotatable=0;labelPosition=right;points=[];portConstraint=eastwest;strokeColor=inherit;" vertex="1" parent="F7tQ2r_eFeR0tLp06QVQ-601">
          <mxGeometry y="240" width="360" height="8" as="geometry" />
        </mxCell>
        <mxCell id="F7tQ2r_eFeR0tLp06QVQ-609" value="+ init(ETradingPairType): Self" style="text;strokeColor=none;fillColor=none;align=left;verticalAlign=top;spacingLeft=4;spacingRight=4;overflow=hidden;rotatable=0;points=[[0,0.5],[1,0.5]];portConstraint=eastwest;whiteSpace=wrap;html=1;" vertex="1" parent="F7tQ2r_eFeR0tLp06QVQ-601">
          <mxGeometry y="248" width="360" height="26" as="geometry" />
        </mxCell>
        <mxCell id="F7tQ2r_eFeR0tLp06QVQ-635" style="rounded=0;orthogonalLoop=1;jettySize=auto;html=1;" edge="1" parent="1" source="F7tQ2r_eFeR0tLp06QVQ-630" target="F7tQ2r_eFeR0tLp06QVQ-573">
          <mxGeometry relative="1" as="geometry" />
        </mxCell>
        <mxCell id="F7tQ2r_eFeR0tLp06QVQ-725" style="rounded=0;orthogonalLoop=1;jettySize=auto;html=1;" edge="1" parent="1" source="F7tQ2r_eFeR0tLp06QVQ-630" target="F7tQ2r_eFeR0tLp06QVQ-201">
          <mxGeometry relative="1" as="geometry" />
        </mxCell>
        <mxCell id="F7tQ2r_eFeR0tLp06QVQ-630" value="&lt;b style=&quot;font-size: 14px;&quot;&gt;EOrderDirection 持仓方向&lt;/b&gt;" style="swimlane;fontStyle=1;align=center;verticalAlign=top;childLayout=stackLayout;horizontal=1;startSize=26;horizontalStack=0;resizeParent=1;resizeParentMax=0;resizeLast=0;collapsible=1;marginBottom=0;whiteSpace=wrap;html=1;fillColor=#d5e8d4;strokeColor=#82b366;" vertex="1" parent="1">
          <mxGeometry x="2080" y="1561.88" width="240" height="86" as="geometry" />
        </mxCell>
        <mxCell id="F7tQ2r_eFeR0tLp06QVQ-631" value="+ Long - 做多" style="text;strokeColor=none;fillColor=none;align=left;verticalAlign=top;spacingLeft=4;spacingRight=4;overflow=hidden;rotatable=0;points=[[0,0.5],[1,0.5]];portConstraint=eastwest;whiteSpace=wrap;html=1;" vertex="1" parent="F7tQ2r_eFeR0tLp06QVQ-630">
          <mxGeometry y="26" width="240" height="26" as="geometry" />
        </mxCell>
        <mxCell id="F7tQ2r_eFeR0tLp06QVQ-632" value="+ Short - 做空" style="text;strokeColor=none;fillColor=none;align=left;verticalAlign=top;spacingLeft=4;spacingRight=4;overflow=hidden;rotatable=0;points=[[0,0.5],[1,0.5]];portConstraint=eastwest;whiteSpace=wrap;html=1;" vertex="1" parent="F7tQ2r_eFeR0tLp06QVQ-630">
          <mxGeometry y="52" width="240" height="26" as="geometry" />
        </mxCell>
        <mxCell id="F7tQ2r_eFeR0tLp06QVQ-633" value="" style="line;strokeWidth=1;fillColor=none;align=left;verticalAlign=middle;spacingTop=-1;spacingLeft=3;spacingRight=3;rotatable=0;labelPosition=right;points=[];portConstraint=eastwest;strokeColor=inherit;" vertex="1" parent="F7tQ2r_eFeR0tLp06QVQ-630">
          <mxGeometry y="78" width="240" height="8" as="geometry" />
        </mxCell>
        <mxCell id="F7tQ2r_eFeR0tLp06QVQ-645" style="rounded=0;orthogonalLoop=1;jettySize=auto;html=1;" edge="1" parent="1" source="F7tQ2r_eFeR0tLp06QVQ-637" target="F7tQ2r_eFeR0tLp06QVQ-159">
          <mxGeometry relative="1" as="geometry" />
        </mxCell>
        <mxCell id="F7tQ2r_eFeR0tLp06QVQ-637" value="&lt;b style=&quot;font-size: 14px;&quot;&gt;S&lt;/b&gt;&lt;b style=&quot;font-size: 14px;&quot;&gt;Strategy&lt;/b&gt;&lt;b style=&quot;font-size: 14px;&quot;&gt;TradingPairManager 策略交易对管理器&lt;/b&gt;" style="swimlane;fontStyle=1;align=center;verticalAlign=top;childLayout=stackLayout;horizontal=1;startSize=26;horizontalStack=0;resizeParent=1;resizeParentMax=0;resizeLast=0;collapsible=1;marginBottom=0;whiteSpace=wrap;html=1;fillColor=#dae8fc;strokeColor=#6c8ebf;" vertex="1" parent="1">
          <mxGeometry x="1600" y="2119" width="359" height="94" as="geometry" />
        </mxCell>
        <mxCell id="F7tQ2r_eFeR0tLp06QVQ-639" value="+ trading_pair_map: HashMap&amp;lt;ETradingPairType, SStrategyTradingPair&amp;gt; - 交易对" style="text;strokeColor=none;fillColor=none;align=left;verticalAlign=top;spacingLeft=4;spacingRight=4;overflow=hidden;rotatable=0;points=[[0,0.5],[1,0.5]];portConstraint=eastwest;whiteSpace=wrap;html=1;" vertex="1" parent="F7tQ2r_eFeR0tLp06QVQ-637">
          <mxGeometry y="26" width="359" height="34" as="geometry" />
        </mxCell>
        <mxCell id="F7tQ2r_eFeR0tLp06QVQ-638" value="" style="line;strokeWidth=1;fillColor=none;align=left;verticalAlign=middle;spacingTop=-1;spacingLeft=3;spacingRight=3;rotatable=0;labelPosition=right;points=[];portConstraint=eastwest;strokeColor=inherit;" vertex="1" parent="F7tQ2r_eFeR0tLp06QVQ-637">
          <mxGeometry y="60" width="359" height="8" as="geometry" />
        </mxCell>
        <mxCell id="F7tQ2r_eFeR0tLp06QVQ-640" value="+ method(type): type" style="text;strokeColor=none;fillColor=none;align=left;verticalAlign=top;spacingLeft=4;spacingRight=4;overflow=hidden;rotatable=0;points=[[0,0.5],[1,0.5]];portConstraint=eastwest;whiteSpace=wrap;html=1;" vertex="1" parent="F7tQ2r_eFeR0tLp06QVQ-637">
          <mxGeometry y="68" width="359" height="26" as="geometry" />
        </mxCell>
        <mxCell id="F7tQ2r_eFeR0tLp06QVQ-685" style="rounded=0;orthogonalLoop=1;jettySize=auto;html=1;jumpStyle=arc;" edge="1" parent="1" source="F7tQ2r_eFeR0tLp06QVQ-681" target="F7tQ2r_eFeR0tLp06QVQ-197">
          <mxGeometry relative="1" as="geometry" />
        </mxCell>
        <mxCell id="F7tQ2r_eFeR0tLp06QVQ-709" style="rounded=0;orthogonalLoop=1;jettySize=auto;html=1;jumpStyle=arc;" edge="1" parent="1" source="F7tQ2r_eFeR0tLp06QVQ-699" target="F7tQ2r_eFeR0tLp06QVQ-197">
          <mxGeometry relative="1" as="geometry" />
        </mxCell>
        <mxCell id="F7tQ2r_eFeR0tLp06QVQ-699" value="&lt;b style=&quot;font-size: 14px;&quot;&gt;EOrderUpdate 订单更新&lt;/b&gt;" style="swimlane;fontStyle=1;align=center;verticalAlign=top;childLayout=stackLayout;horizontal=1;startSize=26;horizontalStack=0;resizeParent=1;resizeParentMax=0;resizeLast=0;collapsible=1;marginBottom=0;whiteSpace=wrap;html=1;fillColor=#d5e8d4;strokeColor=#82b366;" vertex="1" parent="1">
          <mxGeometry x="-479.5" y="1479" width="200" height="144" as="geometry" />
        </mxCell>
        <mxCell id="F7tQ2r_eFeR0tLp06QVQ-700" value="+ Price(new_price: Decimal)" style="text;strokeColor=none;fillColor=none;align=left;verticalAlign=top;spacingLeft=4;spacingRight=4;overflow=hidden;rotatable=0;points=[[0,0.5],[1,0.5]];portConstraint=eastwest;whiteSpace=wrap;html=1;" vertex="1" parent="F7tQ2r_eFeR0tLp06QVQ-699">
          <mxGeometry y="26" width="200" height="26" as="geometry" />
        </mxCell>
        <mxCell id="F7tQ2r_eFeR0tLp06QVQ-706" value="+ Quantity(new_quantity: Decimal)" style="text;strokeColor=none;fillColor=none;align=left;verticalAlign=top;spacingLeft=4;spacingRight=4;overflow=hidden;rotatable=0;points=[[0,0.5],[1,0.5]];portConstraint=eastwest;whiteSpace=wrap;html=1;" vertex="1" parent="F7tQ2r_eFeR0tLp06QVQ-699">
          <mxGeometry y="52" width="200" height="26" as="geometry" />
        </mxCell>
        <mxCell id="F7tQ2r_eFeR0tLp06QVQ-911" value="+ PriceAndQuantity(new_price: Decimal, new_quantity: Decimal)" style="text;strokeColor=none;fillColor=none;align=left;verticalAlign=top;spacingLeft=4;spacingRight=4;overflow=hidden;rotatable=0;points=[[0,0.5],[1,0.5]];portConstraint=eastwest;whiteSpace=wrap;html=1;" vertex="1" parent="F7tQ2r_eFeR0tLp06QVQ-699">
          <mxGeometry y="78" width="200" height="32" as="geometry" />
        </mxCell>
        <mxCell id="F7tQ2r_eFeR0tLp06QVQ-707" value="+ State(new_state: EOrderState)" style="text;strokeColor=none;fillColor=none;align=left;verticalAlign=top;spacingLeft=4;spacingRight=4;overflow=hidden;rotatable=0;points=[[0,0.5],[1,0.5]];portConstraint=eastwest;whiteSpace=wrap;html=1;" vertex="1" parent="F7tQ2r_eFeR0tLp06QVQ-699">
          <mxGeometry y="110" width="200" height="26" as="geometry" />
        </mxCell>
        <mxCell id="F7tQ2r_eFeR0tLp06QVQ-702" value="" style="line;strokeWidth=1;fillColor=none;align=left;verticalAlign=middle;spacingTop=-1;spacingLeft=3;spacingRight=3;rotatable=0;labelPosition=right;points=[];portConstraint=eastwest;strokeColor=inherit;" vertex="1" parent="F7tQ2r_eFeR0tLp06QVQ-699">
          <mxGeometry y="136" width="200" height="8" as="geometry" />
        </mxCell>
        <mxCell id="F7tQ2r_eFeR0tLp06QVQ-776" value="&lt;b style=&quot;font-size: 14px;&quot;&gt;SDbClickhouse 数据库实例&lt;/b&gt;" style="swimlane;fontStyle=1;align=center;verticalAlign=top;childLayout=stackLayout;horizontal=1;startSize=26;horizontalStack=0;resizeParent=1;resizeParentMax=0;resizeLast=0;collapsible=1;marginBottom=0;whiteSpace=wrap;html=1;fillColor=#dae8fc;strokeColor=#6c8ebf;" vertex="1" parent="1">
          <mxGeometry x="-2400" y="1800" width="280" height="60" as="geometry" />
        </mxCell>
        <mxCell id="F7tQ2r_eFeR0tLp06QVQ-777" value="+ client" style="text;strokeColor=none;fillColor=none;align=left;verticalAlign=top;spacingLeft=4;spacingRight=4;overflow=hidden;rotatable=0;points=[[0,0.5],[1,0.5]];portConstraint=eastwest;whiteSpace=wrap;html=1;" vertex="1" parent="F7tQ2r_eFeR0tLp06QVQ-776">
          <mxGeometry y="26" width="280" height="26" as="geometry" />
        </mxCell>
        <mxCell id="F7tQ2r_eFeR0tLp06QVQ-778" value="" style="line;strokeWidth=1;fillColor=none;align=left;verticalAlign=middle;spacingTop=-1;spacingLeft=3;spacingRight=3;rotatable=0;labelPosition=right;points=[];portConstraint=eastwest;strokeColor=inherit;" vertex="1" parent="F7tQ2r_eFeR0tLp06QVQ-776">
          <mxGeometry y="52" width="280" height="8" as="geometry" />
        </mxCell>
        <mxCell id="F7tQ2r_eFeR0tLp06QVQ-789" style="rounded=0;orthogonalLoop=1;jettySize=auto;html=1;" edge="1" parent="1" source="F7tQ2r_eFeR0tLp06QVQ-776" target="F7tQ2r_eFeR0tLp06QVQ-238">
          <mxGeometry relative="1" as="geometry">
            <mxPoint x="-1884.3139534883721" y="1900" as="sourcePoint" />
          </mxGeometry>
        </mxCell>
        <mxCell id="F7tQ2r_eFeR0tLp06QVQ-480" style="rounded=0;orthogonalLoop=1;jettySize=auto;html=1;" edge="1" parent="1" source="F7tQ2r_eFeR0tLp06QVQ-219" target="F7tQ2r_eFeR0tLp06QVQ-453">
          <mxGeometry relative="1" as="geometry" />
        </mxCell>
        <mxCell id="F7tQ2r_eFeR0tLp06QVQ-219" value="&lt;b style=&quot;font-size: 14px;&quot;&gt;&amp;nbsp;SKlineUnitData K线单根数据&lt;/b&gt;" style="swimlane;fontStyle=1;align=center;verticalAlign=top;childLayout=stackLayout;horizontal=1;startSize=26;horizontalStack=0;resizeParent=1;resizeParentMax=0;resizeLast=0;collapsible=1;marginBottom=0;whiteSpace=wrap;html=1;fillColor=#d5e8d4;strokeColor=#82b366;" vertex="1" parent="1">
          <mxGeometry x="-2400" y="1278" width="240" height="216" as="geometry" />
        </mxCell>
        <mxCell id="F7tQ2r_eFeR0tLp06QVQ-220" value="+ open_time: Date - 开盘时间" style="text;strokeColor=none;fillColor=none;align=left;verticalAlign=top;spacingLeft=4;spacingRight=4;overflow=hidden;rotatable=0;points=[[0,0.5],[1,0.5]];portConstraint=eastwest;whiteSpace=wrap;html=1;" vertex="1" parent="F7tQ2r_eFeR0tLp06QVQ-219">
          <mxGeometry y="26" width="240" height="26" as="geometry" />
        </mxCell>
        <mxCell id="F7tQ2r_eFeR0tLp06QVQ-221" value="+ close_time: Date&amp;nbsp;- 收盘时间" style="text;strokeColor=none;fillColor=none;align=left;verticalAlign=top;spacingLeft=4;spacingRight=4;overflow=hidden;rotatable=0;points=[[0,0.5],[1,0.5]];portConstraint=eastwest;whiteSpace=wrap;html=1;" vertex="1" parent="F7tQ2r_eFeR0tLp06QVQ-219">
          <mxGeometry y="52" width="240" height="26" as="geometry" />
        </mxCell>
        <mxCell id="F7tQ2r_eFeR0tLp06QVQ-222" value="+ open_price: Decimal&amp;nbsp;- 开盘价" style="text;strokeColor=none;fillColor=none;align=left;verticalAlign=top;spacingLeft=4;spacingRight=4;overflow=hidden;rotatable=0;points=[[0,0.5],[1,0.5]];portConstraint=eastwest;whiteSpace=wrap;html=1;" vertex="1" parent="F7tQ2r_eFeR0tLp06QVQ-219">
          <mxGeometry y="78" width="240" height="26" as="geometry" />
        </mxCell>
        <mxCell id="F7tQ2r_eFeR0tLp06QVQ-223" value="+ close_price: Decimal&amp;nbsp;- 收盘价" style="text;strokeColor=none;fillColor=none;align=left;verticalAlign=top;spacingLeft=4;spacingRight=4;overflow=hidden;rotatable=0;points=[[0,0.5],[1,0.5]];portConstraint=eastwest;whiteSpace=wrap;html=1;" vertex="1" parent="F7tQ2r_eFeR0tLp06QVQ-219">
          <mxGeometry y="104" width="240" height="26" as="geometry" />
        </mxCell>
        <mxCell id="F7tQ2r_eFeR0tLp06QVQ-224" value="+ high_price: Decimal&amp;nbsp;- 最高价" style="text;strokeColor=none;fillColor=none;align=left;verticalAlign=top;spacingLeft=4;spacingRight=4;overflow=hidden;rotatable=0;points=[[0,0.5],[1,0.5]];portConstraint=eastwest;whiteSpace=wrap;html=1;" vertex="1" parent="F7tQ2r_eFeR0tLp06QVQ-219">
          <mxGeometry y="130" width="240" height="26" as="geometry" />
        </mxCell>
        <mxCell id="F7tQ2r_eFeR0tLp06QVQ-225" value="+ low_price: Decimal&amp;nbsp;- 最低价" style="text;strokeColor=none;fillColor=none;align=left;verticalAlign=top;spacingLeft=4;spacingRight=4;overflow=hidden;rotatable=0;points=[[0,0.5],[1,0.5]];portConstraint=eastwest;whiteSpace=wrap;html=1;" vertex="1" parent="F7tQ2r_eFeR0tLp06QVQ-219">
          <mxGeometry y="156" width="240" height="26" as="geometry" />
        </mxCell>
        <mxCell id="F7tQ2r_eFeR0tLp06QVQ-227" value="+ volume: Decimal&amp;nbsp;- 交易量" style="text;strokeColor=none;fillColor=none;align=left;verticalAlign=top;spacingLeft=4;spacingRight=4;overflow=hidden;rotatable=0;points=[[0,0.5],[1,0.5]];portConstraint=eastwest;whiteSpace=wrap;html=1;" vertex="1" parent="F7tQ2r_eFeR0tLp06QVQ-219">
          <mxGeometry y="182" width="240" height="26" as="geometry" />
        </mxCell>
        <mxCell id="F7tQ2r_eFeR0tLp06QVQ-226" value="" style="line;strokeWidth=1;fillColor=none;align=left;verticalAlign=middle;spacingTop=-1;spacingLeft=3;spacingRight=3;rotatable=0;labelPosition=right;points=[];portConstraint=eastwest;strokeColor=inherit;" vertex="1" parent="F7tQ2r_eFeR0tLp06QVQ-219">
          <mxGeometry y="208" width="240" height="8" as="geometry" />
        </mxCell>
        <mxCell id="F7tQ2r_eFeR0tLp06QVQ-481" style="rounded=0;orthogonalLoop=1;jettySize=auto;html=1;" edge="1" parent="1" source="F7tQ2r_eFeR0tLp06QVQ-462" target="F7tQ2r_eFeR0tLp06QVQ-471">
          <mxGeometry relative="1" as="geometry" />
        </mxCell>
        <mxCell id="F7tQ2r_eFeR0tLp06QVQ-462" value="&lt;b style=&quot;font-size: 14px;&quot;&gt;&amp;nbsp;SFundingRateUnitData 资金费率定时数据&lt;/b&gt;" style="swimlane;fontStyle=1;align=center;verticalAlign=top;childLayout=stackLayout;horizontal=1;startSize=26;horizontalStack=0;resizeParent=1;resizeParentMax=0;resizeLast=0;collapsible=1;marginBottom=0;whiteSpace=wrap;html=1;fillColor=#d5e8d4;strokeColor=#82b366;" vertex="1" parent="1">
          <mxGeometry x="-2400" y="1556" width="280" height="108" as="geometry" />
        </mxCell>
        <mxCell id="F7tQ2r_eFeR0tLp06QVQ-463" value="+ time:Date - 开盘时间" style="text;strokeColor=none;fillColor=none;align=left;verticalAlign=top;spacingLeft=4;spacingRight=4;overflow=hidden;rotatable=0;points=[[0,0.5],[1,0.5]];portConstraint=eastwest;whiteSpace=wrap;html=1;" vertex="1" parent="F7tQ2r_eFeR0tLp06QVQ-462">
          <mxGeometry y="26" width="280" height="26" as="geometry" />
        </mxCell>
        <mxCell id="F7tQ2r_eFeR0tLp06QVQ-464" value="+ funding_rate: Decimal&amp;nbsp;- 资金费率(正值表示多头支付给空头，反之亦然。)" style="text;strokeColor=none;fillColor=none;align=left;verticalAlign=top;spacingLeft=4;spacingRight=4;overflow=hidden;rotatable=0;points=[[0,0.5],[1,0.5]];portConstraint=eastwest;whiteSpace=wrap;html=1;" vertex="1" parent="F7tQ2r_eFeR0tLp06QVQ-462">
          <mxGeometry y="52" width="280" height="48" as="geometry" />
        </mxCell>
        <mxCell id="F7tQ2r_eFeR0tLp06QVQ-470" value="" style="line;strokeWidth=1;fillColor=none;align=left;verticalAlign=middle;spacingTop=-1;spacingLeft=3;spacingRight=3;rotatable=0;labelPosition=right;points=[];portConstraint=eastwest;strokeColor=inherit;" vertex="1" parent="F7tQ2r_eFeR0tLp06QVQ-462">
          <mxGeometry y="100" width="280" height="8" as="geometry" />
        </mxCell>
        <mxCell id="F7tQ2r_eFeR0tLp06QVQ-140" value="时序图" style="rounded=1;whiteSpace=wrap;html=1;fillColor=none;strokeColor=#6c8ebf;fontColor=#000000;fontSize=18;fontFamily=Helvetica;verticalAlign=top;dashed=1;strokeWidth=3;fontStyle=1;movable=1;resizable=1;rotatable=1;deletable=1;editable=1;locked=0;connectable=1;" vertex="1" parent="1">
          <mxGeometry x="159.5" y="40" width="396.75" height="420" as="geometry" />
        </mxCell>
        <mxCell id="F7tQ2r_eFeR0tLp06QVQ-118" value="" style="html=1;points=[[0,0,0,0,5],[0,1,0,0,-5],[1,0,0,0,5],[1,1,0,0,-5]];perimeter=orthogonalPerimeter;outlineConnect=0;targetShapes=umlLifeline;portConstraint=eastwest;newEdgeStyle={&quot;curved&quot;:0,&quot;rounded&quot;:0};" vertex="1" parent="1">
          <mxGeometry x="460.37" y="160" width="10" height="280" as="geometry" />
        </mxCell>
        <mxCell id="F7tQ2r_eFeR0tLp06QVQ-119" value="" style="endArrow=block;endFill=1;html=1;edgeStyle=orthogonalEdgeStyle;align=left;verticalAlign=top;rounded=0;" edge="1" parent="1">
          <mxGeometry x="-1" relative="1" as="geometry">
            <mxPoint x="255.36999999999978" y="240" as="sourcePoint" />
            <mxPoint x="460.3699999999998" y="240" as="targetPoint" />
            <Array as="points">
              <mxPoint x="415.37" y="240" />
              <mxPoint x="415.37" y="240" />
            </Array>
          </mxGeometry>
        </mxCell>
        <mxCell id="F7tQ2r_eFeR0tLp06QVQ-120" value="3. 数据传输（K线、订单、资产）" style="edgeLabel;resizable=0;html=1;align=left;verticalAlign=bottom;" connectable="0" vertex="1" parent="F7tQ2r_eFeR0tLp06QVQ-119">
          <mxGeometry x="-1" relative="1" as="geometry" />
        </mxCell>
        <mxCell id="F7tQ2r_eFeR0tLp06QVQ-122" value="策略接口" style="html=1;dropTarget=0;whiteSpace=wrap;" vertex="1" parent="1">
          <mxGeometry x="396.25" y="80" width="120" height="60" as="geometry" />
        </mxCell>
        <mxCell id="F7tQ2r_eFeR0tLp06QVQ-123" value="" style="shape=module;jettyWidth=8;jettyHeight=4;" vertex="1" parent="F7tQ2r_eFeR0tLp06QVQ-122">
          <mxGeometry x="1" width="20" height="20" relative="1" as="geometry">
            <mxPoint x="-27" y="7" as="offset" />
          </mxGeometry>
        </mxCell>
        <mxCell id="F7tQ2r_eFeR0tLp06QVQ-124" value="策略执行器" style="html=1;dropTarget=0;whiteSpace=wrap;verticalAlign=middle;" vertex="1" parent="1">
          <mxGeometry x="195.75" y="80" width="120" height="60" as="geometry" />
        </mxCell>
        <mxCell id="F7tQ2r_eFeR0tLp06QVQ-125" value="" style="shape=module;jettyWidth=8;jettyHeight=4;" vertex="1" parent="F7tQ2r_eFeR0tLp06QVQ-124">
          <mxGeometry x="1" width="20" height="20" relative="1" as="geometry">
            <mxPoint x="-27" y="7" as="offset" />
          </mxGeometry>
        </mxCell>
        <mxCell id="F7tQ2r_eFeR0tLp06QVQ-126" value="" style="html=1;points=[[0,0,0,0,5],[0,1,0,0,-5],[1,0,0,0,5],[1,1,0,0,-5]];perimeter=orthogonalPerimeter;outlineConnect=0;targetShapes=umlLifeline;portConstraint=eastwest;newEdgeStyle={&quot;curved&quot;:0,&quot;rounded&quot;:0};" vertex="1" parent="1">
          <mxGeometry x="245.37" y="160" width="10" height="280" as="geometry" />
        </mxCell>
        <mxCell id="F7tQ2r_eFeR0tLp06QVQ-129" value="1. K线数据同步" style="html=1;align=left;spacingLeft=2;endArrow=block;rounded=0;edgeStyle=orthogonalEdgeStyle;curved=0;rounded=0;exitX=1;exitY=0;exitDx=0;exitDy=5;exitPerimeter=0;" edge="1" target="F7tQ2r_eFeR0tLp06QVQ-126" parent="1" source="F7tQ2r_eFeR0tLp06QVQ-126">
          <mxGeometry relative="1" as="geometry">
            <mxPoint x="325.37" y="470" as="sourcePoint" />
            <Array as="points">
              <mxPoint x="275.37" y="165" />
              <mxPoint x="275.37" y="180" />
            </Array>
          </mxGeometry>
        </mxCell>
        <mxCell id="F7tQ2r_eFeR0tLp06QVQ-133" value="4. 被动策略（K线、订单、资产）" style="html=1;align=left;spacingLeft=2;endArrow=block;rounded=0;edgeStyle=orthogonalEdgeStyle;curved=0;rounded=0;" edge="1" parent="1">
          <mxGeometry x="0.0999" y="-170" relative="1" as="geometry">
            <mxPoint x="460.3699999999998" y="240" as="sourcePoint" />
            <Array as="points">
              <mxPoint x="460.37" y="250" />
              <mxPoint x="435.37" y="250" />
              <mxPoint x="435.37" y="270" />
            </Array>
            <mxPoint x="460.3699999999998" y="270" as="targetPoint" />
            <mxPoint as="offset" />
          </mxGeometry>
        </mxCell>
        <mxCell id="F7tQ2r_eFeR0tLp06QVQ-134" value="2. 订单成交&amp;amp;手续费/资金费率结算" style="html=1;align=left;spacingLeft=2;endArrow=block;rounded=0;edgeStyle=orthogonalEdgeStyle;curved=0;rounded=0;exitX=1;exitY=0;exitDx=0;exitDy=5;exitPerimeter=0;" edge="1" parent="1">
          <mxGeometry relative="1" as="geometry">
            <mxPoint x="255.37" y="192.5" as="sourcePoint" />
            <Array as="points">
              <mxPoint x="275.37" y="192.5" />
              <mxPoint x="275.37" y="207.5" />
            </Array>
            <mxPoint x="255.37" y="207.5" as="targetPoint" />
          </mxGeometry>
        </mxCell>
        <mxCell id="F7tQ2r_eFeR0tLp06QVQ-135" value="5. 订单逻辑计算" style="html=1;align=left;spacingLeft=2;endArrow=block;rounded=0;edgeStyle=orthogonalEdgeStyle;curved=0;rounded=0;" edge="1" parent="1">
          <mxGeometry x="0.1249" y="-90" relative="1" as="geometry">
            <mxPoint x="460.3699999999998" y="270" as="sourcePoint" />
            <Array as="points">
              <mxPoint x="460.37" y="280" />
              <mxPoint x="435.37" y="280" />
              <mxPoint x="435.37" y="300" />
            </Array>
            <mxPoint x="460.3699999999998" y="300" as="targetPoint" />
            <mxPoint as="offset" />
          </mxGeometry>
        </mxCell>
        <mxCell id="F7tQ2r_eFeR0tLp06QVQ-138" value="" style="endArrow=none;endFill=0;html=1;edgeStyle=orthogonalEdgeStyle;align=left;verticalAlign=top;rounded=0;startArrow=classic;startFill=1;" edge="1" parent="1">
          <mxGeometry x="-1" relative="1" as="geometry">
            <mxPoint x="255.36999999999978" y="320" as="sourcePoint" />
            <mxPoint x="460.3699999999998" y="320" as="targetPoint" />
            <Array as="points">
              <mxPoint x="415.37" y="320" />
              <mxPoint x="415.37" y="320" />
            </Array>
          </mxGeometry>
        </mxCell>
        <mxCell id="F7tQ2r_eFeR0tLp06QVQ-139" value="6. 主动策略（挂单、撤单、修改订单）" style="edgeLabel;resizable=0;html=1;align=left;verticalAlign=bottom;" connectable="0" vertex="1" parent="F7tQ2r_eFeR0tLp06QVQ-138">
          <mxGeometry x="-1" relative="1" as="geometry">
            <mxPoint x="13" as="offset" />
          </mxGeometry>
        </mxCell>
        <mxCell id="F7tQ2r_eFeR0tLp06QVQ-852" value="9. 同步订单、资产" style="html=1;align=left;spacingLeft=2;endArrow=block;rounded=0;edgeStyle=orthogonalEdgeStyle;curved=0;rounded=0;" edge="1" parent="1">
          <mxGeometry x="0.1255" y="-95" relative="1" as="geometry">
            <mxPoint x="460.3699999999998" y="390" as="sourcePoint" />
            <Array as="points">
              <mxPoint x="460.37" y="400" />
              <mxPoint x="435.37" y="400" />
              <mxPoint x="435.37" y="420" />
            </Array>
            <mxPoint x="460.3699999999998" y="420" as="targetPoint" />
            <mxPoint as="offset" />
          </mxGeometry>
        </mxCell>
        <mxCell id="F7tQ2r_eFeR0tLp06QVQ-861" style="rounded=0;orthogonalLoop=1;jettySize=auto;html=1;" edge="1" parent="1" source="F7tQ2r_eFeR0tLp06QVQ-860" target="F7tQ2r_eFeR0tLp06QVQ-509">
          <mxGeometry relative="1" as="geometry" />
        </mxCell>
        <mxCell id="F7tQ2r_eFeR0tLp06QVQ-860" value="数据统计" style="rounded=1;whiteSpace=wrap;html=1;fillColor=none;strokeColor=#6c8ebf;fontColor=#000000;fontSize=20;fontFamily=Helvetica;verticalAlign=top;dashed=1;fontStyle=1;strokeWidth=3;" vertex="1" parent="1">
          <mxGeometry x="-1600" y="2720" width="840" height="640" as="geometry" />
        </mxCell>
        <mxCell id="F7tQ2r_eFeR0tLp06QVQ-874" value="&lt;b style=&quot;font-size: 14px;&quot;&gt;TODO&lt;/b&gt;" style="swimlane;fontStyle=1;align=center;verticalAlign=top;childLayout=stackLayout;horizontal=1;startSize=26;horizontalStack=0;resizeParent=1;resizeParentMax=0;resizeLast=0;collapsible=1;marginBottom=0;whiteSpace=wrap;html=1;fillColor=#fff2cc;strokeColor=#d6b656;" vertex="1" parent="1">
          <mxGeometry x="-1320" y="2840" width="280" height="34" as="geometry" />
        </mxCell>
        <mxCell id="F7tQ2r_eFeR0tLp06QVQ-875" value="" style="line;strokeWidth=1;fillColor=none;align=left;verticalAlign=middle;spacingTop=-1;spacingLeft=3;spacingRight=3;rotatable=0;labelPosition=right;points=[];portConstraint=eastwest;strokeColor=inherit;" vertex="1" parent="F7tQ2r_eFeR0tLp06QVQ-874">
          <mxGeometry y="26" width="280" height="8" as="geometry" />
        </mxCell>
        <mxCell id="F7tQ2r_eFeR0tLp06QVQ-896" style="rounded=0;orthogonalLoop=1;jettySize=auto;html=1;" edge="1" parent="1" source="F7tQ2r_eFeR0tLp06QVQ-879" target="F7tQ2r_eFeR0tLp06QVQ-891">
          <mxGeometry relative="1" as="geometry" />
        </mxCell>
        <mxCell id="F7tQ2r_eFeR0tLp06QVQ-879" value="&lt;b style=&quot;font-size: 14px;&quot;&gt;SAsset 资产对象&lt;/b&gt;" style="swimlane;fontStyle=1;align=center;verticalAlign=top;childLayout=stackLayout;horizontal=1;startSize=26;horizontalStack=0;resizeParent=1;resizeParentMax=0;resizeLast=0;collapsible=1;marginBottom=0;whiteSpace=wrap;html=1;fillColor=#d5e8d4;strokeColor=#82b366;" vertex="1" parent="1">
          <mxGeometry x="1040.63" y="1730" width="238.75" height="138" as="geometry" />
        </mxCell>
        <mxCell id="F7tQ2r_eFeR0tLp06QVQ-880" value="+ as_type: EAssetType - 资产类型" style="text;strokeColor=none;fillColor=none;align=left;verticalAlign=top;spacingLeft=4;spacingRight=4;overflow=hidden;rotatable=0;points=[[0,0.5],[1,0.5]];portConstraint=eastwest;whiteSpace=wrap;html=1;" vertex="1" parent="F7tQ2r_eFeR0tLp06QVQ-879">
          <mxGeometry y="26" width="238.75" height="26" as="geometry" />
        </mxCell>
        <mxCell id="F7tQ2r_eFeR0tLp06QVQ-881" value="+ balance: Decimal - 资产额度" style="text;strokeColor=none;fillColor=none;align=left;verticalAlign=top;spacingLeft=4;spacingRight=4;overflow=hidden;rotatable=0;points=[[0,0.5],[1,0.5]];portConstraint=eastwest;whiteSpace=wrap;html=1;" vertex="1" parent="F7tQ2r_eFeR0tLp06QVQ-879">
          <mxGeometry y="52" width="238.75" height="26" as="geometry" />
        </mxCell>
        <mxCell id="F7tQ2r_eFeR0tLp06QVQ-883" value="" style="line;strokeWidth=1;fillColor=none;align=left;verticalAlign=middle;spacingTop=-1;spacingLeft=3;spacingRight=3;rotatable=0;labelPosition=right;points=[];portConstraint=eastwest;strokeColor=inherit;" vertex="1" parent="F7tQ2r_eFeR0tLp06QVQ-879">
          <mxGeometry y="78" width="238.75" height="8" as="geometry" />
        </mxCell>
        <mxCell id="F7tQ2r_eFeR0tLp06QVQ-897" value="+ merge(SAssetV2) - 融合" style="text;strokeColor=none;fillColor=none;align=left;verticalAlign=top;spacingLeft=4;spacingRight=4;overflow=hidden;rotatable=0;points=[[0,0.5],[1,0.5]];portConstraint=eastwest;whiteSpace=wrap;html=1;" vertex="1" parent="F7tQ2r_eFeR0tLp06QVQ-879">
          <mxGeometry y="86" width="238.75" height="26" as="geometry" />
        </mxCell>
        <mxCell id="F7tQ2r_eFeR0tLp06QVQ-898" value="+ split(balance:Decimal): SAssetV2 - 拆分" style="text;strokeColor=none;fillColor=none;align=left;verticalAlign=top;spacingLeft=4;spacingRight=4;overflow=hidden;rotatable=0;points=[[0,0.5],[1,0.5]];portConstraint=eastwest;whiteSpace=wrap;html=1;" vertex="1" parent="F7tQ2r_eFeR0tLp06QVQ-879">
          <mxGeometry y="112" width="238.75" height="26" as="geometry" />
        </mxCell>
        <mxCell id="F7tQ2r_eFeR0tLp06QVQ-891" value="&lt;b style=&quot;font-size: 14px;&quot;&gt;SAssetManager 资产管理器&lt;/b&gt;" style="swimlane;fontStyle=1;align=center;verticalAlign=top;childLayout=stackLayout;horizontal=1;startSize=26;horizontalStack=0;resizeParent=1;resizeParentMax=0;resizeLast=0;collapsible=1;marginBottom=0;whiteSpace=wrap;html=1;fillColor=#d5e8d4;strokeColor=#82b366;" vertex="1" parent="1">
          <mxGeometry x="1040.63" y="1969" width="238.75" height="146" as="geometry" />
        </mxCell>
        <mxCell id="F7tQ2r_eFeR0tLp06QVQ-1138" value="&amp;nbsp;- 描述：资产类型-资产 映射" style="text;strokeColor=none;fillColor=none;align=left;verticalAlign=top;spacingLeft=4;spacingRight=4;overflow=hidden;rotatable=0;points=[[0,0.5],[1,0.5]];portConstraint=eastwest;whiteSpace=wrap;html=1;" vertex="1" parent="F7tQ2r_eFeR0tLp06QVQ-891">
          <mxGeometry y="26" width="238.75" height="26" as="geometry" />
        </mxCell>
        <mxCell id="F7tQ2r_eFeR0tLp06QVQ-892" value="+ asset_map: HashMap&amp;lt;EAssetType, SAssertV2&amp;gt;" style="text;strokeColor=none;fillColor=none;align=left;verticalAlign=top;spacingLeft=4;spacingRight=4;overflow=hidden;rotatable=0;points=[[0,0.5],[1,0.5]];portConstraint=eastwest;whiteSpace=wrap;html=1;" vertex="1" parent="F7tQ2r_eFeR0tLp06QVQ-891">
          <mxGeometry y="52" width="238.75" height="34" as="geometry" />
        </mxCell>
        <mxCell id="F7tQ2r_eFeR0tLp06QVQ-893" value="" style="line;strokeWidth=1;fillColor=none;align=left;verticalAlign=middle;spacingTop=-1;spacingLeft=3;spacingRight=3;rotatable=0;labelPosition=right;points=[];portConstraint=eastwest;strokeColor=inherit;" vertex="1" parent="F7tQ2r_eFeR0tLp06QVQ-891">
          <mxGeometry y="86" width="238.75" height="8" as="geometry" />
        </mxCell>
        <mxCell id="F7tQ2r_eFeR0tLp06QVQ-894" value="+ add_asset(SAssetV2): Result&amp;lt;Error&amp;gt;" style="text;strokeColor=none;fillColor=none;align=left;verticalAlign=top;spacingLeft=4;spacingRight=4;overflow=hidden;rotatable=0;points=[[0,0.5],[1,0.5]];portConstraint=eastwest;whiteSpace=wrap;html=1;" vertex="1" parent="F7tQ2r_eFeR0tLp06QVQ-891">
          <mxGeometry y="94" width="238.75" height="26" as="geometry" />
        </mxCell>
        <mxCell id="F7tQ2r_eFeR0tLp06QVQ-895" value="+ 转发SAssertV2函数" style="text;strokeColor=none;fillColor=none;align=left;verticalAlign=top;spacingLeft=4;spacingRight=4;overflow=hidden;rotatable=0;points=[[0,0.5],[1,0.5]];portConstraint=eastwest;whiteSpace=wrap;html=1;" vertex="1" parent="F7tQ2r_eFeR0tLp06QVQ-891">
          <mxGeometry y="120" width="238.75" height="26" as="geometry" />
        </mxCell>
        <mxCell id="F7tQ2r_eFeR0tLp06QVQ-1094" style="rounded=0;orthogonalLoop=1;jettySize=auto;html=1;" edge="1" parent="1" source="F7tQ2r_eFeR0tLp06QVQ-1085" target="F7tQ2r_eFeR0tLp06QVQ-1049">
          <mxGeometry relative="1" as="geometry" />
        </mxCell>
        <mxCell id="F7tQ2r_eFeR0tLp06QVQ-1085" value="&lt;b style=&quot;font-size: 14px;&quot;&gt;SOkxRunnerConfig&amp;nbsp;&lt;/b&gt;&lt;b style=&quot;font-size: 14px;&quot;&gt;Okx实盘&lt;/b&gt;&lt;b style=&quot;font-size: 14px;&quot;&gt;执行器配置&lt;/b&gt;" style="swimlane;fontStyle=1;align=center;verticalAlign=top;childLayout=stackLayout;horizontal=1;startSize=26;horizontalStack=0;resizeParent=1;resizeParentMax=0;resizeLast=0;collapsible=1;marginBottom=0;whiteSpace=wrap;html=1;fillColor=#dae8fc;strokeColor=#6c8ebf;" vertex="1" parent="1">
          <mxGeometry x="-1600" y="3011" width="320" height="60" as="geometry" />
        </mxCell>
        <mxCell id="F7tQ2r_eFeR0tLp06QVQ-1093" value="+ todo: xxx" style="text;strokeColor=none;fillColor=none;align=left;verticalAlign=top;spacingLeft=4;spacingRight=4;overflow=hidden;rotatable=0;points=[[0,0.5],[1,0.5]];portConstraint=eastwest;whiteSpace=wrap;html=1;" vertex="1" parent="F7tQ2r_eFeR0tLp06QVQ-1085">
          <mxGeometry y="26" width="320" height="26" as="geometry" />
        </mxCell>
        <mxCell id="F7tQ2r_eFeR0tLp06QVQ-1092" value="" style="line;strokeWidth=1;fillColor=none;align=left;verticalAlign=middle;spacingTop=-1;spacingLeft=3;spacingRight=3;rotatable=0;labelPosition=right;points=[];portConstraint=eastwest;strokeColor=inherit;" vertex="1" parent="F7tQ2r_eFeR0tLp06QVQ-1085">
          <mxGeometry y="52" width="320" height="8" as="geometry" />
        </mxCell>
        <mxCell id="F7tQ2r_eFeR0tLp06QVQ-1112" style="edgeStyle=orthogonalEdgeStyle;rounded=0;orthogonalLoop=1;jettySize=auto;html=1;exitX=0.5;exitY=1;exitDx=0;exitDy=0;" edge="1" parent="1" source="F7tQ2r_eFeR0tLp06QVQ-1082" target="F7tQ2r_eFeR0tLp06QVQ-1082">
          <mxGeometry relative="1" as="geometry" />
        </mxCell>
        <mxCell id="F7tQ2r_eFeR0tLp06QVQ-1137" style="rounded=0;orthogonalLoop=1;jettySize=auto;html=1;" edge="1" parent="1" source="F7tQ2r_eFeR0tLp06QVQ-1113" target="F7tQ2r_eFeR0tLp06QVQ-972">
          <mxGeometry relative="1" as="geometry" />
        </mxCell>
        <mxCell id="F7tQ2r_eFeR0tLp06QVQ-1144" style="rounded=0;orthogonalLoop=1;jettySize=auto;html=1;entryX=0.5;entryY=0;entryDx=0;entryDy=0;" edge="1" parent="1" source="F7tQ2r_eFeR0tLp06QVQ-1113" target="F7tQ2r_eFeR0tLp06QVQ-1184">
          <mxGeometry relative="1" as="geometry" />
        </mxCell>
        <mxCell id="F7tQ2r_eFeR0tLp06QVQ-1113" value="&lt;b style=&quot;font-size: 14px;&quot;&gt;STradingPairOrderMa&lt;/b&gt;&lt;b style=&quot;background-color: initial; font-size: 14px;&quot;&gt;p 交易对-订单管理器 映射&lt;/b&gt;" style="swimlane;fontStyle=1;align=center;verticalAlign=top;childLayout=stackLayout;horizontal=1;startSize=26;horizontalStack=0;resizeParent=1;resizeParentMax=0;resizeLast=0;collapsible=1;marginBottom=0;whiteSpace=wrap;html=1;fillColor=#fff2cc;strokeColor=#d6b656;" vertex="1" parent="1">
          <mxGeometry x="-1359.75" y="1640" width="479.75" height="125" as="geometry" />
        </mxCell>
        <mxCell id="F7tQ2r_eFeR0tLp06QVQ-1134" value="&amp;nbsp;- 描述：给OrderManager添加TradingPairType的限定。" style="text;strokeColor=none;fillColor=none;align=left;verticalAlign=top;spacingLeft=4;spacingRight=4;overflow=hidden;rotatable=0;points=[[0,0.5],[1,0.5]];portConstraint=eastwest;whiteSpace=wrap;html=1;" vertex="1" parent="F7tQ2r_eFeR0tLp06QVQ-1113">
          <mxGeometry y="26" width="479.75" height="26" as="geometry" />
        </mxCell>
        <mxCell id="F7tQ2r_eFeR0tLp06QVQ-1114" value="+ order_managers: HashMap&amp;lt;ETradingPairType, SOrderManagerV2&amp;gt;" style="text;strokeColor=none;fillColor=none;align=left;verticalAlign=top;spacingLeft=4;spacingRight=4;overflow=hidden;rotatable=0;points=[[0,0.5],[1,0.5]];portConstraint=eastwest;whiteSpace=wrap;html=1;" vertex="1" parent="F7tQ2r_eFeR0tLp06QVQ-1113">
          <mxGeometry y="52" width="479.75" height="20" as="geometry" />
        </mxCell>
        <mxCell id="F7tQ2r_eFeR0tLp06QVQ-1117" value="" style="line;strokeWidth=1;fillColor=none;align=left;verticalAlign=middle;spacingTop=-1;spacingLeft=3;spacingRight=3;rotatable=0;labelPosition=right;points=[];portConstraint=eastwest;strokeColor=inherit;" vertex="1" parent="F7tQ2r_eFeR0tLp06QVQ-1113">
          <mxGeometry y="72" width="479.75" height="8" as="geometry" />
        </mxCell>
        <mxCell id="F7tQ2r_eFeR0tLp06QVQ-1118" value="+ new(): Self" style="text;strokeColor=none;fillColor=none;align=left;verticalAlign=top;spacingLeft=4;spacingRight=4;overflow=hidden;rotatable=0;points=[[0,0.5],[1,0.5]];portConstraint=eastwest;whiteSpace=wrap;html=1;" vertex="1" parent="F7tQ2r_eFeR0tLp06QVQ-1113">
          <mxGeometry y="80" width="479.75" height="20" as="geometry" />
        </mxCell>
        <mxCell id="F7tQ2r_eFeR0tLp06QVQ-1136" value="+ calculate_total_assets(): HashMap&amp;lt;EAssetType, Decimal&amp;gt; - 统计每种资产的总锁定量" style="text;strokeColor=none;fillColor=none;align=left;verticalAlign=top;spacingLeft=4;spacingRight=4;overflow=hidden;rotatable=0;points=[[0,0.5],[1,0.5]];portConstraint=eastwest;whiteSpace=wrap;html=1;fontColor=#000000;fontStyle=0" vertex="1" parent="F7tQ2r_eFeR0tLp06QVQ-1113">
          <mxGeometry y="100" width="479.75" height="25" as="geometry" />
        </mxCell>
        <mxCell id="F7tQ2r_eFeR0tLp06QVQ-439" style="rounded=0;orthogonalLoop=1;jettySize=auto;html=1;" edge="1" parent="1" source="F7tQ2r_eFeR0tLp06QVQ-435" target="F7tQ2r_eFeR0tLp06QVQ-1113">
          <mxGeometry relative="1" as="geometry">
            <mxPoint x="419.5" y="2399" as="targetPoint" />
          </mxGeometry>
        </mxCell>
        <mxCell id="F7tQ2r_eFeR0tLp06QVQ-718" style="rounded=0;orthogonalLoop=1;jettySize=auto;html=1;" edge="1" parent="1">
          <mxGeometry relative="1" as="geometry">
            <mxPoint x="318.5" y="1430.178433124814" as="sourcePoint" />
          </mxGeometry>
        </mxCell>
        <mxCell id="F7tQ2r_eFeR0tLp06QVQ-768" style="rounded=0;orthogonalLoop=1;jettySize=auto;html=1;" edge="1" parent="1" source="F7tQ2r_eFeR0tLp06QVQ-763">
          <mxGeometry relative="1" as="geometry" />
        </mxCell>
        <mxCell id="F7tQ2r_eFeR0tLp06QVQ-848" value="" style="endArrow=classic;endFill=1;html=1;edgeStyle=orthogonalEdgeStyle;align=left;verticalAlign=top;rounded=0;startArrow=none;startFill=0;" edge="1" parent="1" target="F7tQ2r_eFeR0tLp06QVQ-126">
          <mxGeometry x="-1" relative="1" as="geometry">
            <mxPoint x="255.36999999999978" y="360" as="sourcePoint" />
            <mxPoint x="460.3699999999998" y="360" as="targetPoint" />
            <Array as="points">
              <mxPoint x="255" y="350" />
              <mxPoint x="280" y="350" />
              <mxPoint x="280" y="370" />
            </Array>
          </mxGeometry>
        </mxCell>
        <mxCell id="F7tQ2r_eFeR0tLp06QVQ-849" value="7. 策略校验（挂单、撤单、修改订单）" style="edgeLabel;resizable=0;html=1;align=left;verticalAlign=bottom;" connectable="0" vertex="1" parent="F7tQ2r_eFeR0tLp06QVQ-848">
          <mxGeometry x="-1" relative="1" as="geometry">
            <mxPoint y="-10" as="offset" />
          </mxGeometry>
        </mxCell>
        <mxCell id="F7tQ2r_eFeR0tLp06QVQ-902" style="rounded=0;orthogonalLoop=1;jettySize=auto;html=1;jumpStyle=arc;" edge="1" parent="1" source="F7tQ2r_eFeR0tLp06QVQ-891" target="F7tQ2r_eFeR0tLp06QVQ-509">
          <mxGeometry relative="1" as="geometry" />
        </mxCell>
        <mxCell id="F7tQ2r_eFeR0tLp06QVQ-1083" value="策略模块" style="rounded=1;whiteSpace=wrap;html=1;fillColor=none;strokeColor=#6c8ebf;fontColor=#000000;fontSize=20;fontFamily=Helvetica;verticalAlign=top;dashed=1;fontStyle=1;strokeWidth=3;" vertex="1" parent="1">
          <mxGeometry x="3000" y="-1070" width="870" height="1610" as="geometry" />
        </mxCell>
        <mxCell id="F7tQ2r_eFeR0tLp06QVQ-1166" value="&lt;b style=&quot;font-size: 14px;&quot;&gt;SScript 脚本&lt;/b&gt;" style="swimlane;fontStyle=1;align=center;verticalAlign=top;childLayout=stackLayout;horizontal=1;startSize=26;horizontalStack=0;resizeParent=1;resizeParentMax=0;resizeLast=0;collapsible=1;marginBottom=0;whiteSpace=wrap;html=1;fillColor=#d5e8d4;strokeColor=#82b366;" vertex="1" parent="1">
          <mxGeometry x="414" y="3110" width="359.5" height="112" as="geometry" />
        </mxCell>
        <mxCell id="F7tQ2r_eFeR0tLp06QVQ-1167" value="+ users: Vec&amp;lt;SUser&amp;gt;" style="text;strokeColor=none;fillColor=none;align=left;verticalAlign=top;spacingLeft=4;spacingRight=4;overflow=hidden;rotatable=0;points=[[0,0.5],[1,0.5]];portConstraint=eastwest;whiteSpace=wrap;html=1;" vertex="1" parent="F7tQ2r_eFeR0tLp06QVQ-1166">
          <mxGeometry y="26" width="359.5" height="26" as="geometry" />
        </mxCell>
        <mxCell id="F7tQ2r_eFeR0tLp06QVQ-1180" value="+ runner: TRunner" style="text;strokeColor=none;fillColor=none;align=left;verticalAlign=top;spacingLeft=4;spacingRight=4;overflow=hidden;rotatable=0;points=[[0,0.5],[1,0.5]];portConstraint=eastwest;whiteSpace=wrap;html=1;" vertex="1" parent="F7tQ2r_eFeR0tLp06QVQ-1166">
          <mxGeometry y="52" width="359.5" height="26" as="geometry" />
        </mxCell>
        <mxCell id="F7tQ2r_eFeR0tLp06QVQ-1168" value="" style="line;strokeWidth=1;fillColor=none;align=left;verticalAlign=middle;spacingTop=-1;spacingLeft=3;spacingRight=3;rotatable=0;labelPosition=right;points=[];portConstraint=eastwest;strokeColor=inherit;" vertex="1" parent="F7tQ2r_eFeR0tLp06QVQ-1166">
          <mxGeometry y="78" width="359.5" height="8" as="geometry" />
        </mxCell>
        <mxCell id="F7tQ2r_eFeR0tLp06QVQ-1179" value="+ run()" style="text;strokeColor=none;fillColor=none;align=left;verticalAlign=top;spacingLeft=4;spacingRight=4;overflow=hidden;rotatable=0;points=[[0,0.5],[1,0.5]];portConstraint=eastwest;whiteSpace=wrap;html=1;" vertex="1" parent="F7tQ2r_eFeR0tLp06QVQ-1166">
          <mxGeometry y="86" width="359.5" height="26" as="geometry" />
        </mxCell>
        <mxCell id="F7tQ2r_eFeR0tLp06QVQ-1178" style="rounded=0;orthogonalLoop=1;jettySize=auto;html=1;" edge="1" parent="1" source="F7tQ2r_eFeR0tLp06QVQ-1170" target="F7tQ2r_eFeR0tLp06QVQ-509">
          <mxGeometry relative="1" as="geometry" />
        </mxCell>
        <mxCell id="F7tQ2r_eFeR0tLp06QVQ-1170" value="&lt;b style=&quot;font-size: 14px;&quot;&gt;Back Trade Config 回测配置&lt;/b&gt;" style="swimlane;fontStyle=1;align=center;verticalAlign=top;childLayout=stackLayout;horizontal=1;startSize=26;horizontalStack=0;resizeParent=1;resizeParentMax=0;resizeLast=0;collapsible=1;marginBottom=0;whiteSpace=wrap;html=1;fillColor=#d5e8d4;strokeColor=#82b366;" vertex="1" parent="1">
          <mxGeometry x="-1001" y="2460" width="320" height="130" as="geometry" />
        </mxCell>
        <mxCell id="F7tQ2r_eFeR0tLp06QVQ-1171" value="+ taker_order_fee&lt;span style=&quot;text-wrap: nowrap;&quot;&gt;:&amp;nbsp;&lt;/span&gt;Decimal&lt;span style=&quot;text-wrap: nowrap;&quot;&gt;&amp;nbsp;- 吃单手续费&lt;/span&gt;" style="text;strokeColor=none;fillColor=none;align=left;verticalAlign=top;spacingLeft=4;spacingRight=4;overflow=hidden;rotatable=0;points=[[0,0.5],[1,0.5]];portConstraint=eastwest;whiteSpace=wrap;html=1;" vertex="1" parent="F7tQ2r_eFeR0tLp06QVQ-1170">
          <mxGeometry y="26" width="320" height="24" as="geometry" />
        </mxCell>
        <mxCell id="F7tQ2r_eFeR0tLp06QVQ-1172" value="&lt;div&gt;&lt;span style=&quot;text-wrap: nowrap;&quot;&gt;+ maker_order_fee:&amp;nbsp;&lt;/span&gt;&lt;span style=&quot;background-color: initial;&quot;&gt;Decimal&lt;/span&gt;&lt;span style=&quot;text-wrap: nowrap; background-color: initial;&quot;&gt;&amp;nbsp;- 挂单手续费&lt;/span&gt;&lt;/div&gt;" style="text;strokeColor=none;fillColor=none;align=left;verticalAlign=top;spacingLeft=4;spacingRight=4;overflow=hidden;rotatable=0;points=[[0,0.5],[1,0.5]];portConstraint=eastwest;whiteSpace=wrap;html=1;" vertex="1" parent="F7tQ2r_eFeR0tLp06QVQ-1170">
          <mxGeometry y="50" width="320" height="24" as="geometry" />
        </mxCell>
        <mxCell id="F7tQ2r_eFeR0tLp06QVQ-1175" value="&lt;div&gt;&lt;span style=&quot;text-wrap: nowrap;&quot;&gt;+ date_from: &lt;/span&gt;Date&lt;span style=&quot;text-wrap: nowrap; background-color: initial;&quot;&gt;&amp;nbsp;- 回测起始日期&lt;/span&gt;&lt;/div&gt;" style="text;strokeColor=none;fillColor=none;align=left;verticalAlign=top;spacingLeft=4;spacingRight=4;overflow=hidden;rotatable=0;points=[[0,0.5],[1,0.5]];portConstraint=eastwest;whiteSpace=wrap;html=1;" vertex="1" parent="F7tQ2r_eFeR0tLp06QVQ-1170">
          <mxGeometry y="74" width="320" height="24" as="geometry" />
        </mxCell>
        <mxCell id="F7tQ2r_eFeR0tLp06QVQ-1176" value="&lt;div&gt;&lt;span style=&quot;text-wrap: nowrap;&quot;&gt;+ date_to: &lt;/span&gt;Date&lt;span style=&quot;text-wrap: nowrap; background-color: initial;&quot;&gt;&amp;nbsp;- 回测结束日期&lt;/span&gt;&lt;/div&gt;" style="text;strokeColor=none;fillColor=none;align=left;verticalAlign=top;spacingLeft=4;spacingRight=4;overflow=hidden;rotatable=0;points=[[0,0.5],[1,0.5]];portConstraint=eastwest;whiteSpace=wrap;html=1;" vertex="1" parent="F7tQ2r_eFeR0tLp06QVQ-1170">
          <mxGeometry y="98" width="320" height="24" as="geometry" />
        </mxCell>
        <mxCell id="F7tQ2r_eFeR0tLp06QVQ-1177" value="" style="line;strokeWidth=1;fillColor=none;align=left;verticalAlign=middle;spacingTop=-1;spacingLeft=3;spacingRight=3;rotatable=0;labelPosition=right;points=[];portConstraint=eastwest;strokeColor=inherit;" vertex="1" parent="F7tQ2r_eFeR0tLp06QVQ-1170">
          <mxGeometry y="122" width="320" height="8" as="geometry" />
        </mxCell>
        <mxCell id="F7tQ2r_eFeR0tLp06QVQ-1190" style="rounded=0;orthogonalLoop=1;jettySize=auto;html=1;" edge="1" parent="1" source="F7tQ2r_eFeR0tLp06QVQ-1184" target="F7tQ2r_eFeR0tLp06QVQ-509">
          <mxGeometry relative="1" as="geometry" />
        </mxCell>
        <mxCell id="F7tQ2r_eFeR0tLp06QVQ-1184" value="&lt;b style=&quot;font-size: 14px;&quot;&gt;SDataManager&lt;/b&gt;&lt;b style=&quot;background-color: initial; font-size: 14px;&quot;&gt;&amp;nbsp;数据管理器&lt;/b&gt;" style="swimlane;fontStyle=1;align=center;verticalAlign=top;childLayout=stackLayout;horizontal=1;startSize=26;horizontalStack=0;resizeParent=1;resizeParentMax=0;resizeLast=0;collapsible=1;marginBottom=0;whiteSpace=wrap;html=1;fillColor=#fff2cc;strokeColor=#d6b656;" vertex="1" parent="1">
          <mxGeometry x="-1358.75" y="1920" width="479.75" height="169" as="geometry" />
        </mxCell>
        <mxCell id="F7tQ2r_eFeR0tLp06QVQ-1186" value="+ data_api: TDataApi - 数据接口" style="text;strokeColor=none;fillColor=none;align=left;verticalAlign=top;spacingLeft=4;spacingRight=4;overflow=hidden;rotatable=0;points=[[0,0.5],[1,0.5]];portConstraint=eastwest;whiteSpace=wrap;html=1;" vertex="1" parent="F7tQ2r_eFeR0tLp06QVQ-1184">
          <mxGeometry y="26" width="479.75" height="20" as="geometry" />
        </mxCell>
        <mxCell id="F7tQ2r_eFeR0tLp06QVQ-1192" value="+ trading_pair_map: STradingPairMap - 交易对管理器" style="text;strokeColor=none;fillColor=none;align=left;verticalAlign=top;spacingLeft=4;spacingRight=4;overflow=hidden;rotatable=0;points=[[0,0.5],[1,0.5]];portConstraint=eastwest;whiteSpace=wrap;html=1;" vertex="1" parent="F7tQ2r_eFeR0tLp06QVQ-1184">
          <mxGeometry y="46" width="479.75" height="20" as="geometry" />
        </mxCell>
        <mxCell id="F7tQ2r_eFeR0tLp06QVQ-1187" value="" style="line;strokeWidth=1;fillColor=none;align=left;verticalAlign=middle;spacingTop=-1;spacingLeft=3;spacingRight=3;rotatable=0;labelPosition=right;points=[];portConstraint=eastwest;strokeColor=inherit;" vertex="1" parent="F7tQ2r_eFeR0tLp06QVQ-1184">
          <mxGeometry y="66" width="479.75" height="8" as="geometry" />
        </mxCell>
        <mxCell id="F7tQ2r_eFeR0tLp06QVQ-1188" value="+ build(date_from:Date, date_to:Date): Self" style="text;strokeColor=none;fillColor=none;align=left;verticalAlign=top;spacingLeft=4;spacingRight=4;overflow=hidden;rotatable=0;points=[[0,0.5],[1,0.5]];portConstraint=eastwest;whiteSpace=wrap;html=1;" vertex="1" parent="F7tQ2r_eFeR0tLp06QVQ-1184">
          <mxGeometry y="74" width="479.75" height="20" as="geometry" />
        </mxCell>
        <mxCell id="F7tQ2r_eFeR0tLp06QVQ-1189" value="+ get_trading_pairs(): &amp;amp;HashMap&amp;lt;ETradingPairType, STradingPair&amp;gt;&amp;nbsp;" style="text;strokeColor=none;fillColor=none;align=left;verticalAlign=top;spacingLeft=4;spacingRight=4;overflow=hidden;rotatable=0;points=[[0,0.5],[1,0.5]];portConstraint=eastwest;whiteSpace=wrap;html=1;fontColor=#000000;fontStyle=0" vertex="1" parent="F7tQ2r_eFeR0tLp06QVQ-1184">
          <mxGeometry y="94" width="479.75" height="25" as="geometry" />
        </mxCell>
        <mxCell id="F7tQ2r_eFeR0tLp06QVQ-1193" value="+ get_trading_pair(ETradingPairType): Result&amp;lt;&amp;amp;STradingPair&amp;gt;&amp;nbsp;" style="text;strokeColor=none;fillColor=none;align=left;verticalAlign=top;spacingLeft=4;spacingRight=4;overflow=hidden;rotatable=0;points=[[0,0.5],[1,0.5]];portConstraint=eastwest;whiteSpace=wrap;html=1;fontColor=#000000;fontStyle=0" vertex="1" parent="F7tQ2r_eFeR0tLp06QVQ-1184">
          <mxGeometry y="119" width="479.75" height="25" as="geometry" />
        </mxCell>
        <mxCell id="F7tQ2r_eFeR0tLp06QVQ-1195" value="+ get_close_price(Date): Result&amp;lt;Option&amp;lt;Decimal&amp;gt;&amp;gt; - 获取特定K线的收盘时间" style="text;strokeColor=none;fillColor=none;align=left;verticalAlign=top;spacingLeft=4;spacingRight=4;overflow=hidden;rotatable=0;points=[[0,0.5],[1,0.5]];portConstraint=eastwest;whiteSpace=wrap;html=1;fontColor=#000000;fontStyle=0" vertex="1" parent="F7tQ2r_eFeR0tLp06QVQ-1184">
          <mxGeometry y="144" width="479.75" height="25" as="geometry" />
        </mxCell>
        <mxCell id="F7tQ2r_eFeR0tLp06QVQ-1214" style="rounded=0;orthogonalLoop=1;jettySize=auto;html=1;entryX=0.5;entryY=0;entryDx=0;entryDy=0;" edge="1" parent="1" source="F7tQ2r_eFeR0tLp06QVQ-1200" target="F7tQ2r_eFeR0tLp06QVQ-1166">
          <mxGeometry relative="1" as="geometry" />
        </mxCell>
        <mxCell id="F7tQ2r_eFeR0tLp06QVQ-1200" value="&lt;b style=&quot;font-size: 14px;&quot;&gt;SUser&lt;/b&gt;&lt;b style=&quot;background-color: initial; font-size: 14px;&quot;&gt;&amp;nbsp;数据管理器&lt;/b&gt;" style="swimlane;fontStyle=1;align=center;verticalAlign=top;childLayout=stackLayout;horizontal=1;startSize=26;horizontalStack=0;resizeParent=1;resizeParentMax=0;resizeLast=0;collapsible=1;marginBottom=0;whiteSpace=wrap;html=1;fillColor=#fff2cc;strokeColor=#d6b656;" vertex="1" parent="1">
          <mxGeometry x="1120.25" y="2480" width="479.75" height="279" as="geometry" />
        </mxCell>
        <mxCell id="F7tQ2r_eFeR0tLp06QVQ-1201" value="+ config: SUserConfig - 用户配置" style="text;strokeColor=none;fillColor=none;align=left;verticalAlign=top;spacingLeft=4;spacingRight=4;overflow=hidden;rotatable=0;points=[[0,0.5],[1,0.5]];portConstraint=eastwest;whiteSpace=wrap;html=1;" vertex="1" parent="F7tQ2r_eFeR0tLp06QVQ-1200">
          <mxGeometry y="26" width="479.75" height="20" as="geometry" />
        </mxCell>
        <mxCell id="F7tQ2r_eFeR0tLp06QVQ-1202" value="+ id: Uuid" style="text;strokeColor=none;fillColor=none;align=left;verticalAlign=top;spacingLeft=4;spacingRight=4;overflow=hidden;rotatable=0;points=[[0,0.5],[1,0.5]];portConstraint=eastwest;whiteSpace=wrap;html=1;" vertex="1" parent="F7tQ2r_eFeR0tLp06QVQ-1200">
          <mxGeometry y="46" width="479.75" height="20" as="geometry" />
        </mxCell>
        <mxCell id="F7tQ2r_eFeR0tLp06QVQ-1208" value="+ tp_order_map: STradingPairOrderManagerMap - 交易对-订单管理器 映射" style="text;strokeColor=none;fillColor=none;align=left;verticalAlign=top;spacingLeft=4;spacingRight=4;overflow=hidden;rotatable=0;points=[[0,0.5],[1,0.5]];portConstraint=eastwest;whiteSpace=wrap;html=1;" vertex="1" parent="F7tQ2r_eFeR0tLp06QVQ-1200">
          <mxGeometry y="66" width="479.75" height="20" as="geometry" />
        </mxCell>
        <mxCell id="F7tQ2r_eFeR0tLp06QVQ-1210" value="+ available_assets: SAssetMap - 可用资产" style="text;strokeColor=none;fillColor=none;align=left;verticalAlign=top;spacingLeft=4;spacingRight=4;overflow=hidden;rotatable=0;points=[[0,0.5],[1,0.5]];portConstraint=eastwest;whiteSpace=wrap;html=1;" vertex="1" parent="F7tQ2r_eFeR0tLp06QVQ-1200">
          <mxGeometry y="86" width="479.75" height="20" as="geometry" />
        </mxCell>
        <mxCell id="F7tQ2r_eFeR0tLp06QVQ-1209" value="+ strategy: TStrategy - 策略" style="text;strokeColor=none;fillColor=none;align=left;verticalAlign=top;spacingLeft=4;spacingRight=4;overflow=hidden;rotatable=0;points=[[0,0.5],[1,0.5]];portConstraint=eastwest;whiteSpace=wrap;html=1;" vertex="1" parent="F7tQ2r_eFeR0tLp06QVQ-1200">
          <mxGeometry y="106" width="479.75" height="20" as="geometry" />
        </mxCell>
        <mxCell id="F7tQ2r_eFeR0tLp06QVQ-1203" value="" style="line;strokeWidth=1;fillColor=none;align=left;verticalAlign=middle;spacingTop=-1;spacingLeft=3;spacingRight=3;rotatable=0;labelPosition=right;points=[];portConstraint=eastwest;strokeColor=inherit;" vertex="1" parent="F7tQ2r_eFeR0tLp06QVQ-1200">
          <mxGeometry y="126" width="479.75" height="8" as="geometry" />
        </mxCell>
        <mxCell id="F7tQ2r_eFeR0tLp06QVQ-1204" value="+ new(SUserConfig, strategy): Self" style="text;strokeColor=none;fillColor=none;align=left;verticalAlign=top;spacingLeft=4;spacingRight=4;overflow=hidden;rotatable=0;points=[[0,0.5],[1,0.5]];portConstraint=eastwest;whiteSpace=wrap;html=1;" vertex="1" parent="F7tQ2r_eFeR0tLp06QVQ-1200">
          <mxGeometry y="134" width="479.75" height="20" as="geometry" />
        </mxCell>
        <mxCell id="F7tQ2r_eFeR0tLp06QVQ-1205" value="+ get_strategy_result(SRunnerParseResult): Vec&amp;lt;EStrategyAction&amp;gt;&amp;nbsp;" style="text;strokeColor=none;fillColor=none;align=left;verticalAlign=top;spacingLeft=4;spacingRight=4;overflow=hidden;rotatable=0;points=[[0,0.5],[1,0.5]];portConstraint=eastwest;whiteSpace=wrap;html=1;fontColor=#000000;fontStyle=0" vertex="1" parent="F7tQ2r_eFeR0tLp06QVQ-1200">
          <mxGeometry y="154" width="479.75" height="25" as="geometry" />
        </mxCell>
        <mxCell id="F7tQ2r_eFeR0tLp06QVQ-1206" value="+ response_verify_result(Vec&amp;lt;ERunnerParseActionResult&amp;gt;)&amp;nbsp;" style="text;strokeColor=none;fillColor=none;align=left;verticalAlign=top;spacingLeft=4;spacingRight=4;overflow=hidden;rotatable=0;points=[[0,0.5],[1,0.5]];portConstraint=eastwest;whiteSpace=wrap;html=1;fontColor=#000000;fontStyle=0" vertex="1" parent="F7tQ2r_eFeR0tLp06QVQ-1200">
          <mxGeometry y="179" width="479.75" height="25" as="geometry" />
        </mxCell>
        <mxCell id="F7tQ2r_eFeR0tLp06QVQ-1207" value="+ total_asset(): SAssetMap - 所有资产" style="text;strokeColor=none;fillColor=none;align=left;verticalAlign=top;spacingLeft=4;spacingRight=4;overflow=hidden;rotatable=0;points=[[0,0.5],[1,0.5]];portConstraint=eastwest;whiteSpace=wrap;html=1;fontColor=#000000;fontStyle=0" vertex="1" parent="F7tQ2r_eFeR0tLp06QVQ-1200">
          <mxGeometry y="204" width="479.75" height="25" as="geometry" />
        </mxCell>
        <mxCell id="F7tQ2r_eFeR0tLp06QVQ-1216" value="+ locked_asset(): SAssetMap - 锁定资产" style="text;strokeColor=none;fillColor=none;align=left;verticalAlign=top;spacingLeft=4;spacingRight=4;overflow=hidden;rotatable=0;points=[[0,0.5],[1,0.5]];portConstraint=eastwest;whiteSpace=wrap;html=1;fontColor=#000000;fontStyle=0" vertex="1" parent="F7tQ2r_eFeR0tLp06QVQ-1200">
          <mxGeometry y="229" width="479.75" height="25" as="geometry" />
        </mxCell>
        <mxCell id="F7tQ2r_eFeR0tLp06QVQ-1217" value="+ available_asset(): SAssetMap - 可用资产" style="text;strokeColor=none;fillColor=none;align=left;verticalAlign=top;spacingLeft=4;spacingRight=4;overflow=hidden;rotatable=0;points=[[0,0.5],[1,0.5]];portConstraint=eastwest;whiteSpace=wrap;html=1;fontColor=#000000;fontStyle=0" vertex="1" parent="F7tQ2r_eFeR0tLp06QVQ-1200">
          <mxGeometry y="254" width="479.75" height="25" as="geometry" />
        </mxCell>
      </root>
    </mxGraphModel>
  </diagram>
</mxfile>
